<svg id="Layer_1" data-name="Layer 1" xmlns="http://www.w3.org/2000/svg" viewBox="0 0 358.66 73.18"><defs><style>.cls-1{fill:#ee5630;}.cls-2{fill:#c03d32;}.cls-3{fill:#41a6dd;}.cls-4{fill:#58595b;}</style></defs><path class="cls-1" d="M40.7,21.67S52.12,35,51,50.49,37.49,72.35,28.32,72.35c-10.64,0-19.54-1.54-26.11-16S17.68,12.57,17.68,12.57a22.47,22.47,0,0,0,6.19,13.74s-10.25,9.28-9.09,22.25,15.86,12.38,19.93,6.77,4.45-8.51,3.09-14.71,2.9-18.95,2.9-18.95"/><path class="cls-2" d="M18.26,10.83s-.77,9.67,5.61,15.48c0,0-13.93,19.38-12.39,42,0,0-27.47-13.73,6.78-57.49"/><path class="cls-3" d="M26.39.77S19,10.83,25,20.89,39.6,39.1,37.86,49.74c0,0,4.59-5.44,2.84-28.07A184.83,184.83,0,0,1,26.39.77"/><path class="cls-4" d="M343.35,52.72,349,39.42v13.3Zm-5.11,5.06H349V64.2h5.46V57.78h2.63V52.72h-2.63V28.8h-6.06L338.24,52.72ZM323,37.5c0,10.21-11,11.93-11,22.35V64.2H328V59.14H317.51a3.89,3.89,0,0,1-.05-.76c0-5.81,11.07-10,11.07-21.08,0-5.67-2.83-8.9-8.29-8.9S312,31.63,312,37.3v3.43h5.26V36.94c0-2.53,1.11-3.49,2.88-3.49s2.88.86,2.88,4m-34.59,8V32.39h3.85c2.93,0,4.09,1.67,4.09,4.85v3.39c0,3.85-1.87,4.86-5,4.86ZM284.44,28.8V64.2h3.94V49.08h2.78c3.29,0,5.16,1.26,5.16,5.26V59.9a9.19,9.19,0,0,0,.66,4.3h4a9,9,0,0,1-.7-4.25V54.44c0-3.79-1.22-6.42-4.45-7.39,3-1,4.4-3.38,4.4-7.28V36.89c0-5.26-2.33-8.09-7.89-8.09ZM262.59,44.48V32.39h10.62V28.8H258.65V64.2h14.56V60.61H262.59V48h8.65V44.48ZM241.81,64.2V32.39h6.52V28.8h-17v3.59h6.53V64.2ZM212.18,33.25l4,20.43h-7.89Zm4.55,23.82,1.36,7.13H222l-6.78-35.4h-5.71l-6.78,35.4h3.64l1.37-7.13ZM180.37,40.18l3.39,24H189l4.8-35.4h-3.44l-4,30.19-3.9-30.14h-3.89l-3.94,30.09L170.46,28.8h-3.84l4.85,35.4h5.41Zm-29.73,24V32.39h6.52V28.8h-17v3.59h6.52V64.2ZM117.87,37.14c0-3.18,1.37-5.1,4.2-5.1s4.19,1.92,4.19,5.1V55.85c0,3.24-1.31,5.11-4.19,5.11s-4.2-1.87-4.2-5.11ZM114,55.65c0,5.36,2.68,8.9,8.09,8.9s8.14-3.54,8.14-8.9V37.35c0-5.41-2.68-8.9-8.14-8.9S114,31.94,114,37.35ZM98.71,48.27V64.2h3.94V28.8H98.71V44.73H90V28.8h-4V64.2h4V48.27Z"/></svg>