<svg id="Layer_1" data-name="Layer 1" xmlns="http://www.w3.org/2000/svg" viewBox="0 0 600 600"><defs><style>.cls-1{fill:#ed5530;}.cls-2{fill:#c13c32;}.cls-3{fill:#41a6dd;}</style></defs><path class="cls-1" d="M394.16,210.51s71.26,83.34,64,180S374.08,527,316.85,527c-66.43,0-122-9.66-163.07-100.26s96.64-273,96.64-273,1.2,47.11,38.65,85.77c0,0-64,58-56.77,138.91s99.05,77.3,124.41,42.27,27.78-53.14,19.33-91.8S394.16,210.51,394.16,210.51Z"/><path class="cls-2" d="M254,142.86s-4.83,60.4,35,96.64c0,0-87,121-77.36,262.32C211.71,501.82,40.2,416.06,254,142.86Z"/><path class="cls-3" d="M304.77,80.05s-45.9,62.81-8.45,125.63,90.94,113.67,80.07,180.11c0,0,28.64-34,17.77-175.28C394.16,210.51,356.71,165.81,304.77,80.05Z"/></svg>