<?xml version="1.0" encoding="utf-8"?>
<!-- Generator: Adobe Illustrator 26.0.3, SVG Export Plug-In . SVG Version: 6.00 Build 0)  -->
<svg version="1.1" id="Layer_1" xmlns="http://www.w3.org/2000/svg" xmlns:xlink="http://www.w3.org/1999/xlink" x="0px" y="0px"
	 viewBox="0 0 819.9 366" style="enable-background:new 0 0 819.9 366;" xml:space="preserve">
<style type="text/css">
	.st0{fill:none;stroke:#41A6DD;stroke-width:13;stroke-linecap:round;stroke-linejoin:round;stroke-miterlimit:10;}
	.st1{fill:#FFFFFF;}
	.st2{fill:none;stroke:#41A6DD;stroke-width:13;stroke-linecap:round;stroke-linejoin:round;}
	.st3{fill:none;stroke:#41A6DD;stroke-width:13;stroke-linecap:round;stroke-linejoin:round;stroke-dasharray:25.0494,25.0494;}
	.st4{fill:none;stroke:#41A6DD;stroke-width:13;stroke-linecap:round;stroke-linejoin:round;stroke-dasharray:29.7778,29.7778;}
	.st5{fill:none;stroke:#41A6DD;stroke-width:13;stroke-linecap:round;stroke-linejoin:round;stroke-dasharray:28.965,28.965;}
	.st6{fill:#F15A29;}
	.st7{fill:none;stroke:#F15A29;stroke-width:5;stroke-linecap:round;stroke-linejoin:round;stroke-miterlimit:10;}
	.st8{fill:#41A6DD;}
	.st9{fill:#44A7DE;}
	.st10{fill:#43A7DE;}
	.st11{fill:#41A6DD;stroke:#27AAE1;stroke-miterlimit:10;}
	.st12{fill:#41A6DD;stroke:#27AAE1;stroke-width:2;stroke-linecap:round;stroke-linejoin:round;stroke-miterlimit:10;}
	.st13{fill:#46A8DE;}
	.st14{fill:#47A8DE;}
	.st15{fill:#4AA9DF;}
	.st16{fill:#46A7DE;}
	.st17{clip-path:url(#SVGID_00000088812990634700091040000007462971812737103549_);fill:#46A7DE;}
	.st18{fill:none;}
	.st19{fill:none;stroke:#545554;stroke-width:2;stroke-linecap:round;}
	.st20{fill:none;stroke:#545554;stroke-linecap:round;}
	.st21{fill:#414042;}
	.st22{fill:#41A6DD;stroke:#41A6DD;stroke-width:3;stroke-miterlimit:10;}
	.st23{fill:#41A6DD;stroke:#41A6DD;stroke-width:4;stroke-miterlimit:10;}
	.st24{fill:#E81F25;}
	.st25{fill:#F6A01E;}
	.st26{fill:#F16122;}
	.st27{fill:#F7F6F6;}
	.st28{fill:#41A6DD;stroke:#41A6DD;stroke-width:2;stroke-linecap:round;stroke-linejoin:round;stroke-miterlimit:10;}
	.st29{fill:#41A6DD;stroke:#41A6DD;stroke-linecap:round;stroke-linejoin:round;stroke-miterlimit:10;}
	.st30{fill:none;stroke:#47A8DE;stroke-width:7;stroke-linejoin:round;stroke-miterlimit:10;}
	.st31{fill:none;stroke:#F15A29;stroke-width:10;stroke-linecap:round;stroke-linejoin:round;stroke-miterlimit:10;}
	.st32{fill:none;stroke:#000000;stroke-width:10;stroke-linecap:round;stroke-linejoin:round;stroke-miterlimit:10;}
	.st33{fill:#EE5630;}
	.st34{fill:none;stroke:#F15A29;stroke-width:2;stroke-linecap:round;stroke-linejoin:round;stroke-miterlimit:10;}
	.st35{fill:none;stroke:#EE5630;stroke-miterlimit:10;}
	.st36{fill:#41A6DD;stroke:#41A6DD;stroke-width:11;stroke-linecap:round;stroke-linejoin:round;stroke-miterlimit:10;}
	.st37{fill:none;stroke:#41A6DD;stroke-width:11;stroke-linecap:round;stroke-linejoin:round;stroke-miterlimit:10;}
	.st38{fill:none;stroke:#41A6DD;stroke-width:9;stroke-linecap:round;stroke-linejoin:round;stroke-miterlimit:10;}
	.st39{fill:none;stroke:#41A6DD;stroke-width:5;stroke-linecap:round;stroke-linejoin:round;stroke-miterlimit:10;}
	.st40{fill:#FFFFFF;stroke:#41A6DD;stroke-width:13;stroke-linecap:round;stroke-linejoin:round;stroke-miterlimit:10;}
	.st41{fill:none;stroke:#EE5630;stroke-width:2;stroke-linecap:round;stroke-linejoin:round;stroke-miterlimit:10;}
	.st42{fill:none;stroke:#46A7DE;stroke-width:4;stroke-linecap:round;stroke-linejoin:round;stroke-miterlimit:10;}
</style>
<path class="st16" d="M529.7,144.9l0,16.3l0,8.3c0,13.5,0,26.9,0,40.4c0,1.2-0.1,2.5-0.5,4.2c-0.4,1.8-1.7,2.9-3.5,2.9l-0.6,0
	c-7.2,0-14.3,0-21.5,0c-2.1,0-3.4-1.4-3.5-3.5l-0.1-1.6c-0.1-2.2-0.2-4.6-0.2-6.8c0-6.6,0-13.2,0-19.8c0-5,0-10.1,0-15.1
	c0-0.8-0.1-1.6-0.2-2.3c-0.3-1.8-1-2.6-4-2.8c-0.9,0-1.7,0-2.7,0h-0.7c-15.9,0-31.8,0-47.8,0c-1.2,0-2.1,0.1-3,0.2
	c-2.1,0.3-2.9,1.1-3.1,3.3c0,0.5,0,0.9,0,1.4l0,0.3l0,42c0,0.4,0,0.7,0,1.1c-0.1,2.3-1.6,3.7-3.8,3.7c-3.5,0-7,0-10.6,0
	c-3.9,0-7.7,0-11.6,0c-2.1,0-3.5-1.3-3.7-3.4c-0.2-2.1-0.4-5-0.4-7.9c0-12.2,0-24.3,0-36.5c0-12.8,0-25.7,0-38.5
	c0-5.8,0-11.7-0.1-17.5c0-4.9,2-8.7,6-11.2c13.3-8.3,26.7-16.8,39.6-25.1l9.3-5.9c3.9-2.5,8.2-2.5,12.2,0.1
	c6.4,4.1,12.8,8.2,19.2,12.3c9.7,6.2,19.3,12.4,29,18.5c4.2,2.7,6.3,6.5,6.3,11.5C529.7,123.8,529.7,134.4,529.7,144.9 M492.7,212.6
	c0,3.2-1.2,4.4-4.4,4.4c-3,0-6,0-9,0h-5.2l-10.4,0c-4.6,0-9.3,0-13.9,0c-3.2,0-4.4-1.2-4.4-4.5c0-12.3,0-24.6,0-36.9
	c0-3.2,1.3-4.5,4.5-4.5h38.4c3.1,0,4.4,1.3,4.4,4.4C492.7,187.9,492.7,200.3,492.7,212.6 M542.9,118.9c1.8,0,3.7,0,5.5-0.1l0.6,0
	c1.4,0,2.8-0.1,3.9-0.7c0.9-0.5,1.5-1.3,1.6-2.1c0.1-0.9-0.3-1.7-1.1-2.4c-0.6-0.5-1.2-0.9-1.7-1.2c-10.6-6.7-21.1-13.4-31.7-20.1
	l-23.4-14.8c-3.3-2.1-6.6-4.2-9.9-6.3c-4.9-3.1-9.7-6.2-14.6-9.3c-2.3-1.4-4.4-1.4-6.7,0.1c-7,4.7-14.1,9.1-22,14
	c-1.2,0.7-2.3,1.5-3.5,2.2c-2.4,1.6-4.9,3.2-7.5,4.5c-1.4,0.7-2.9,1.3-4.3,0.5c-1.5-0.9-1.5-2.9-1.5-4c0-1.8,0-3.6,0-5.3
	c0-3.4,0.1-6.9-0.2-10.3c-0.1-1.8-1.2-2.8-2.9-3c-0.2,0-0.4,0-0.5,0c-1.6,0-2.5,0.8-2.9,2.4c-0.2,1.1-0.3,2.2-0.3,3.4
	c0,0.4,0,0.8,0,1.2c-0.2,3.8,0,7.7,0.1,11.5c0,1.4,0.1,2.8,0.1,4.1c0.1,5.1-2,9.1-6.4,11.8c-5.2,3.2-10.4,6.5-15.5,9.8l-2.5,1.6
	c-3.6,2.3-7.4,4.7-11,7.1c-0.9,0.6-1.2,1.3-1,2.3c0.2,1.2,0.8,2.5,3.4,2.5c1.9,0,3.8,0.1,5.6,0.1c1.7,0,3.5,0.1,5.2,0.1
	c2.4,0.1,3.8,1.4,3.9,3.8c0,0.4,0,0.7,0,1.1l0,15c0,25.8,0,51.5,0,77.3c0,1.3,0.1,2.6,0.2,4.2c0.2,2,0.7,2.3,2,2.4
	c1.3,0.2,2.6,0.3,3.8,0.3h0c16.1,0,32.2,0,48.3,0h26.7c15.6,0,31.2,0,46.7,0c1.5,0,3.2-0.1,4.9-0.4c0.6-0.1,0.9-0.4,1.1-1.1
	c0.3-1.2,0.4-2.5,0.4-3.8c0-24.9,0-49.9,0-74.8l0-19.1c0-0.3,0-0.7,0-1c0.1-2.5,1.4-3.8,4-3.8C541,118.9,541.9,118.9,542.9,118.9"/>
<path class="st33" d="M460.2,133c11.8,0,24,0.1,35.9-0.2c0.8,0,1.5-0.2,2.2-0.5c0.8-0.4,1.4-1.1,1.4-2c0.1-0.8-0.4-1.6-1.1-2.2
	c-0.8-0.6-1.8-0.8-3.3-0.8h0c-6.7,0-13.5,0-20.2,0l-12.3,0c-6.5,0-13,0-19.5,0c-0.8,0-1.6,0.1-2.6,0.2c-1.3,0.2-2.4,1.3-2.4,2.3
	c0,1.1,0.2,2.2,2.3,2.7c0.9,0.2,1.9,0.3,2.9,0.3h0c1.3,0,2.6,0,3.9,0C451.7,133,456,133,460.2,133"/>
<path class="st41" d="M460.2,133c11.8,0,24,0.1,35.9-0.2c0.8,0,1.5-0.2,2.2-0.5c0.8-0.4,1.4-1.1,1.4-2c0.1-0.8-0.4-1.6-1.1-2.2
	c-0.8-0.6-1.8-0.8-3.3-0.8h0c-6.7,0-13.5,0-20.2,0l-12.3,0c-6.5,0-13,0-19.5,0c-0.8,0-1.6,0.1-2.6,0.2c-1.3,0.2-2.4,1.3-2.4,2.3
	c0,1.1,0.2,2.2,2.3,2.7c0.9,0.2,1.9,0.3,2.9,0.3h0c1.3,0,2.6,0,3.9,0C451.7,133,456,133,460.2,133z"/>
<path class="st16" d="M740.3,29.6h5.8c0-0.1,0-0.2,0-0.4c-1.9-0.7-3.8-1.5-5.9-2.3V29.6z M734.8,26.9c-2.1,0.9-4,1.7-5.9,2.4
	l0.1,0.4h5.8V26.9z M734.7,61.7v-8.5h-7.5C729.8,56.1,732,58.7,734.7,61.7 M740.2,61.8c2.7-3.1,5.1-5.7,7.6-8.7h-7.6V61.8z
	 M740.3,43.2c2.8-2.6,5.5-5.2,8.4-7.9h-8.4V43.2z M734.8,43.7v-8.5h-8.3C729.2,38.1,731.9,40.8,734.8,43.7 M751.7,56.5
	c-3,3.4-5.6,6.3-8.3,9.5h9.4C752.4,62.9,752.1,60,751.7,56.5 M723.3,56.5c-0.4,3.5-0.7,6.4-1,9.4h9.4
	C728.8,62.8,726.3,60,723.3,56.5 M793.7,47.8c-2.1-3.8-4.1-7.2-6.2-11c-3.4,3.7-6.6,7.2-10.1,11H793.7z M697.6,47.7
	c-3.5-3.8-6.6-7.2-10.1-10.9c-2.2,3.8-4.1,7.2-6.2,10.9H697.6z M781.8,35.3h-20.5c3.5,3.9,6.8,7.5,10.1,11.3
	C775,42.8,778.3,39.2,781.8,35.3 M693,35.1c3.8,4.1,7.1,7.7,10.5,11.5c3.4-3.8,6.7-7.5,10.2-11.5H693z M765.7,47.7
	c-3.7-4.1-7-7.8-9.9-10.9c-3.8,3.8-7.6,7.4-11.2,10.9H765.7z M719.4,36.6c-3.1,3.4-6.3,7.1-10,11.1h21.4
	C727,44,723.3,40.4,719.4,36.6 M721.7,71.5c-1.1,10.6-2.2,21-3.3,31.5c0.2,0.1,0.4,0.1,0.6,0.2c4.8-10.4,9.6-20.9,14.5-31.6H721.7z
	 M741.6,71.5c5,10.8,9.7,21.2,14.5,31.6c0.2-0.1,0.4-0.1,0.6-0.2c-1.1-10.5-2.2-20.9-3.3-31.4H741.6z M734.8,82
	c-0.2-0.1-0.3-0.1-0.4-0.2c-5.4,11.7-10.7,23.5-16.3,35.5h16.7V82z M757,117.4c-5.6-12.2-11-23.9-16.7-36.3v36.3H757z M740.2,160.4
	c0.2,0,0.3,0.1,0.5,0.1c5.4-12.5,10.8-25,16.3-37.7h-16.8V160.4z M717.9,122.7c5.6,12.9,11,25.3,16.4,37.8l0.3-0.2v-37.6H717.9z
	 M764.4,177h-21.7c8.4,11.2,16.5,22.1,24.6,33c0.2-0.1,0.4-0.1,0.5-0.2C766.8,198.9,765.6,188,764.4,177 M707.1,209.7
	c0.2,0.1,0.4,0.1,0.6,0.2c8.1-10.9,16.3-21.8,24.7-33.1c-7.1,0-13.5,0-20,0c-1.5,0-2,0.6-2.1,2c-0.2,2.7-0.5,5.4-0.8,8.1
	C708.7,194.5,707.9,202.1,707.1,209.7 M734.7,217v-34.7c-8.8,11.8-17.3,23.1-26,34.7H734.7z M766.2,216.9
	c-8.7-11.6-17.1-22.9-25.9-34.6v34.6H766.2z M741.5,171.5h22.4c-1.4-13.6-2.8-27-4.2-40.4c-0.2,0-0.4,0-0.6-0.1
	C753.2,144.4,747.4,157.8,741.5,171.5 M733.6,171.6c-6-13.8-11.8-27.2-17.6-40.6c-0.2,0.1-0.4,0.1-0.6,0.2
	c-1.4,13.4-2.8,26.8-4.2,40.4H733.6z M718.5,53.1h-15.3c-0.3,2-0.3,2,2.2,2.5v4.6c-0.8,0.2-1.6,0.4-2.5,0.5
	c-0.1,0.2-0.2,0.4-0.2,0.6c0.9,0.4,1.7,0.8,2.7,1.3v4c-1,0.5-1.9,0.9-2.8,1.3c0.1,0.2,0.1,0.4,0.2,0.6c0.8,0.2,1.7,0.4,2.6,0.7v4.5
	c-1.6,0.3-3.5,0.3-2.6,2.9h-4c-1.2-1.3-2.1-2.3-2.9-3.2c-0.2,0.1-0.4,0.3-0.6,0.4v-4.5c0.9-0.3,1.7-0.5,2.5-0.7
	c0.1-0.2,0.1-0.4,0.2-0.6c-0.8-0.4-1.7-0.7-2.7-1.2v-4.2c0.8-0.3,1.7-0.6,2.6-0.9c0-0.2,0-0.5,0-0.7c-0.8-0.3-1.7-0.5-2.6-0.8v-3.9
	c1.2-1,2-1.7,2.8-2.4l-0.5-0.7h-10.2c-0.2,0.2-0.4,0.5-0.5,0.7c0.8,0.7,1.6,1.4,2.8,2.4v3.9c-0.8,0.2-1.6,0.4-2.4,0.7
	c-0.1,0.2-0.2,0.4-0.3,0.6c0.8,0.4,1.7,0.8,2.7,1.3v4.1c-1,0.4-1.8,0.7-2.7,1.1c0,0.2,0.1,0.5,0.1,0.7c0.8,0.2,1.6,0.5,2.5,0.8V73
	c-1.3,1.3-2.2,2.2-3.1,3.1c0.1,0.2,0.2,0.4,0.4,0.5h-3.6c-1.3-1.3-2.2-2.3-3.6-3.7v-3.6c0.8-0.2,1.7-0.5,3.3-0.9
	c-1.4-0.7-2.2-1.2-3.3-1.7v-4c0.8-0.4,1.7-0.8,2.6-1.2c-0.1-0.2-0.1-0.4-0.2-0.6c-0.7-0.2-1.5-0.3-2.4-0.5V56
	c0.9-0.7,1.8-1.4,2.7-2.1c-0.1-0.3-0.3-0.6-0.4-0.9h-9.3c1.6-3,3-5.5,4.4-7.9c2.5-4.5,5.1-8.9,7.6-13.5c0.7-1.4,1.6-1.8,3.2-1.8
	c7.9,0.1,15.7,0.1,23.6,0c1.5,0,3.1-0.3,4.5-0.8c5.1-1.9,10-4.1,15.1-6c2.5-1,5.1-1.7,3.8-5.5h5.4c-1.2,4,1.7,4.7,4.3,5.7
	c3.5,1.3,7,2.5,10.3,4.1c4.4,2.2,9,2.8,13.9,2.7c6.2-0.2,12.5-0.1,18.7,0c0.8,0,2,0.2,2.3,0.8c4.2,7.2,8.3,14.5,12.7,22.3
	c-2.6,0-4.7-0.1-6.8,0c-0.9,0.1-1.8,0.7-2.6,1c0.7,0.6,1.4,1.2,2.5,2.2v4c-0.8,0.2-1.6,0.4-2.4,0.6c-0.1,0.2-0.1,0.4-0.2,0.6
	c0.8,0.4,1.6,0.7,2.6,1.2v4.2c-0.9,0.3-1.7,0.7-2.6,1c0,0.2,0,0.5,0.1,0.7c0.8,0.3,1.6,0.5,2.5,0.8v4.6c-1.6,0.2-3.3,0.3-2.4,2.8
	h-4.8c-0.3-1.4-0.1-3.5-2.8-2.5v-4.8c0.8-0.2,1.6-0.4,2.4-0.7c0.1-0.2,0.2-0.4,0.2-0.6c-0.8-0.4-1.7-0.9-2.7-1.4v-4
	c0.9-0.4,1.8-0.7,2.7-1c0-0.2-0.1-0.5-0.1-0.7c-0.8-0.2-1.6-0.5-2.5-0.8v-4c1.1-0.9,1.9-1.6,2.8-2.3c-0.2-0.3-0.3-0.6-0.5-0.9
	c-2.9,0-5.7-0.1-8.6,0c-0.6,0-1.2,0.6-1.9,0.9c0.6,0.5,1.2,0.9,1.7,1.4c0.2,0.1,0.5,0.2,0.8,0.3v4.6c-0.9,0.2-1.7,0.5-2.5,0.7
	c0,0.2-0.1,0.4-0.1,0.6c0.8,0.3,1.7,0.7,2.7,1.1v4.1c-0.9,0.4-1.8,0.9-2.7,1.3c0.1,0.2,0.1,0.4,0.2,0.6c0.8,0.2,1.7,0.5,2.6,0.7v3.6
	c-1.4,1.4-2.3,2.4-3.7,3.8h-3.5c-0.2-0.7-0.3-1.5-0.6-2.4c-0.7-0.1-1.4-0.3-2.3-0.4v-4.3c0.8-0.5,1.7-0.9,2.5-1.4
	c-0.8-0.5-1.5-0.9-2.5-1.5v-4c0.8-0.3,1.7-0.5,2.7-0.8c0-0.2,0-0.5,0-0.7c-0.8-0.3-1.7-0.6-2.7-0.9v-4.6c0.5-0.1,1,0,1.3-0.3
	c0.5-0.3,0.8-0.9,1.2-1.3c-0.4-0.3-0.8-1-1.3-1c-4.7-0.1-9.4,0-14.4,0c5.8,54.8,11.5,109.4,17.3,164.2h10.6v5h-93.6
	c-0.1-1.5-0.2-3-0.3-4.9h10.7C707,162.4,712.7,107.9,718.5,53.1"/>
<rect x="476.9" y="221.3" class="st16" width="5.1" height="4.3"/>
<rect x="476.9" y="232.2" class="st16" width="5.1" height="6.6"/>
<path class="st16" d="M483.8,252.3h-4.3c-1.4,0-2.5-1.1-2.5-2.5v-4.3h5.1v1.8h1.8V252.3z"/>
<path class="st16" d="M501,252.3h-8.6v-5.1h8.6V252.3z M518.2,252.3h-8.6v-5.1h8.6V252.3z M535.3,252.3h-8.6v-5.1h8.6V252.3z
	 M552.5,252.3h-8.6v-5.1h8.6V252.3z M569.7,252.3h-8.6v-5.1h8.6V252.3z M586.8,252.3h-8.6v-5.1h8.6V252.3z M604,252.3h-8.6v-5.1h8.6
	V252.3z M621.2,252.3h-8.6v-5.1h8.6V252.3z M638.4,252.3h-8.6v-5.1h8.6V252.3z M655.5,252.3h-8.6v-5.1h8.6V252.3z M672.7,252.3h-8.6
	v-5.1h8.6V252.3z M689.9,252.3h-8.6v-5.1h8.6V252.3z M707,252.3h-8.6v-5.1h8.6V252.3z M724.2,252.3h-8.6v-5.1h8.6V252.3z"/>
<path class="st16" d="M737.1,252.3h-4.3v-5.1h1.8v-1.8h5.1v4.3C739.7,251.1,738.5,252.3,737.1,252.3"/>
<rect x="734.6" y="232.2" class="st16" width="5.1" height="6.6"/>
<rect x="734.6" y="221.3" class="st16" width="5.1" height="4.3"/>
<g>
	<g>
		<path class="st21" d="M65.2,315c-1.8-0.5-3.2-1.2-4-2c-0.8-0.8-1.3-1.7-1.3-2.9c0-1.3,0.5-2.4,1.5-3.2c1-0.8,2.4-1.3,4-1.3
			c1.1,0,2.1,0.2,3,0.7c0.9,0.4,1.6,1,2,1.8c0.5,0.8,0.7,1.6,0.7,2.5h-2.2c0-1-0.3-1.8-0.9-2.3s-1.5-0.9-2.7-0.9
			c-1.1,0-1.9,0.2-2.5,0.7c-0.6,0.5-0.9,1.1-0.9,2c0,0.7,0.3,1.2,0.8,1.7c0.6,0.5,1.5,0.9,2.9,1.3c1.4,0.4,2.4,0.8,3.2,1.3
			c0.8,0.5,1.3,1,1.7,1.6c0.4,0.6,0.6,1.3,0.6,2.2c0,1.3-0.5,2.4-1.5,3.2c-1,0.8-2.4,1.2-4.1,1.2c-1.1,0-2.2-0.2-3.1-0.6
			c-1-0.4-1.7-1-2.3-1.8c-0.5-0.7-0.8-1.6-0.8-2.5h2.2c0,1,0.4,1.8,1.1,2.3c0.7,0.6,1.7,0.9,2.9,0.9c1.1,0,2-0.2,2.6-0.7
			c0.6-0.5,0.9-1.1,0.9-1.9s-0.3-1.4-0.8-1.9C67.7,315.8,66.7,315.4,65.2,315z"/>
		<path class="st21" d="M74.3,316.1c0-1.2,0.2-2.3,0.7-3.2c0.5-1,1.1-1.7,2-2.2c0.8-0.5,1.8-0.8,2.9-0.8c1.7,0,3,0.6,4,1.7
			c1,1.1,1.5,2.7,1.5,4.6v0.1c0,1.2-0.2,2.2-0.7,3.2c-0.5,0.9-1.1,1.7-1.9,2.2c-0.8,0.5-1.8,0.8-2.9,0.8c-1.6,0-3-0.6-4-1.7
			c-1-1.1-1.5-2.7-1.5-4.5V316.1z M76.4,316.3c0,1.3,0.3,2.4,0.9,3.2s1.5,1.2,2.5,1.2c1.1,0,1.9-0.4,2.5-1.2c0.6-0.8,0.9-2,0.9-3.5
			c0-1.3-0.3-2.4-0.9-3.2s-1.5-1.2-2.5-1.2c-1,0-1.9,0.4-2.5,1.2C76.7,313.6,76.4,314.8,76.4,316.3z"/>
		<path class="st21" d="M91.4,322.3h-2.1V305h2.1V322.3z"/>
		<path class="st21" d="M103.3,322.3c-0.1-0.2-0.2-0.7-0.3-1.3c-1,1-2.1,1.5-3.5,1.5c-1.2,0-2.2-0.3-2.9-1c-0.8-0.7-1.2-1.5-1.2-2.6
			c0-1.3,0.5-2.2,1.4-2.9c1-0.7,2.3-1,4.1-1h2v-1c0-0.7-0.2-1.3-0.7-1.7c-0.4-0.4-1.1-0.6-1.9-0.6c-0.7,0-1.4,0.2-1.9,0.6
			c-0.5,0.4-0.8,0.8-0.8,1.4h-2.1c0-0.6,0.2-1.2,0.6-1.8s1-1,1.8-1.3s1.5-0.5,2.4-0.5c1.4,0,2.5,0.3,3.3,1c0.8,0.7,1.2,1.7,1.2,2.9
			v5.6c0,1.1,0.1,2,0.4,2.7v0.2H103.3z M99.9,320.7c0.7,0,1.3-0.2,1.9-0.5s1-0.8,1.3-1.3v-2.5h-1.6c-2.5,0-3.8,0.7-3.8,2.2
			c0,0.7,0.2,1.2,0.7,1.5C98.6,320.5,99.2,320.7,99.9,320.7z"/>
		<path class="st21" d="M115.4,312c-0.3-0.1-0.7-0.1-1-0.1c-1.4,0-2.3,0.6-2.8,1.7v8.6h-2.1v-12.2h2l0,1.4c0.7-1.1,1.6-1.6,2.9-1.6
			c0.4,0,0.7,0.1,0.9,0.2V312z"/>
	</g>
	<g>
		<path class="st21" d="M56.5,339.9v6.4h-2.2v-16.4h6c1.8,0,3.2,0.5,4.2,1.4c1,0.9,1.5,2.1,1.5,3.6c0,1.6-0.5,2.8-1.5,3.7
			c-1,0.9-2.4,1.3-4.3,1.3H56.5z M56.5,338.1h3.9c1.2,0,2-0.3,2.7-0.8c0.6-0.5,0.9-1.3,0.9-2.4c0-1-0.3-1.8-0.9-2.3
			c-0.6-0.6-1.5-0.9-2.5-0.9h-4V338.1z"/>
		<path class="st21" d="M69,340.1c0-1.2,0.2-2.3,0.7-3.2c0.5-1,1.1-1.7,2-2.2c0.8-0.5,1.8-0.8,2.9-0.8c1.7,0,3,0.6,4,1.7
			c1,1.1,1.5,2.7,1.5,4.6v0.1c0,1.2-0.2,2.2-0.7,3.2c-0.5,0.9-1.1,1.7-1.9,2.2c-0.8,0.5-1.8,0.8-2.9,0.8c-1.6,0-3-0.6-4-1.7
			c-1-1.1-1.5-2.7-1.5-4.5V340.1z M71.1,340.3c0,1.3,0.3,2.4,0.9,3.2s1.5,1.2,2.5,1.2c1.1,0,1.9-0.4,2.5-1.2c0.6-0.8,0.9-2,0.9-3.5
			c0-1.3-0.3-2.4-0.9-3.2s-1.5-1.2-2.5-1.2c-1,0-1.9,0.4-2.5,1.2C71.4,337.6,71.1,338.8,71.1,340.3z"/>
		<path class="st21" d="M94.5,343.4l2.3-9.3h2.1l-3.5,12.2h-1.7l-3-9.2l-2.9,9.2h-1.7l-3.5-12.2h2.1l2.4,9.1l2.8-9.1h1.7L94.5,343.4
			z"/>
		<path class="st21" d="M107.2,346.5c-1.6,0-3-0.5-4-1.6s-1.5-2.5-1.5-4.3v-0.4c0-1.2,0.2-2.3,0.7-3.2c0.5-0.9,1.1-1.7,1.9-2.2
			s1.7-0.8,2.7-0.8c1.6,0,2.8,0.5,3.7,1.6c0.9,1,1.3,2.5,1.3,4.5v0.9h-8.2c0,1.2,0.4,2.2,1,2.9c0.7,0.7,1.5,1.1,2.6,1.1
			c0.7,0,1.4-0.2,1.9-0.4c0.5-0.3,1-0.7,1.3-1.2l1.3,1C110.8,345.7,109.3,346.5,107.2,346.5z M107,335.6c-0.8,0-1.5,0.3-2.1,0.9
			c-0.6,0.6-0.9,1.5-1.1,2.6h6.1v-0.2c-0.1-1.1-0.3-1.9-0.9-2.5C108.5,335.9,107.8,335.6,107,335.6z"/>
		<path class="st21" d="M121.4,336c-0.3-0.1-0.7-0.1-1-0.1c-1.4,0-2.3,0.6-2.8,1.7v8.6h-2.1v-12.2h2l0,1.4c0.7-1.1,1.6-1.6,2.9-1.6
			c0.4,0,0.7,0.1,0.9,0.2V336z"/>
	</g>
</g>
<g>
	<g>
		<path class="st21" d="M710.4,315v6.4h-2.2V305h6c1.8,0,3.2,0.5,4.2,1.4s1.5,2.1,1.5,3.6c0,1.6-0.5,2.8-1.5,3.7s-2.4,1.3-4.3,1.3
			H710.4z M710.4,313.2h3.9c1.2,0,2-0.3,2.7-0.8c0.6-0.5,0.9-1.3,0.9-2.4c0-1-0.3-1.8-0.9-2.3s-1.5-0.9-2.5-0.9h-4V313.2z"/>
		<path class="st21" d="M722.9,315.2c0-1.2,0.2-2.3,0.7-3.2c0.5-1,1.1-1.7,2-2.2c0.8-0.5,1.8-0.8,2.9-0.8c1.7,0,3,0.6,4,1.7
			c1,1.1,1.5,2.7,1.5,4.6v0.1c0,1.2-0.2,2.2-0.7,3.2s-1.1,1.7-1.9,2.2c-0.8,0.5-1.8,0.8-2.9,0.8c-1.6,0-3-0.6-4-1.7
			c-1-1.1-1.5-2.7-1.5-4.5V315.2z M725,315.4c0,1.3,0.3,2.4,0.9,3.2s1.5,1.2,2.5,1.2c1.1,0,1.9-0.4,2.5-1.2s0.9-2,0.9-3.5
			c0-1.3-0.3-2.4-0.9-3.2s-1.5-1.2-2.5-1.2c-1,0-1.9,0.4-2.5,1.2C725.3,312.7,725,313.9,725,315.4z"/>
		<path class="st21" d="M748.5,318.5l2.3-9.3h2.1l-3.5,12.2h-1.7l-3-9.2l-2.9,9.2h-1.7l-3.5-12.2h2.1l2.4,9.1l2.8-9.1h1.7
			L748.5,318.5z"/>
		<path class="st21" d="M761.2,321.6c-1.6,0-3-0.5-4-1.6s-1.5-2.5-1.5-4.3v-0.4c0-1.2,0.2-2.3,0.7-3.2c0.5-0.9,1.1-1.7,1.9-2.2
			s1.7-0.8,2.7-0.8c1.6,0,2.8,0.5,3.7,1.6c0.9,1,1.3,2.5,1.3,4.5v0.9h-8.2c0,1.2,0.4,2.2,1,2.9s1.5,1.1,2.6,1.1
			c0.7,0,1.4-0.2,1.9-0.4c0.5-0.3,1-0.7,1.3-1.2l1.3,1C764.7,320.8,763.2,321.6,761.2,321.6z M760.9,310.7c-0.8,0-1.5,0.3-2.1,0.9
			s-0.9,1.5-1.1,2.6h6.1V314c-0.1-1.1-0.3-1.9-0.9-2.5S761.8,310.7,760.9,310.7z"/>
		<path class="st21" d="M775.3,311.1c-0.3-0.1-0.7-0.1-1-0.1c-1.4,0-2.3,0.6-2.8,1.7v8.6h-2.1v-12.2h2l0,1.4
			c0.7-1.1,1.6-1.6,2.9-1.6c0.4,0,0.7,0.1,0.9,0.2V311.1z"/>
	</g>
	<g>
		<path class="st21" d="M732.3,343.2c-0.6,0.8-1.3,1.4-2.3,1.8c-1,0.4-2.1,0.6-3.5,0.6c-1.3,0-2.5-0.3-3.5-0.9s-1.8-1.5-2.4-2.7
			c-0.6-1.2-0.9-2.5-0.9-4v-1.4c0-2.5,0.6-4.4,1.7-5.7c1.1-1.4,2.8-2,4.8-2c1.7,0,3.1,0.4,4.1,1.3s1.7,2.1,1.9,3.7h-2.2
			c-0.4-2.2-1.7-3.3-3.9-3.3c-1.4,0-2.5,0.5-3.3,1.5c-0.7,1-1.1,2.5-1.1,4.4v1.3c0,1.8,0.4,3.3,1.3,4.4c0.8,1.1,2,1.6,3.4,1.6
			c0.8,0,1.5-0.1,2.1-0.3c0.6-0.2,1.1-0.5,1.5-0.9V339h-3.8v-1.8h5.9V343.2z"/>
		<path class="st21" d="M742.6,335.1c-0.3-0.1-0.7-0.1-1-0.1c-1.4,0-2.3,0.6-2.8,1.7v8.6h-2.1v-12.2h2l0,1.4
			c0.7-1.1,1.6-1.6,2.9-1.6c0.4,0,0.7,0.1,0.9,0.2V335.1z"/>
		<path class="st21" d="M745.6,330c0-0.3,0.1-0.6,0.3-0.9c0.2-0.2,0.5-0.3,0.9-0.3s0.7,0.1,0.9,0.3c0.2,0.2,0.3,0.5,0.3,0.9
			c0,0.3-0.1,0.6-0.3,0.8s-0.5,0.3-0.9,0.3s-0.7-0.1-0.9-0.3S745.6,330.3,745.6,330z M747.9,345.3h-2.1v-12.2h2.1V345.3z"/>
		<path class="st21" d="M751.8,339.2c0-1.9,0.4-3.4,1.3-4.5c0.9-1.1,2-1.7,3.5-1.7c1.4,0,2.5,0.5,3.4,1.5v-6.3h2.1v17.2h-1.9
			l-0.1-1.3c-0.8,1-2,1.5-3.5,1.5c-1.4,0-2.6-0.6-3.4-1.7c-0.9-1.2-1.3-2.7-1.3-4.5V339.2z M753.9,339.4c0,1.4,0.3,2.5,0.9,3.2
			c0.6,0.8,1.4,1.2,2.4,1.2c1.3,0,2.3-0.6,2.9-1.8v-5.6c-0.6-1.1-1.6-1.7-2.9-1.7c-1,0-1.8,0.4-2.4,1.2S753.9,337.9,753.9,339.4z"/>
	</g>
</g>
<g>
	<g>
		<path class="st21" d="M261.2,319.4c-0.6,0.8-1.3,1.4-2.3,1.8c-1,0.4-2.1,0.6-3.5,0.6c-1.3,0-2.5-0.3-3.5-0.9s-1.8-1.5-2.4-2.7
			c-0.6-1.2-0.9-2.5-0.9-4v-1.4c0-2.5,0.6-4.4,1.7-5.7c1.1-1.4,2.8-2,4.8-2c1.7,0,3.1,0.4,4.1,1.3c1,0.9,1.7,2.1,1.9,3.7H259
			c-0.4-2.2-1.7-3.3-3.9-3.3c-1.4,0-2.5,0.5-3.3,1.5c-0.7,1-1.1,2.5-1.1,4.4v1.3c0,1.8,0.4,3.3,1.3,4.4c0.8,1.1,2,1.6,3.4,1.6
			c0.8,0,1.5-0.1,2.1-0.3c0.6-0.2,1.1-0.5,1.5-0.9v-3.7h-3.8v-1.8h5.9V319.4z"/>
		<path class="st21" d="M273.1,321.6c-0.1-0.2-0.2-0.7-0.3-1.3c-1,1-2.1,1.5-3.5,1.5c-1.2,0-2.2-0.3-2.9-1s-1.2-1.5-1.2-2.6
			c0-1.3,0.5-2.2,1.4-2.9s2.3-1,4.1-1h2v-1c0-0.7-0.2-1.3-0.7-1.7c-0.4-0.4-1.1-0.6-1.9-0.6c-0.7,0-1.4,0.2-1.9,0.6
			c-0.5,0.4-0.8,0.8-0.8,1.4h-2.1c0-0.6,0.2-1.2,0.6-1.8c0.4-0.6,1-1,1.8-1.3c0.7-0.3,1.5-0.5,2.4-0.5c1.4,0,2.5,0.3,3.3,1
			c0.8,0.7,1.2,1.7,1.2,2.9v5.6c0,1.1,0.1,2,0.4,2.7v0.2H273.1z M269.6,320c0.7,0,1.3-0.2,1.9-0.5s1-0.8,1.3-1.3v-2.5h-1.6
			c-2.5,0-3.8,0.7-3.8,2.2c0,0.7,0.2,1.2,0.7,1.5C268.4,319.8,268.9,320,269.6,320z"/>
		<path class="st21" d="M286.3,318.4c0-0.6-0.2-1-0.6-1.3c-0.4-0.3-1.2-0.6-2.2-0.8s-1.9-0.5-2.5-0.8c-0.6-0.3-1.1-0.7-1.4-1.1
			c-0.3-0.4-0.4-1-0.4-1.6c0-1,0.4-1.8,1.3-2.5c0.8-0.7,1.9-1,3.2-1c1.4,0,2.5,0.4,3.4,1.1c0.9,0.7,1.3,1.6,1.3,2.7h-2.1
			c0-0.6-0.2-1.1-0.7-1.5c-0.5-0.4-1.1-0.6-1.8-0.6c-0.8,0-1.3,0.2-1.8,0.5s-0.6,0.8-0.6,1.3c0,0.5,0.2,0.9,0.6,1.1
			c0.4,0.3,1.1,0.5,2.2,0.7c1,0.2,1.9,0.5,2.5,0.8c0.6,0.3,1.1,0.7,1.4,1.2c0.3,0.5,0.5,1,0.5,1.7c0,1.1-0.4,2-1.3,2.6
			c-0.9,0.7-2,1-3.4,1c-1,0-1.8-0.2-2.6-0.5c-0.7-0.3-1.3-0.8-1.8-1.4c-0.4-0.6-0.6-1.3-0.6-2h2.1c0,0.7,0.3,1.2,0.8,1.7
			s1.2,0.6,2.1,0.6c0.8,0,1.4-0.2,1.9-0.5S286.3,318.9,286.3,318.4z"/>
	</g>
	<g>
		<path class="st21" d="M237.8,339.2v6.4h-2.2v-16.4h6c1.8,0,3.2,0.5,4.2,1.4c1,0.9,1.5,2.1,1.5,3.6c0,1.6-0.5,2.8-1.5,3.7
			s-2.4,1.3-4.3,1.3H237.8z M237.8,337.4h3.9c1.2,0,2-0.3,2.7-0.8c0.6-0.5,0.9-1.3,0.9-2.4c0-1-0.3-1.8-0.9-2.3
			c-0.6-0.6-1.5-0.9-2.5-0.9h-4V337.4z"/>
		<path class="st21" d="M250.2,339.4c0-1.2,0.2-2.3,0.7-3.2c0.5-1,1.1-1.7,2-2.2c0.8-0.5,1.8-0.8,2.9-0.8c1.7,0,3,0.6,4,1.7
			c1,1.1,1.5,2.7,1.5,4.6v0.1c0,1.2-0.2,2.2-0.7,3.2c-0.5,0.9-1.1,1.7-1.9,2.2c-0.8,0.5-1.8,0.8-2.9,0.8c-1.6,0-3-0.6-4-1.7
			c-1-1.1-1.5-2.7-1.5-4.5V339.4z M252.3,339.6c0,1.3,0.3,2.4,0.9,3.2s1.5,1.2,2.5,1.2c1.1,0,1.9-0.4,2.5-1.2c0.6-0.8,0.9-2,0.9-3.5
			c0-1.3-0.3-2.4-0.9-3.2s-1.5-1.2-2.5-1.2c-1,0-1.9,0.4-2.5,1.2C252.6,337,252.3,338.1,252.3,339.6z"/>
		<path class="st21" d="M275.8,342.7l2.3-9.3h2.1l-3.5,12.2H275l-3-9.2l-2.9,9.2h-1.7l-3.5-12.2h2.1l2.4,9.1l2.8-9.1h1.7
			L275.8,342.7z"/>
		<path class="st21" d="M288.5,345.8c-1.6,0-3-0.5-4-1.6s-1.5-2.5-1.5-4.3v-0.4c0-1.2,0.2-2.3,0.7-3.2c0.5-0.9,1.1-1.7,1.9-2.2
			s1.7-0.8,2.7-0.8c1.6,0,2.8,0.5,3.7,1.6c0.9,1,1.3,2.5,1.3,4.5v0.9H285c0,1.2,0.4,2.2,1,2.9c0.7,0.7,1.5,1.1,2.6,1.1
			c0.7,0,1.4-0.2,1.9-0.4c0.5-0.3,1-0.7,1.3-1.2l1.3,1C292,345,290.5,345.8,288.5,345.8z M288.2,334.9c-0.8,0-1.5,0.3-2.1,0.9
			c-0.6,0.6-0.9,1.5-1.1,2.6h6.1v-0.2c-0.1-1.1-0.3-1.9-0.9-2.5C289.8,335.2,289.1,334.9,288.2,334.9z"/>
		<path class="st21" d="M302.6,335.3c-0.3-0.1-0.7-0.1-1-0.1c-1.4,0-2.3,0.6-2.8,1.7v8.6h-2.1v-12.2h2l0,1.4
			c0.7-1.1,1.6-1.6,2.9-1.6c0.4,0,0.7,0.1,0.9,0.2V335.3z"/>
	</g>
</g>
<g>
	<path class="st21" d="M451.1,321.4H449v-7.6h-8.2v7.6h-2.2V305h2.2v7h8.2v-7h2.2V321.4z"/>
	<path class="st21" d="M455.2,315.2c0-1.2,0.2-2.3,0.7-3.2c0.5-1,1.1-1.7,2-2.2c0.8-0.5,1.8-0.8,2.9-0.8c1.7,0,3,0.6,4,1.7
		c1,1.1,1.5,2.7,1.5,4.6v0.1c0,1.2-0.2,2.2-0.7,3.2s-1.1,1.7-1.9,2.2c-0.8,0.5-1.8,0.8-2.9,0.8c-1.6,0-3-0.6-4-1.7
		c-1-1.1-1.5-2.7-1.5-4.5V315.2z M457.3,315.4c0,1.3,0.3,2.4,0.9,3.2s1.5,1.2,2.5,1.2c1.1,0,1.9-0.4,2.5-1.2s0.9-2,0.9-3.5
		c0-1.3-0.3-2.4-0.9-3.2s-1.5-1.2-2.5-1.2c-1,0-1.9,0.4-2.5,1.2C457.6,312.7,457.3,313.9,457.3,315.4z"/>
	<path class="st21" d="M472,309.2l0.1,1.3c0.9-1,2.1-1.6,3.6-1.6c1.7,0,2.9,0.7,3.5,2c0.4-0.6,0.9-1.1,1.6-1.4s1.4-0.5,2.3-0.5
		c2.7,0,4,1.4,4.1,4.2v8.1H485v-8c0-0.9-0.2-1.5-0.6-1.9s-1.1-0.6-2-0.6c-0.8,0-1.4,0.2-1.9,0.7c-0.5,0.5-0.8,1.1-0.9,1.9v8.1h-2.1
		v-8c0-1.8-0.9-2.7-2.6-2.7c-1.4,0-2.3,0.6-2.8,1.7v8.9H470v-12.2H472z"/>
	<path class="st21" d="M496.4,321.6c-1.6,0-3-0.5-4-1.6s-1.5-2.5-1.5-4.3v-0.4c0-1.2,0.2-2.3,0.7-3.2c0.5-0.9,1.1-1.7,1.9-2.2
		s1.7-0.8,2.7-0.8c1.6,0,2.8,0.5,3.7,1.6c0.9,1,1.3,2.5,1.3,4.5v0.9h-8.2c0,1.2,0.4,2.2,1,2.9s1.5,1.1,2.6,1.1
		c0.7,0,1.4-0.2,1.9-0.4c0.5-0.3,1-0.7,1.3-1.2l1.3,1C499.9,320.8,498.4,321.6,496.4,321.6z M496.1,310.7c-0.8,0-1.5,0.3-2.1,0.9
		s-0.9,1.5-1.1,2.6h6.1V314c-0.1-1.1-0.3-1.9-0.9-2.5S497,310.7,496.1,310.7z"/>
</g>
<path class="st33" d="M274.9,196.6c0.1-0.2,0.2-0.5,0.4-0.7c7.1-6.8,8.7-14.9,5.7-24c-1.9-5.7-5.6-10.1-10.3-14.2
	c0.8,7.5-0.9,14.3-4.6,20.9c-0.8-3.6-2-6.7-4.6-9c-0.2,0.1-0.3,0.2-0.3,0.3c-1.3,3.2-2.5,6.4-3.9,9.5c-2.5,5.7-2.1,10.9,2.5,15.4
	c0.3,0.3,0.5,0.6,1,1.2c-0.6-0.2-0.9-0.3-1.2-0.4c-7.5-3.3-13-9.4-12.1-19.3c0.3-3.8,1.5-7.3,3.3-10.6c2.3-4.2,4.8-8.3,7.1-12.5
	c2.8-5.1,5.1-10.4,6.4-16.3c0.3,0.2,0.6,0.3,0.8,0.5c6.3,6.1,12.7,12.1,17.6,19.4c4.5,6.7,7.1,13.9,6.9,22.1
	c-0.2,7.8-5.6,15.7-13.8,17.5c-0.2,0-0.3,0.2-0.5,0.2H274.9z"/>
<path class="st16" d="M280.6,238.8h-24.1c-0.1,0-0.1,0-0.2-0.1c-2.8-0.2-4.9-2.4-4.9-5.2v-10.9v-0.4H251c-5.6,0-11.1,0-16.7,0
	c-0.6,0-1.2,0-1.7-0.2c-5.4-1-9.2-5.6-9.2-11.1c0-36.5,0-72.9,0-109.4c0-0.6,0-1.3,0.2-1.9c0.9-5.4,5.6-9.3,11.1-9.3
	c5.5,0,11,0,16.5,0h0.4V90c0-3.6,0-7.2,0-10.7c0-2.3,1.5-4.3,3.7-4.9c0.4-0.1,0.8-0.2,1.1-0.2h24.5c0.2,0,0.3,0.1,0.5,0.1
	c2.6,0.5,4.4,2.6,4.4,5.2c0,3.5,0,7.1,0,10.6v0.4h0.4c5.1,0,10.3,0,15.4,0c0.7,0,1.4,0.1,2.1,0.2c4.3,0.7,8,4.2,8.9,8.4
	c0.1,0.6,0.2,1.2,0.3,1.8v111.1c0,0.3-0.1,0.6-0.1,0.9c-0.8,4.3-3.3,7.3-7.4,8.8c-0.2,0.1-0.3,0.2-0.3,0.5c0,1.6,0,3.2,0,4.7
	c0,3-2.3,5.2-5.3,5.2c-2.3,0-4.6,0-6.9,0c-2.9,0-5.2-2.3-5.2-5.2c0-1.4,0-2.8,0-4.2v-0.4h-1.9v0.4c0,3.6,0,7.2,0,10.9
	c0,2.6-1.8,4.7-4.4,5.2C281.1,238.8,280.9,238.8,280.6,238.8 M308.7,156.4v-54.8c0-3.9-3.1-7-7-7c-22.4,0-44.8,0-67.2,0
	c-1.2,0-2.4,0.3-3.4,0.9c-2.4,1.4-3.6,3.5-3.6,6.3c0,36.2,0,72.5,0,108.7c0,0.3,0,0.6,0,0.9c0.2,3.7,3.3,6.7,7,6.7h67.3
	c3.8,0,7-3.2,7-7V156.4z M255.6,222.3v0.4c0,3.6,0,7.1,0,10.7c0,0.9,0.4,1.3,1.3,1.3c7.8,0,15.6,0,23.4,0c0.9,0,1.3-0.4,1.3-1.3
	c0-3.6,0-7.1,0-10.7v-0.4H255.6z M281.6,90.4c0-0.1,0-0.2,0-0.3c0-3.6,0-7.1,0-10.7c0-0.8-0.4-1.2-1.2-1.2h-23.6
	c-0.8,0-1.2,0.4-1.2,1.2c0,3.5,0,7,0,10.6v0.4H281.6z M300.9,222.3h-9c0,0.1,0,0.2,0,0.3c0,1.4,0,2.8,0,4.1c0,0.8,0.4,1.2,1.2,1.2
	c2.2,0,4.4,0,6.7,0c0.8,0,1.2-0.4,1.2-1.2c0-1.4,0-2.7,0-4.1V222.3z"/>
<path class="st16" d="M268.6,108H290c2.8,0,5,2.1,5.2,4.9c0.2,2.7-1.7,5-4.4,5.4c-0.3,0-0.6,0.1-0.9,0.1c-14.2,0-28.3,0-42.5,0
	c-2.7,0-4.7-1.7-5.3-4.3c-0.6-2.8,1.5-5.7,4.3-6.1c0.3,0,0.6-0.1,0.9-0.1C254.4,108,261.5,108,268.6,108 M268.6,112.2h-21.2
	c-0.1,0-0.2,0-0.3,0c-0.5,0-0.9,0.5-1,1c0,0.7,0.5,1.1,1.2,1.1c14.1,0,28.2,0,42.4,0c0.1,0,0.2,0,0.3,0c0.4-0.1,0.8-0.4,0.9-0.8
	c0.1-0.4,0-0.8-0.4-1c-0.2-0.1-0.5-0.2-0.8-0.2C282.8,112.2,275.7,112.2,268.6,112.2"/>
<path class="st16" d="M268.9,233.2c-2.6,0-4.7-2.1-4.8-4.6c-0.1-2.5,1.9-4.9,4.7-4.9c2.6,0,4.8,2.1,4.8,4.7
	C273.6,231,271.5,233.2,268.9,233.2 M268.9,229.8c0.8,0,1.4-0.6,1.4-1.4c0-0.7-0.6-1.4-1.4-1.4c-0.8,0-1.4,0.6-1.4,1.4
	C267.5,229.2,268.1,229.8,268.9,229.8"/>
<path class="st16" d="M273.6,84.3c0,2.6-2.2,4.8-4.8,4.8c-2.7,0-4.7-2.1-4.7-4.9c0-2.6,2.2-4.7,4.9-4.7
	C271.5,79.6,273.6,81.7,273.6,84.3 M268.9,85.7c0.8,0,1.4-0.6,1.4-1.4c0-0.8-0.6-1.4-1.4-1.4c-0.8,0-1.4,0.6-1.4,1.4
	C267.5,85.1,268.1,85.7,268.9,85.7"/>
<path class="st33" d="M89.9,119.7c0-5.9-5.1-11.8-10.6-11.7c-7.9,0.1-12.3,5.5-12.4,11.6c-0.1,6.3,5.1,11.5,11.4,11.5
	C84.7,131.1,89.9,126,89.9,119.7 M78.4,104.1C87,104,94,111,94,119.6c0,8.6-7,15.6-15.7,15.6c-8.4,0-15.4-7-15.4-15.6
	C62.9,111,69.8,104.1,78.4,104.1"/>
<path class="st35" d="M89.9,119.7c0-5.9-5.1-11.8-10.6-11.7c-7.9,0.1-12.3,5.5-12.4,11.6c-0.1,6.3,5.1,11.5,11.4,11.5
	C84.7,131.1,89.9,126,89.9,119.7z M78.4,104.1C87,104,94,111,94,119.6c0,8.6-7,15.6-15.7,15.6c-8.4,0-15.4-7-15.4-15.6
	C62.9,111,69.8,104.1,78.4,104.1z"/>
<path class="st33" d="M80.5,142.7c0,0.8,0,1.6,0,2.4c-0.1,1.3-0.9,2.1-2,2.1c-1.2,0-2-0.9-2.1-2.2c0-1.6,0-3.2,0-4.8
	c0-1.3,0.8-2.1,2-2.1c1.2,0,2,0.8,2.1,2.2C80.5,141.2,80.5,141.9,80.5,142.7L80.5,142.7z"/>
<path class="st35" d="M80.5,142.7c0,0.8,0,1.6,0,2.4c-0.1,1.3-0.9,2.1-2,2.1c-1.2,0-2-0.9-2.1-2.2c0-1.6,0-3.2,0-4.8
	c0-1.3,0.8-2.1,2-2.1c1.2,0,2,0.8,2.1,2.2C80.5,141.2,80.5,141.9,80.5,142.7L80.5,142.7z"/>
<path class="st33" d="M76.4,96.3c0-0.8,0-1.6,0-2.4c0.1-1.1,0.8-1.9,1.9-2c1.1-0.1,2.1,0.6,2.1,1.8c0.1,1.8,0.1,3.6,0,5.3
	c-0.1,1.2-1,1.9-2.1,1.9c-1,0-1.9-0.9-1.9-2.1C76.4,98.1,76.4,97.2,76.4,96.3"/>
<path class="st35" d="M76.4,96.3c0-0.8,0-1.6,0-2.4c0.1-1.1,0.8-1.9,1.9-2c1.1-0.1,2.1,0.6,2.1,1.8c0.1,1.8,0.1,3.6,0,5.3
	c-0.1,1.2-1,1.9-2.1,1.9c-1,0-1.9-0.9-1.9-2.1C76.4,98.1,76.4,97.2,76.4,96.3z"/>
<path class="st33" d="M66.1,105.2c-0.4,0.5-0.7,1.3-1.3,1.5c-0.6,0.2-1.6,0.2-2.1-0.2c-1.4-1.2-2.7-2.5-4-3.9
	c-0.7-0.8-0.5-1.9,0.2-2.6c0.7-0.7,1.9-0.8,2.6-0.2c1.3,1.2,2.6,2.5,3.9,3.8C65.7,104,65.8,104.5,66.1,105.2"/>
<path class="st35" d="M66.1,105.2c-0.4,0.5-0.7,1.3-1.3,1.5c-0.6,0.2-1.6,0.2-2.1-0.2c-1.4-1.2-2.7-2.5-4-3.9
	c-0.7-0.8-0.5-1.9,0.2-2.6c0.7-0.7,1.9-0.8,2.6-0.2c1.3,1.2,2.6,2.5,3.9,3.8C65.7,104,65.8,104.5,66.1,105.2z"/>
<path class="st33" d="M98.8,137.9c-0.4,0.5-0.8,1.3-1.3,1.5c-0.6,0.2-1.6,0.2-2.1-0.2c-1.4-1.1-2.7-2.5-3.9-3.8
	c-0.8-0.8-0.6-2,0.2-2.7c0.8-0.7,1.9-0.8,2.7,0c1.3,1.2,2.5,2.4,3.7,3.7C98.4,136.7,98.5,137.3,98.8,137.9"/>
<path class="st35" d="M98.8,137.9c-0.4,0.5-0.8,1.3-1.3,1.5c-0.6,0.2-1.6,0.2-2.1-0.2c-1.4-1.1-2.7-2.5-3.9-3.8
	c-0.8-0.8-0.6-2,0.2-2.7c0.8-0.7,1.9-0.8,2.7,0c1.3,1.2,2.5,2.4,3.7,3.7C98.4,136.7,98.5,137.3,98.8,137.9z"/>
<path class="st33" d="M98.8,101.3c-0.4,0.7-0.6,1.2-1,1.6c-1.1,1.2-2.2,2.3-3.4,3.4c-1,0.9-2.2,0.9-3,0.1c-0.8-0.8-0.8-2,0.1-2.9
	c1.1-1.2,2.3-2.4,3.5-3.5c0.7-0.6,1.5-0.8,2.2-0.3C98,100.1,98.4,100.7,98.8,101.3"/>
<path class="st35" d="M98.8,101.3c-0.4,0.7-0.6,1.2-1,1.6c-1.1,1.2-2.2,2.3-3.4,3.4c-1,0.9-2.2,0.9-3,0.1c-0.8-0.8-0.8-2,0.1-2.9
	c1.1-1.2,2.3-2.4,3.5-3.5c0.7-0.6,1.5-0.8,2.2-0.3C98,100.1,98.4,100.7,98.8,101.3z"/>
<path class="st33" d="M101.6,121.6c-0.9,0-1.7,0-2.6,0c-1.2-0.1-2-0.9-2-2c0-1.1,0.8-2,2-2c1.7,0,3.4,0,5.1,0c1.2,0,2,0.9,2,2
	c0,1.1-0.8,1.9-2,2C103.3,121.6,102.4,121.6,101.6,121.6L101.6,121.6z"/>
<path class="st35" d="M101.6,121.6c-0.9,0-1.7,0-2.6,0c-1.2-0.1-2-0.9-2-2c0-1.1,0.8-2,2-2c1.7,0,3.4,0,5.1,0c1.2,0,2,0.9,2,2
	c0,1.1-0.8,1.9-2,2C103.3,121.6,102.4,121.6,101.6,121.6L101.6,121.6z"/>
<path class="st33" d="M55.3,121.6c-0.9,0-1.8,0-2.7,0c-1.2-0.1-1.9-0.9-1.9-2c0-1.1,0.8-1.9,1.9-1.9c1.7,0,3.5,0,5.2,0
	c1.1,0,1.9,0.9,1.9,1.9c0,1.1-0.8,2-1.9,2C57,121.6,56.2,121.6,55.3,121.6"/>
<path class="st35" d="M55.3,121.6c-0.9,0-1.8,0-2.7,0c-1.2-0.1-1.9-0.9-1.9-2c0-1.1,0.8-1.9,1.9-1.9c1.7,0,3.5,0,5.2,0
	c1.1,0,1.9,0.9,1.9,1.9c0,1.1-0.8,2-1.9,2C57,121.6,56.2,121.6,55.3,121.6z"/>
<path class="st33" d="M64,132c0.5,0.4,1.3,0.7,1.5,1.2c0.2,0.6,0.2,1.6-0.1,2.1c-1.2,1.4-2.5,2.7-3.9,4c-0.7,0.7-2.2,0.6-2.5-0.1
	c-0.3-0.9-0.5-2.2,0-2.9c1-1.4,2.4-2.6,3.7-3.8C63,132.3,63.4,132.3,64,132"/>
<path class="st35" d="M64,132c0.5,0.4,1.3,0.7,1.5,1.2c0.2,0.6,0.2,1.6-0.1,2.1c-1.2,1.4-2.5,2.7-3.9,4c-0.7,0.7-2.2,0.6-2.5-0.1
	c-0.3-0.9-0.5-2.2,0-2.9c1-1.4,2.4-2.6,3.7-3.8C63,132.3,63.4,132.3,64,132z"/>
<path class="st16" d="M132.2,196.5c-10.8,0-21.5,0-32.3,0c-0.1,0-0.1,0-0.4-0.1c-0.6-4.1-1.2-8.2-1.8-12.4H99c9.3,0,18.6,0,27.9,0
	c0.9,0,1.3,0.3,1.6,1.1c1.4,3.4,2.9,6.8,4.4,10.2C133.3,196.1,133.3,196.5,132.2,196.5 M24.1,194.9c1.4-3.3,2.9-6.7,4.3-10
	c0.2-0.6,0.5-0.9,1.2-0.8c9.6,0,19.2,0,28.8,0c0.2,0,0.4,0.1,0.7,0.1c-0.6,4.1-1.2,8.2-1.8,12.4H56c-10.3,0-20.5,0-30.8,0
	C23.5,196.5,23.4,196.5,24.1,194.9 M31.3,178.4c1.1-2.6,2.2-5.1,3.3-7.6c0.1-0.3,0.6-0.7,1-0.7c0.7,0,1.4,0,2.1,0v0.1H61
	c0,0,0.1,0,0.1,0c-0.5,3.3-1,6.5-1.4,9.8h-29C30.9,179.4,31.1,178.9,31.3,178.4 M39.7,158.9c0.8-2.7,2.3-3.4,5-3.3
	c5.7,0.2,11.4,0.1,17.1,0.1h1.4c-0.5,3.5-1,6.8-1.5,10.2h-25C37.8,163.5,39,161.3,39.7,158.9 M67.3,155.8c0.4,0,0.6-0.1,0.9-0.1
	c6.7,0,13.5,0,20.2,0c0.8,0,1.1,0.2,1.3,1c0.4,3,0.9,6,1.3,9.2H65.8C66.3,162.5,66.8,159.1,67.3,155.8 M95.1,155.7
	c6.5,0,12.9,0,19.4,0c1,0,1.5,0.3,1.8,1.2c1.1,2.6,2.2,5.2,3.3,7.8c0.2,0.4,0.3,0.8,0.5,1.3h-25c-0.5-3.4-1-6.7-1.5-10.2H95.1z
	 M62.2,190.8c0.3-2,0.6-3.9,0.9-5.8c0.1-0.7,0.3-0.9,1-0.9c9.6,0,19.2,0,28.8,0c0.3,0,0.8,0.4,0.9,0.6c0.6,3.9,1.1,7.8,1.7,11.8h-34
	C61.7,194.5,61.9,192.7,62.2,190.8 M91.6,170.1c0.5,3.3,1,6.5,1.4,9.8H63.8c0.5-3.3,0.9-6.5,1.4-9.8H91.6z M126.2,179.9
	c-0.4,0.1-0.7,0.1-1,0.1c-9,0-18,0-27.1,0c-0.8,0-1.1-0.3-1.2-1.1c-0.4-2.9-0.8-5.8-1.3-8.8h25.9c0.4,0.1,0.6,0.4,0.9,1
	C123.6,174,124.9,176.9,126.2,179.9 M98.7,216c0.1-1.7,1.2-2.7,2.8-2.8c1.5,0,3,0,4.7,0c0,2.7,0,5.2,0,7.7c0,0.2-0.4,0.6-0.7,0.6
	c-1.4,0.1-2.8,0.1-4.2,0c-1.5-0.1-2.5-1.2-2.6-2.8C98.7,217.9,98.7,217,98.7,216 M136.7,193.7c-5.7-13-11.3-26-17-39
	c-0.9-2-2.4-3-4.6-3c-24.3,0-48.6,0-72.8,0c-2.6,0-4.3,1.1-5.3,3.5c-5.6,12.9-11.2,25.8-16.8,38.6c-1.6,3.6,0.5,6.8,4.4,6.8
	c4.3,0,8.7,0,13,0v0H46c0,0,0,0,0,0h31.6c0,0.7,0,1.4,0,2c0,2.4-0.9,3.3-3.3,3.3c-7.1,0-14.2,0-21.3,0c-3.1,0-6.1-0.1-9.2,0.1
	c-4.9,0.3-7.9,5.8-5.4,10.1c1.5,2.6,3.8,3.5,6.7,3.5c15.9,0,31.8,0,47.6,0h1.7c0.1,0.3,0.1,0.5,0.2,0.7c0.9,3.6,3.3,5.5,7.1,5.5
	c1.9,0,3.7,0,5.6,0c2.1,0,2.6-0.4,3-2.5c0.4,0,0.8,0,1.2,0c2.2,0,4.5,0,6.7,0c0.9,0,1.7-0.4,1.9-1.3c0.1-0.6,0-1.5-0.4-2
	c-0.4-0.4-1.2-0.7-1.8-0.7c-2.5-0.1-5.1,0-7.7,0v-3.3h1.3c2.2,0,4.3,0,6.5,0c1.3,0,2.2-0.9,2.2-2c0-1.2-0.9-2-2.2-2.1
	c-0.3,0-0.5,0-0.8,0c-2.4,0-4.7,0-7,0c-0.4-2.1-0.9-2.5-2.9-2.5c-1.3,0-2.6,0-3.8,0c-1.2,0-2.4-0.1-3.6,0.2c-3.2,0.7-4.8,2.8-5.5,6
	h-1.4c-16,0-32.1,0-48.1,0c-0.3,0-0.6,0-0.9,0c-1.5-0.2-2.5-1.3-2.5-2.8c0-1.6,1.3-2.7,3.2-2.7c10,0,19.9,0,29.9,0
	c4.1,0,6.8-2.8,6.9-6.8c0-0.8,0-1.5,0-2.4h1.5c9.4,0,18.9,0,28.3,0c0.5,0,1.1,0,1.6,0h9.3v0c3.2,0,6.5,0,9.7,0.1
	C135.7,200.7,138.3,197.4,136.7,193.7"/>
<polyline class="st42" points="78.4,225.6 78.4,281.2 466.8,281.2 466.8,221.3 "/>
<polyline class="st42" points="268.8,248.3 268.8,260.1 451.8,260.1 451.8,222.9 "/>
<path class="st6" d="M634.6,249.3c0,11.8-9.4,21.3-21.1,21.3s-21.1-9.6-21.1-21.3s9.4-21.3,21.1-21.3S634.6,237.5,634.6,249.3"/>
<path class="st1" d="M621.9,241.8c0,0.5-0.4,1-0.8,1.4c-1.1,1.1-2.3,2.2-3.4,3.3c-0.6,0.6-1.3,1.3-1.9,1.9c-0.2,0.2-0.2,0.2,0,0.4
	c1.7,1.6,3.3,3.2,5,4.8c0.4,0.3,0.7,0.7,1,1.2c0.3,0.6,0.2,1.2-0.2,1.6c-0.5,0.5-1,0.5-1.6,0.1c-0.9-0.6-1.5-1.4-2.2-2.2
	c-0.9-1-1.9-1.9-2.8-2.9c-0.2-0.3-0.5-0.4-0.7,0c-0.2,0.2-0.4,0.2-0.5,0c-0.3-0.4-0.5-0.2-0.7,0c-1.3,1.4-2.6,2.8-3.9,4.2
	c-0.4,0.4-0.7,0.8-1.2,1c-0.6,0.3-0.9,0.2-1.4-0.3c-0.5-0.6-0.6-1-0.3-1.6c0.4-0.6,0.9-1.1,1.4-1.6c1.5-1.4,2.9-2.9,4.4-4.3
	c0.3-0.3,0.2-0.4,0-0.6c-1.8-1.7-3.5-3.4-5.2-5.1c-0.2-0.2-0.4-0.4-0.5-0.6c-0.4-0.6-0.3-1.1,0.1-1.6c0.4-0.5,0.9-0.6,1.5-0.3
	c0.4,0.2,0.7,0.4,0.9,0.7c1.7,1.7,3.4,3.4,5.1,5.2c0.3,0.3,0.4,0.3,0.7,0c1.4-1.6,2.9-3.3,4.3-4.9c0.4-0.5,0.8-0.9,1.4-1.1
	C621,240.3,621.9,240.9,621.9,241.8"/>
</svg>
