<?xml version="1.0" encoding="utf-8"?>
<!-- Generator: Adobe Illustrator 26.0.3, SVG Export Plug-In . SVG Version: 6.00 Build 0)  -->
<svg version="1.1" id="Layer_1" xmlns="http://www.w3.org/2000/svg" xmlns:xlink="http://www.w3.org/1999/xlink" x="0px" y="0px"
	 viewBox="0 0 1366.7 97.9" style="enable-background:new 0 0 1366.7 97.9;" xml:space="preserve">
<style type="text/css">
	.st0{fill:none;stroke:#41A6DD;stroke-width:13;stroke-linecap:round;stroke-linejoin:round;stroke-miterlimit:10;}
	.st1{fill:#FFFFFF;}
	.st2{fill:none;stroke:#41A6DD;stroke-width:13;stroke-linecap:round;stroke-linejoin:round;}
	.st3{fill:none;stroke:#41A6DD;stroke-width:13;stroke-linecap:round;stroke-linejoin:round;stroke-dasharray:25.0494,25.0494;}
	.st4{fill:none;stroke:#41A6DD;stroke-width:13;stroke-linecap:round;stroke-linejoin:round;stroke-dasharray:29.7778,29.7778;}
	.st5{fill:none;stroke:#41A6DD;stroke-width:13;stroke-linecap:round;stroke-linejoin:round;stroke-dasharray:28.965,28.965;}
	.st6{fill:#F15A29;}
	.st7{fill:none;stroke:#F15A29;stroke-width:5;stroke-linecap:round;stroke-linejoin:round;stroke-miterlimit:10;}
	.st8{fill:#41A6DD;}
	.st9{fill:#44A7DE;}
	.st10{fill:#43A7DE;}
	.st11{fill:#41A6DD;stroke:#27AAE1;stroke-miterlimit:10;}
	.st12{fill:#41A6DD;stroke:#27AAE1;stroke-width:2;stroke-linecap:round;stroke-linejoin:round;stroke-miterlimit:10;}
	.st13{fill:#46A8DE;}
	.st14{fill:#47A8DE;}
	.st15{fill:#4AA9DF;}
	.st16{fill:#46A7DE;}
	.st17{clip-path:url(#SVGID_00000084519620590692190560000007998376149834854302_);fill:#46A7DE;}
	.st18{fill:none;}
	.st19{fill:none;stroke:#545554;stroke-width:2;stroke-linecap:round;}
	.st20{fill:none;stroke:#545554;stroke-linecap:round;}
	.st21{fill:#414042;}
	.st22{fill:#41A6DD;stroke:#41A6DD;stroke-width:3;stroke-miterlimit:10;}
	.st23{fill:#41A6DD;stroke:#41A6DD;stroke-width:4;stroke-miterlimit:10;}
	.st24{fill:#E81F25;}
	.st25{fill:#F6A01E;}
	.st26{fill:#F16122;}
	.st27{fill:#F7F6F6;}
	.st28{fill:#41A6DD;stroke:#41A6DD;stroke-width:2;stroke-linecap:round;stroke-linejoin:round;stroke-miterlimit:10;}
	.st29{fill:#41A6DD;stroke:#41A6DD;stroke-linecap:round;stroke-linejoin:round;stroke-miterlimit:10;}
	.st30{fill:none;stroke:#47A8DE;stroke-width:7;stroke-linejoin:round;stroke-miterlimit:10;}
	.st31{fill:none;stroke:#F15A29;stroke-width:10;stroke-linecap:round;stroke-linejoin:round;stroke-miterlimit:10;}
	.st32{fill:none;stroke:#000000;stroke-width:10;stroke-linecap:round;stroke-linejoin:round;stroke-miterlimit:10;}
	.st33{fill:#EE5630;}
	.st34{fill:none;stroke:#F15A29;stroke-width:2;stroke-linecap:round;stroke-linejoin:round;stroke-miterlimit:10;}
	.st35{fill:none;stroke:#EE5630;stroke-miterlimit:10;}
	.st36{fill:#41A6DD;stroke:#41A6DD;stroke-width:11;stroke-linecap:round;stroke-linejoin:round;stroke-miterlimit:10;}
	.st37{fill:none;stroke:#41A6DD;stroke-width:11;stroke-linecap:round;stroke-linejoin:round;stroke-miterlimit:10;}
	.st38{fill:none;stroke:#41A6DD;stroke-width:9;stroke-linecap:round;stroke-linejoin:round;stroke-miterlimit:10;}
	.st39{fill:none;stroke:#41A6DD;stroke-width:5;stroke-linecap:round;stroke-linejoin:round;stroke-miterlimit:10;}
	.st40{fill:#FFFFFF;stroke:#41A6DD;stroke-width:13;stroke-linecap:round;stroke-linejoin:round;stroke-miterlimit:10;}
	.st41{fill:none;stroke:#EE5630;stroke-width:2;stroke-linecap:round;stroke-linejoin:round;stroke-miterlimit:10;}
	.st42{fill:none;stroke:#46A7DE;stroke-width:4;stroke-linecap:round;stroke-linejoin:round;stroke-miterlimit:10;}
	.st43{fill:#1E9B9E;}
</style>
<g id="j1LyNp.tif">
	
		<image style="overflow:visible;" width="300" height="51" id="Layer_0_00000181783741542380638690000011526783984584764835_" xlink:href="E201B91B6E4037ED.png"  transform="matrix(1.0636 0 0 1.0636 12.5906 20.4268)">
	</image>
</g>
<g>
	<path class="st1" d="M469.8,71c1.5-3.3,2.8-6.4,4.2-9.4c4.7-10.6,9.5-21.3,14.2-31.9c1.1-2.5,3-3.8,5.7-3.7c3.4,0,6.8,0,10.3,0
		c3.3,15,6.6,29.9,10,45.1c-1.9,0-3.6,0-5.4,0c-1.6,0-3.2,0-4.8,0c-0.8,0-1.3-0.2-1.4-1.1c-0.2-1.5-0.7-3-1-4.5
		c-0.1-0.8-0.5-1.1-1.3-1.1c-4.7,0-9.3,0-14,0.1c-0.4,0-1.1,0.5-1.3,1c-0.7,1.6-1.2,3.3-1.9,4.8c-0.2,0.4-0.7,0.9-1,0.9
		C478,71.1,474,71,469.8,71z M499.3,55.1c-1.2-5.7-2.4-11.1-3.6-16.6c-0.1,0-0.3,0-0.4,0c-2.1,5.5-4.3,11-6.4,16.6
		C492.4,55.1,495.7,55.1,499.3,55.1z"/>
	<path class="st1" d="M393,56.6c0.7-1.5,1.3-2.9,1.8-4.3c3.5-8.3,7-16.7,10.4-25c0.4-1,0.9-1.3,2-1.3c3.3,0.1,6.5,0,9.8,0
		c0.5,0,1,0,1.7,0c-1.4,3.1-2.6,6-3.9,8.8c-5.2,11.7-10.4,23.3-15.5,35c-0.4,0.9-0.9,1.3-1.9,1.2c-3.9-0.1-7.7,0-11.7,0
		c-0.9-3.2-1.8-6.4-2.7-9.5c-2.4-8.7-4.8-17.4-7.1-26.2c-0.6-2.4-1.9-4.2-4.3-4.9c-3.3-1-6.6-2-9.8-3c-0.3-0.1-0.7-0.2-1.2-0.7
		c0.4-0.2,0.8-0.7,1.1-0.7c7,0,14-0.1,21,0c2.3,0,4.3,1.8,4.9,4.2c1.2,5.5,2.3,11.1,3.4,16.6c0.6,3,1.2,6,1.8,9
		C392.7,56,392.8,56.2,393,56.6z"/>
	<path class="st1" d="M470.4,36.5c-3.7-1.5-7.4-2.3-11.2-2c-1.6,0.1-3.3,0.6-4.7,1.3c-2.2,1.2-2.3,3.5-0.3,5c1.4,1.1,3,1.9,4.6,2.8
		c1.9,1.1,3.9,2.1,5.8,3.2c8.4,5.3,6.4,15.3,0.9,19.9c-3.5,3-7.7,4.3-12.2,4.8c-5.6,0.7-11,0.1-16.4-1.4c-2-0.5-2-0.6-1.5-2.6
		c0.6-2.6,1.2-5.2,1.7-7.7c2.7,0.8,5.2,1.7,7.8,2.2c2.8,0.5,5.6,0.7,8.4-0.1c0.8-0.3,1.7-0.6,2.4-1.1c2-1.4,2.2-3.9,0.3-5.4
		c-1.7-1.3-3.8-2.3-5.7-3.4c-2.1-1.3-4.3-2.4-6.2-3.9c-5.8-4.6-4.8-11.6-1.5-15.8c3-3.8,7.1-5.7,11.7-6.6c5.7-1.2,11.3-0.7,16.9,0.9
		c0.9,0.3,1.3,0.6,1,1.7C471.6,31,471,33.6,470.4,36.5z"/>
	<path class="st1" d="M414.1,71c0.8-3.4,1.5-6.6,2.2-9.8c2.5-11.1,5.1-22.3,7.5-33.4c0.3-1.4,0.8-1.9,2.3-1.8c3,0.1,6,0,9.1,0
		c0.4,0,0.8,0,1.3,0.1c-1.4,6.1-2.7,12-4,18c-1.9,8.6-3.9,17.1-5.8,25.7c-0.2,1-0.5,1.3-1.6,1.3C421.5,71,417.9,71,414.1,71z"/>
</g>
<g>
	<path class="st1" d="M784.9,81.2c1.1-2.5,2.1-4.8,3.1-7.1c3.5-8,7.1-15.9,10.6-23.9c0.8-1.9,2.2-2.8,4.3-2.8c2.5,0,5.1,0,7.7,0
		c2.5,11.2,5,22.4,7.5,33.7c-1.4,0-2.7,0-4,0c-1.2,0-2.4,0-3.6,0c-0.6,0-0.9-0.1-1.1-0.8c-0.2-1.1-0.6-2.3-0.8-3.4
		c-0.1-0.6-0.4-0.8-1-0.8c-3.5,0-7,0-10.5,0c-0.3,0-0.8,0.4-0.9,0.7c-0.5,1.2-0.9,2.4-1.4,3.6c-0.1,0.3-0.5,0.6-0.8,0.6
		C791,81.2,788.1,81.2,784.9,81.2z M806.9,69.3c-0.9-4.2-1.8-8.3-2.7-12.4c-0.1,0-0.2,0-0.3,0c-1.6,4.1-3.2,8.2-4.8,12.4
		C801.8,69.3,804.3,69.3,806.9,69.3z"/>
	<path class="st1" d="M727.4,70.3c0.5-1.2,0.9-2.2,1.4-3.2c2.6-6.2,5.2-12.5,7.8-18.7c0.3-0.7,0.7-1,1.5-1c2.4,0.1,4.9,0,7.3,0
		c0.4,0,0.8,0,1.3,0c-1,2.3-2,4.5-2.9,6.6c-3.9,8.7-7.8,17.5-11.6,26.2c-0.3,0.7-0.6,0.9-1.4,0.9c-2.9,0-5.8,0-8.8,0
		c-0.7-2.4-1.3-4.8-2-7.1c-1.8-6.5-3.6-13-5.3-19.6c-0.5-1.8-1.4-3.1-3.2-3.7c-2.4-0.8-4.9-1.5-7.4-2.3c-0.3-0.1-0.5-0.2-0.9-0.5
		c0.3-0.2,0.6-0.5,0.9-0.5c5.2,0,10.5,0,15.7,0c1.7,0,3.2,1.3,3.6,3.2c0.9,4.1,1.7,8.3,2.5,12.4c0.4,2.2,0.9,4.5,1.3,6.7
		C727.2,70,727.3,70.1,727.4,70.3z"/>
	<path class="st1" d="M785.3,55.4c-2.8-1.1-5.5-1.8-8.4-1.5c-1.2,0.1-2.5,0.4-3.5,1c-1.6,0.9-1.7,2.6-0.2,3.7
		c1.1,0.8,2.3,1.4,3.4,2.1c1.4,0.8,2.9,1.5,4.3,2.4c6.3,4,4.8,11.4,0.7,14.9c-2.6,2.2-5.8,3.2-9.1,3.6c-4.2,0.5-8.2,0.1-12.2-1
		c-1.5-0.4-1.5-0.4-1.2-1.9c0.4-1.9,0.9-3.9,1.3-5.7c2,0.6,3.9,1.2,5.9,1.6c2.1,0.4,4.2,0.5,6.3-0.1c0.6-0.2,1.3-0.5,1.8-0.8
		c1.5-1,1.7-2.9,0.2-4c-1.3-1-2.8-1.7-4.3-2.5c-1.6-0.9-3.2-1.8-4.6-2.9c-4.4-3.4-3.6-8.6-1.1-11.8c2.2-2.9,5.3-4.2,8.7-4.9
		c4.3-0.9,8.5-0.5,12.7,0.7c0.7,0.2,0.9,0.5,0.7,1.3C786.2,51.2,785.8,53.2,785.3,55.4z"/>
	<path class="st1" d="M743.2,81.2c0.6-2.6,1.1-5,1.6-7.4c1.9-8.3,3.8-16.7,5.6-25c0.2-1.1,0.6-1.4,1.7-1.4c2.3,0.1,4.5,0,6.8,0
		c0.3,0,0.6,0,1,0.1c-1,4.5-2,9-3,13.5c-1.5,6.4-2.9,12.8-4.4,19.3c-0.2,0.7-0.4,1-1.2,1C748.8,81.2,746.1,81.2,743.2,81.2z"/>
	<path class="st1" d="M803.3,11.9c1.1,0,2,0,3.1,0c-0.6,3.3-1.3,6.6-2,10.1c0.3-0.2,0.5-0.2,0.6-0.4c2.5-2.4,5.2-2.9,8-2.2
		c2.8,0.7,3.9,2.9,4,5.7c0.1,2.3-0.5,4.6-1.9,6.7c-3.4,5.5-11.2,5.9-12.9,1.7c0-0.1-0.1-0.1-0.3-0.2c-0.3,0.9-0.5,1.7-0.8,2.6
		c-0.8,0-1.7,0-2.4,0C800.2,27.9,801.8,20,803.3,11.9z M803.2,27.9C803.2,27.9,803.3,27.9,803.2,27.9c0,0.4-0.1,0.9-0.2,1.3
		c-0.4,2.4,0.6,4.2,2.7,4.7c2.3,0.6,4.8-0.3,6.3-2.4c1.6-2.3,2.2-4.8,1.5-7.1c-0.5-2.1-2.2-3-4.7-2.8c-2,0.2-4,1.6-4.9,3.6
		C803.6,26.1,803.5,27,803.2,27.9z"/>
	<path class="st1" d="M786.3,21.5c0.6-3.2,1.2-6.4,1.9-9.6c1.1,0,2,0,3.1,0c-1.5,8-3.1,15.9-4.6,24c-0.7,0-1.6,0-2.5,0
		c0.1-0.8,0.1-1.7,0.2-2.6c-0.2,0.1-0.3,0.2-0.4,0.3c-2.5,2.6-5.2,3.3-8.1,2.5c-2.9-0.8-4.1-3-4.1-6c0-2.5,0.7-4.8,2.4-7.1
		c3.3-4.4,9.1-5.2,12-1.7C786,21.5,786.1,21.5,786.3,21.5z M785.1,27.9c0.1-0.7,0.2-1.4,0.3-2.1c0.2-2.1-0.8-3.6-2.6-4.2
		c-1.9-0.6-4.2,0.2-5.8,1.9c-2.2,2.4-2.9,6.3-1.7,8.7c0.9,1.6,2.8,2.3,5,1.7c1.9-0.5,3.6-2,4.2-3.9C784.8,29.3,785,28.6,785.1,27.9z
		"/>
	<path class="st1" d="M687.1,13.1c1,0,1.9,0,2.8,0c0.2,0,0.5,0.3,0.5,0.6c0.8,6.1,1.6,12.3,2.4,18.4c0,0.3,0.1,0.5,0.1,0.9
		c1.4-2.7,2.8-5.3,4.2-7.8c2.1-3.8,4.2-7.5,6.2-11.2c0.4-0.7,0.7-0.9,1.4-0.8c0.7,0.1,1.5,0,2.3,0c-1.4,2.4-2.7,4.7-4,6.9
		c-2.9,5-5.8,10-8.6,15c-0.4,0.7-0.8,0.9-1.6,0.9c-2.4,0-2.4,0-2.8-2.3c-1-6.5-2-13-3-19.5C687.1,13.9,687.1,13.6,687.1,13.1z"/>
	<path class="st1" d="M758.1,28.3c-0.8,3.3,1,5.7,4.3,5.8c1.8,0,3.6-0.3,5.6-0.5c0,0.4,0.1,1,0.1,1.9c-1.5,0.3-2.9,0.7-4.3,0.7
		c-1.6,0.1-3.3,0-4.8-0.4c-3.3-0.9-4.7-4-3.9-7.9c0.8-3.6,2.7-6.7,6.5-8.1c5.8-2.1,10.5,0.6,9,7.6c-0.2,0.8-0.6,0.9-1.2,0.9
		c-3.4,0-6.8,0-10.2,0C758.8,28.3,758.4,28.3,758.1,28.3z M758.6,26.2c3.1,0,6.1,0,9.2,0c0.8-2.7-0.5-4.7-3.1-4.9
		C762,21.1,759.2,23.3,758.6,26.2z"/>
	<path class="st1" d="M718.1,28.4c-4.1,0-8.2,0-12.2,0c-1,3.1,0.9,5.7,4.2,5.7c1.5,0,3.1-0.3,4.7-0.5c0.3,0,0.6-0.1,0.9-0.2
		c0,0.6,0.1,1.2,0.1,1.9c-2.3,0.9-4.5,1.2-6.7,1c-3.3-0.2-5.8-1.6-6.3-4.9c-0.5-3.5,0.5-6.8,3.5-9.6c3.9-3.7,10.2-3.4,11.8,0.5
		C718.9,24.1,718.8,26.1,718.1,28.4z M715.5,26.2c0.9-2.6-0.3-4.6-2.8-4.9c-2.8-0.3-5.6,1.8-6.3,4.9
		C709.4,26.2,712.5,26.2,715.5,26.2z"/>
	<path class="st1" d="M818.5,19.6c1.1,0,2-0.1,2.8,0c0.3,0,0.6,0.4,0.7,0.8c0.8,3.9,1.5,7.8,2.2,11.6c0,0.2,0.1,0.4,0.2,0.7
		c1-1.9,2-3.6,2.9-5.3c1.3-2.3,2.6-4.6,3.8-7c0.4-0.7,0.7-1,1.4-0.9c0.7,0.1,1.4,0,2.2,0c-0.1,0.2-0.1,0.4-0.2,0.6
		c-3.2,5.3-6.4,10.7-9.8,16c-1.5,2.4-3.3,4.7-5.9,6.1c-1,0.6-2.1,1-3.2,1.5c-0.1-1-0.2-1.7-0.3-2.5c0.3-0.1,0.6-0.3,0.9-0.4
		c1.2-0.8,2.5-1.5,3.6-2.4c1.7-1.4,2.5-3,1.9-5.1c-1.2-4.1-2-8.4-3-12.6C818.7,20.4,818.6,20.1,818.5,19.6z"/>
	<path class="st1" d="M750.8,12c-0.3,0.7-0.5,1.4-0.8,2c-4.2-0.5-6.1,1.2-6.4,5.5c1.3,0,2.6,0,4,0c-0.2,0.8-0.3,1.5-0.4,2.2
		c-1.3,0-2.6,0-4.1,0c-0.9,4.8-1.8,9.4-2.7,14.2c-1.1,0-2.1,0-3.1,0c0.9-4.7,1.8-9.3,2.7-14.1c-0.8,0-1.5,0-2.3,0
		c0.2-0.8,0.3-1.5,0.4-2.2c0.7,0,1.5-0.1,2.3-0.1c0.7-2.9,1.5-5.8,4.7-7.3C747,11.3,748.9,11.2,750.8,12z"/>
	<path class="st1" d="M722.4,36c-1.1,0-2,0-3,0c1.1-5.5,2.1-10.9,3.2-16.3c0.8,0,1.6,0,2.5,0c-0.1,1-0.3,2-0.4,3
		c1.8-2.2,3.7-3.6,6.4-3.3c-0.2,0.9-0.3,1.7-0.5,2.6c-0.2,0-0.5,0.1-0.7,0.1c-2.5,0-4.6,1.5-5.3,4.1c-0.7,2.8-1.2,5.6-1.8,8.3
		C722.6,34.9,722.5,35.4,722.4,36z"/>
	<path class="st1" d="M751.1,19.6c1,0,1.9,0,3,0c-1.1,5.5-2.1,10.9-3.2,16.3c-1,0-1.9,0-3,0C748.9,30.5,750,25.1,751.1,19.6z"/>
	<path class="st1" d="M732.9,36c-1,0-1.9,0-2.9,0c1.1-5.5,2.1-10.9,3.2-16.4c0.4,0,0.7,0,1-0.1c0.6,0,1.2,0,1.9,0
		C735,25.1,733.9,30.5,732.9,36z"/>
	<path class="st1" d="M733.6,14.9c0.2-1.1,1-1.8,2.2-1.8c1.2,0,1.8,0.7,1.6,1.8c-0.2,1-1.1,1.8-2.3,1.8
		C734.1,16.7,733.4,16,733.6,14.9z"/>
	<path class="st1" d="M753.8,13.1c1.2,0,1.7,0.7,1.5,1.8c-0.2,1-1.2,1.8-2.3,1.8c-1.1,0-1.8-0.8-1.5-1.8
		C751.7,13.8,752.7,13.1,753.8,13.1z"/>
</g>
<g id="w572jZ.tif">
	
		<image style="overflow:visible;" width="1078" height="380" id="Layer_0_00000055707607380681164720000018321132250164672168_" xlink:href="E201B91B6E4037EF.png"  transform="matrix(0.1578 0 0 0.1578 873.388 15.222)">
	</image>
</g>
<g>
	<path class="st24" d="M593.6,64.4c-0.5,0.1-0.8,0.5-1.2,0.8c-2.7,1.9-5.6,3.3-8.7,4.3c-3.6,1.1-7.3,1.5-11,1.1
		c-2-0.2-4-0.5-5.9-1.1c-1.6-0.5-3.1-1.1-4.7-1.8c-1.9-0.9-3.7-2.1-5.3-3.3c-2.8-2.1-5-4.7-6.9-7.6c-1.6-2.5-2.8-5.2-3.5-8.1
		c-0.9-3.3-1.2-6.7-0.9-10.2c0.3-3.2,1-6.3,2.3-9.3c2.1-4.9,5.3-8.9,9.5-12.1c1.8-1.4,3.8-2.6,5.9-3.5c1.8-0.8,3.7-1.4,5.7-1.8
		c2.4-0.5,4.9-0.7,7.4-0.7c1.7,0.1,3.4,0.3,5.1,0.6c3.2,0.6,6.1,1.8,8.9,3.4c1.2,0.7,2.3,1.4,3.3,2.3c-0.1,0.2-0.3,0.3-0.4,0.4
		c-1,0.8-1.9,1.7-2.8,2.6c-1.4,1.5-2.6,3.2-3.7,4.9c-0.9,1.4-1.7,3-2.3,4.5c-1.2,3-1.9,6.1-2.1,9.3c-0.1,2.5,0,4.9,0.5,7.4
		c0.5,2.5,1.3,5,2.4,7.3c0.8,1.7,1.7,3.3,2.8,4.7c1.2,1.7,2.6,3.2,4.1,4.6C592.5,63.5,593,64,593.6,64.4
		C593.6,64.3,593.6,64.4,593.6,64.4z"/>
	<path class="st25" d="M593.6,64.4C593.6,64.4,593.6,64.3,593.6,64.4c0.1-0.2,0.3-0.2,0.4-0.3c1.1-1,2.2-1.9,3.2-3
		c1.3-1.5,2.5-3,3.5-4.7c1.4-2.4,2.5-4.9,3.3-7.6c0.7-2.4,1-4.9,1.1-7.4c0-0.8,0-1.7-0.1-2.5c-0.1-1.1-0.2-2.2-0.4-3.3
		c-0.3-1.8-0.8-3.6-1.5-5.3c-0.6-1.5-1.2-2.9-2-4.2c-0.5-0.9-1.1-1.8-1.7-2.7c-1-1.4-2.2-2.7-3.4-4c-0.7-0.7-1.5-1.3-2.3-2
		c2.4-1.9,5.1-3.4,8-4.5c4-1.5,8.1-2.1,12.3-1.8c6.2,0.4,11.8,2.6,16.6,6.4c5.6,4.5,9.2,10.2,10.6,17.2c1.3,6.1,0.7,12-1.7,17.8
		c-2.8,6.6-7.4,11.5-13.6,14.9c-3.5,1.9-7.2,2.9-11.1,3.3c-6.9,0.6-13.3-1-19.2-4.8C594.8,65.4,594.2,64.9,593.6,64.4z"/>
	<path class="st26" d="M593.6,17.2c0.8,0.7,1.6,1.3,2.3,2c1.2,1.2,2.4,2.5,3.4,4c0.6,0.9,1.2,1.8,1.7,2.7c0.7,1.4,1.4,2.8,2,4.2
		c0.7,1.7,1.2,3.5,1.5,5.3c0.2,1.1,0.3,2.2,0.4,3.3c0.1,0.8,0.1,1.7,0.1,2.5c-0.1,2.5-0.4,5-1.1,7.4c-0.7,2.7-1.8,5.2-3.3,7.6
		c-1,1.7-2.2,3.2-3.5,4.7c-1,1.1-2.1,2-3.2,3c-0.1,0.1-0.3,0.2-0.4,0.3c-0.6-0.3-1.1-0.9-1.6-1.3c-1.6-1.4-2.9-2.9-4.1-4.6
		c-1.1-1.5-2-3.1-2.8-4.7c-1.1-2.3-1.9-4.8-2.4-7.3c-0.5-2.4-0.6-4.9-0.5-7.4c0.2-3.2,0.9-6.3,2.1-9.3c0.6-1.6,1.4-3.1,2.3-4.5
		c1.1-1.7,2.3-3.4,3.7-4.9c0.9-0.9,1.8-1.8,2.8-2.6c0.2-0.1,0.3-0.2,0.4-0.4C593.5,17.3,593.5,17.3,593.6,17.2z"/>
	<path class="st27" d="M551.9,78.5c0.8-0.4,1.5-1.2,2.6-1c1,0.1,1.7,0.6,2.4,1.4c0.5-0.6,1.1-1.1,1.9-1.3c2.1-0.6,3.9,0.8,3.9,3
		c0,1.5,0,3.1,0,4.6c0,0.3-0.1,0.4-0.4,0.4c-1.2,0-1.2,0-1.2-1.2c0-1.2,0-2.3,0-3.5c0-1.1-0.6-1.8-1.8-1.8c-1.2,0-2,0.7-2,1.8
		c0,1.4,0,2.8,0,4.2c0,0.3-0.1,0.5-0.4,0.4c-1.3,0-1.3,0-1.3-1.3c0-1.1,0-2.2,0-3.3c0-1.2-0.7-1.9-1.7-1.9c-1.3,0-2,0.7-2,2
		c0,1.4,0,2.8,0.1,4.1c0,0.3-0.1,0.4-0.4,0.4c-1.3,0-1.3,0-1.3-1.3c0-2.1,0-4.1,0-6.2c0-0.3,0.1-0.5,0.4-0.4c0.1,0,0.1,0,0.2,0
		C551.8,77.6,551.8,77.6,551.9,78.5z"/>
	<path class="st27" d="M635.4,78.6c0-1.3,0-2.5,0-3.7c0-0.3,0.1-0.4,0.4-0.4c1.3,0,1.3,0,1.3,1.3c0,3.1,0,6.1,0,9.2
		c0,0.5-0.1,0.6-0.6,0.6c-0.1,0-0.2,0-0.4,0c-0.7,0-0.7,0-0.7-0.8c-1,0.7-1.9,1.1-3.1,1c-1.2-0.2-2-0.8-2.7-1.8
		c-1.1-1.7-0.9-4.2,0.6-5.6C631.4,77.3,633.4,76.8,635.4,78.6z M635.5,81.7c0-1.5-1-2.6-2.4-2.7c-1.4,0-2.5,1.1-2.5,2.5
		c0,1.5,1,2.7,2.4,2.7C634.4,84.3,635.5,83.2,635.5,81.7z"/>
	<path class="st27" d="M619.5,84.8c-2.5,1.8-4.5,0.8-5.6-0.4c-1.3-1.7-1.3-4.1,0.1-5.7c1.4-1.6,3.1-1.6,5.4-0.1
		c0.1-0.9,0.1-0.8,1.1-0.9c0.5,0,0.7,0.1,0.7,0.6c0,2.3,0,4.5,0,6.8c0,0.4-0.1,0.5-0.5,0.5c-0.1,0-0.3,0-0.4,0
		C619.7,85.6,619.2,85.6,619.5,84.8z M614.6,81.6c0,1.5,1.1,2.6,2.4,2.6c1.4,0,2.5-1.1,2.5-2.7c0-1.5-1.1-2.6-2.5-2.6
		C615.7,79,614.6,80.2,614.6,81.6z"/>
	<path class="st27" d="M570.8,78.5c0-0.9,0-0.9,0.9-0.9c0.8,0,0.8,0,0.8,0.8c0,2.2,0,4.4,0,6.6c0,0.4-0.1,0.6-0.5,0.5
		c-0.1,0-0.3,0-0.4,0c-0.7,0-0.7,0-0.8-0.8c-1,0.8-2.1,1.2-3.4,0.9c-0.9-0.2-1.6-0.7-2.2-1.4c-1.3-1.7-1.2-4.1,0.2-5.6
		C566.8,77.1,568.5,77,570.8,78.5z M570.9,81.7c0-1.5-1-2.6-2.4-2.6c-1.4,0-2.4,1.1-2.5,2.6c0,1.5,1,2.7,2.4,2.7
		C569.8,84.3,570.9,83.1,570.9,81.7z"/>
	<path class="st27" d="M594.7,82.2c-0.9,0-1.7,0-2.6,0c-0.3,0-0.3,0.1-0.3,0.3c0.2,1.1,1.4,2,2.5,1.7c0.6-0.1,1.2-0.3,1.8-0.7
		c0.2-0.1,0.3-0.1,0.4,0.1c0.7,1.1,0.7,1.1-0.5,1.7c-2.1,1-4,0.4-5.1-0.7c-1.3-1.3-1.5-3.7-0.5-5.3c1-1.6,2.9-2.3,4.7-1.7
		c1.4,0.4,2,1.6,2.3,2.9c0.3,1.6,0.3,1.6-1.4,1.6C595.7,82.2,595.2,82.2,594.7,82.2z M593.8,81C593.8,81,593.8,80.9,593.8,81
		c0.6,0,1.2,0,1.8,0c0.2,0,0.3-0.1,0.3-0.3c-0.1-1-0.9-1.6-2.1-1.6c-1.1,0-1.9,0.6-2,1.6c0,0.3,0,0.3,0.3,0.3
		C592.7,80.9,593.3,81,593.8,81z"/>
	<path class="st27" d="M577.7,85.8c-1.2,0-2.3-0.4-3.3-0.9c-0.2-0.1-0.2-0.2-0.1-0.4c0,0,0,0,0,0c0.5-0.9,0.5-0.9,1.4-0.5
		c0.9,0.3,1.9,0.5,2.8,0.2c0.2-0.1,0.3-0.1,0.5-0.2c0.5-0.3,0.4-0.8,0-1c-0.5-0.3-1-0.4-1.5-0.4c-0.6-0.1-1.2-0.2-1.7-0.4
		c-0.8-0.4-1.2-1-1.3-1.8c-0.1-1,0.3-1.7,1.1-2.2c0.9-0.6,2-0.7,3-0.5c0.7,0.2,1.4,0.4,2.1,0.7c0.2,0.1,0.3,0.2,0.1,0.4
		c-0.6,1-0.6,1-1.7,0.7c-0.6-0.2-1.2-0.4-1.8-0.3c-0.2,0-0.4,0.1-0.6,0.2c-0.3,0.2-0.6,0.4-0.6,0.8c0,0.4,0.4,0.6,0.7,0.6
		c0.6,0.1,1.3,0.2,1.9,0.3c1.6,0.3,2.3,0.9,2.4,2.2c0,1.4-0.8,2.3-2.3,2.6C578.5,85.8,578.1,85.8,577.7,85.8z"/>
	<path class="st27" d="M583.9,81.6c0-0.7,0-1.3,0-2c0-0.3-0.1-0.4-0.4-0.4c0,0,0,0-0.1,0c-0.3,0-0.9,0.2-1-0.1
		c-0.2-0.4-0.1-0.9-0.1-1.4c0-0.2,0.2-0.1,0.3-0.1c0.4,0,0.9,0.2,1.1-0.1c0.3-0.3,0.1-0.8,0.1-1.2c0-1,0-1,1-1c0.8,0,0.8,0,0.8,0.8
		c0,0.3,0,0.7,0,1c-0.1,0.4,0.1,0.5,0.5,0.5c0.6,0,1.3,0,1.9,0c0.2,0,0.3,0.1,0.3,0.3c0.1,1.3,0.1,1.3-1.2,1.3
		c-0.5,0-1.1-0.2-1.4,0.1c-0.3,0.3-0.1,0.9-0.1,1.4c0,0.7,0,1.3,0,2c0,1.1,0.7,1.6,1.7,1.3c0.1,0,0.2-0.1,0.3-0.1
		c0.4-0.3,0.7-0.2,0.8,0.3c0.1,0.4,0.5,0.8,0.3,1.1c-0.2,0.3-0.7,0.3-1.1,0.4c-0.9,0.3-1.7,0.3-2.6-0.1c-0.9-0.4-1.3-1.2-1.3-2.1
		C583.9,82.9,583.9,82.3,583.9,81.6C583.9,81.6,583.9,81.6,583.9,81.6z"/>
	<path class="st27" d="M611.1,79.9c-0.6-0.7-1.4-0.9-2.2-0.8c-1.5,0.1-2.5,1.6-2.1,3.2c0.4,1.9,2.2,2.6,4,1.4
		c0.4-0.2,0.5-0.2,0.6,0.2c0,0.1,0.1,0.1,0.1,0.2c0.5,1,0.5,1-0.6,1.4c-2.6,1-5.3-0.3-5.9-2.9c-0.8-3.6,1.9-5.3,4.6-5.1
		c0.7,0.1,1.4,0.3,2,0.7c0.3,0.1,0.3,0.3,0.1,0.5C611.6,79.1,611.4,79.5,611.1,79.9z"/>
	<path class="st27" d="M625,78.5c0.5-0.3,0.9-0.5,1.3-0.8c0.6-0.3,1.2-0.3,1.8-0.2c0.3,0.1,0.3,0.2,0.2,0.5c0,0,0,0,0,0
		c-0.1,0.3-0.2,0.7-0.4,1c-0.2,0.3-0.6-0.1-0.9-0.1c-1.3,0-2.1,0.7-2,2c0,1.3,0,2.7,0,4c0,0.4-0.1,0.5-0.5,0.5c-1.3,0-1.3,0-1.3-1.3
		c0-2.1,0-4.1,0-6.2c0-0.4,0.1-0.5,0.5-0.5c0.1,0,0.2,0,0.3,0C624.9,77.6,624.9,77.6,625,78.5z"/>
	<path class="st27" d="M601.1,78.5c0.5-0.3,1-0.7,1.5-0.9c0.5-0.3,1.1-0.2,1.6-0.1c0.3,0.1,0.3,0.2,0.2,0.4c0,0.1,0,0.1-0.1,0.2
		c-0.1,0.3-0.1,0.7-0.3,0.9c-0.2,0.3-0.6-0.1-0.9-0.1c-1.5,0-2.1,0.9-2.1,2c0.1,1.4,0,2.8,0,4.1c0,0.3-0.1,0.4-0.4,0.4
		c-1.3,0-1.3,0-1.3-1.3c0-2,0-4.1,0-6.1c0-0.4,0.1-0.5,0.5-0.5c0.1,0,0.2,0,0.3,0C601.1,77.6,601.1,77.6,601.1,78.5z"/>
	<path class="st25" d="M641.1,56.2c0.3-0.1,0.2-0.7,0.5-0.5c0.2,0.1,0.1,0.5,0.1,0.8c0,0.1,0,0.1,0,0.2c-0.2-0.1-0.1-0.3-0.3-0.4
		c-0.4,0.8-0.4,0.1-0.6-0.2c-0.1,0.2,0,0.4-0.2,0.6c-0.2-0.3-0.1-0.6-0.1-0.9c0-0.2,0.2-0.2,0.3,0C640.9,55.9,641,56,641.1,56.2z"/>
	<path class="st27" d="M640,84.7c0.4-0.3,0.8-0.3,1.2,0c0.3,0.3,0.3,0.8,0,1.1c-0.3,0.3-0.7,0.3-1.2,0c0,0,0.1-0.1,0.1-0.1
		c0.6,0.3,1,0.1,1-0.3c0-0.2,0-0.5-0.2-0.6c-0.3-0.2-0.6-0.1-0.8,0C640.1,84.8,640,84.7,640,84.7z"/>
	<path class="st25" d="M639.4,55.7c0.3-0.1,0.6-0.1,1,0c-0.6,0.2-0.3,0.7-0.5,1C639.6,56.4,640,55.8,639.4,55.7z"/>
	<path class="st27" d="M640,85.8c-0.3-0.4-0.3-0.7,0-1.1c0,0,0.1,0.1,0.1,0.1c-0.2,0.3-0.2,0.6,0,0.9C640.1,85.7,640,85.7,640,85.8z
		"/>
	<path class="st27" d="M640.8,85.6c-0.3-0.2-0.3-0.2-0.6,0c0.2-0.3-0.2-0.7,0.2-0.7C641.2,84.7,640.7,85.4,640.8,85.6z"/>
</g>
<path class="st43" d="M1292.9,74.8c-0.3-0.9-1.2-0.8-1.9-1c-6.5-2.4-10.9-8.5-11-15.1c-0.1-7.2,4-13.3,10.6-15.9
	c6.5-2.6,13.7-0.9,18.5,4.2c2.5,2.7,2.4,4.2-0.7,6.3c-5.3,3.7-10.6,7.5-15.8,11.2c-0.8,0.6-2,1-1.7,2.3c0.2,1.3,1.5,1.5,2.6,1.8
	c5.9,1.8,11.8-1.2,13.9-7.1c1.3-3.6,3-4.1,6-1.7c0.2-1.8,0.1-3.6,0.5-5.3c2.4-10.5,13.9-16,23.7-11.3c3.4,1.6,3.7,1.4,3.7-2.4
	c0-3,0-5.9,0-8.9c0-1.9,0.6-3.4,2.8-3.5c2.3-0.1,2.8,1.5,2.8,3.4c0,13.1,0,26.2,0,39.3c0,1.8-0.7,2.8-2.1,3.6c-0.7,0-1.4,0-2.1,0
	c-1.1-0.9-1.1-3.6-3.3-2.6c-2.1,1-4.4,1.5-6.5,2.6c-1.9,0-3.8,0-5.6,0c-0.2-0.6-0.8-0.6-1.2-0.8c-6-1.7-9.8-5.5-11.8-11.3
	c-0.1-0.4-0.1-1.1-1-1.1c-1.8,6.6-6.3,10.7-12.8,12.7c-0.1,0-0.2,0.3-0.3,0.4C1297.7,74.8,1295.3,74.8,1292.9,74.8z M1341.3,58.2
	c0-6.2-4.7-10.9-11-10.9c-6.2,0-11.2,4.9-11.2,10.8c0,6.2,5.1,11.2,11.2,11.1C1336.5,69.1,1341.3,64.3,1341.3,58.2z M1285.7,57.9
	c0.1,0.9-0.5,2.4,0.8,3c1.3,0.7,2.2-0.6,3.1-1.2c3.9-2.7,7.8-5.5,11.7-8.3c2.1-1.5,1.9-2.5-0.5-3.5
	C1293.8,44.9,1285.9,50.1,1285.7,57.9z"/>
<path class="st1" d="M1100.3,74.8c-1.9-1.7-1.9-3.9-1.8-6.2c0.1-4.6,0.1-9.1,0-13.7c-0.1-5.8,2.8-9.9,7.9-12.2
	c4.6-2.1,9.2-1,13.2,1.9c1.5,1.1,2.3,1,3.7-0.1c4.1-3.2,8.8-3.7,13.5-1.7c4.8,2,7.3,6,7.4,11.2c0.1,5.6-0.1,11.2,0.1,16.8
	c0.1,2.3-1.3,3.2-3,4.1c-0.2,0-0.3,0-0.5,0c-1.8-1.7-2.1-3.8-2-6.1c0.1-4.6,0.1-9.3,0-13.9c0-4.5-2.7-7.1-6.9-7.4
	c-4.3-0.4-8,3.4-7.8,7.4c0.2,5,0,10,0.1,15c0,2.4-0.5,4.2-2.9,5.1c-0.3,0-0.7,0-1,0c-1.5-1.7-1.8-3.6-1.7-5.8c0.1-4.6,0-9.3,0-13.9
	c0-4.8-2.9-7.7-7.5-7.7c-4.5,0-7.3,2.8-7.3,7.5c0,4.7-0.1,9.5,0,14.2c0.1,2.6-0.4,4.7-3.1,5.7C1100.7,74.8,1100.5,74.8,1100.3,74.8z
	"/>
<path class="st1" d="M1187.1,74.8c-1.4-0.9-1.7-2.2-1.7-3.7c0-13,0-26.1,0-39.1c0-1.9,0.4-3.5,2.7-3.5c2.3-0.1,2.8,1.6,2.8,3.5
	c0,3.2,0,6.4,0,9.6c0,3,0.6,3.3,3.3,2c8.4-4,17.9-1.3,22.3,6.3c5.5,9.6,0.5,21.5-10.3,24.4c-0.4,0.1-0.9,0-1,0.5c-2.2,0-4.5,0-6.7,0
	c-0.6-0.9-1.7-0.6-2.4-1.1c-2.7-2-5-2-6.8,1.1C1188.5,74.8,1187.8,74.8,1187.1,74.8z M1202,47.4c-6.2,0-11.1,4.8-11.2,10.8
	c-0.1,5.8,5.1,11,11.1,11c6,0,11-4.9,11.1-11C1213,52,1208.3,47.4,1202,47.4z"/>
<path class="st1" d="M1160.9,74.8c-0.2-1-1.2-0.8-1.8-1c-6.5-2.4-11-9-10.8-15.7c0.2-7.3,4.7-13.4,11.4-15.6
	c9.4-3.1,18.9,2.1,21.5,11.8c2.5,8.9-3.4,18.1-12.8,20.1c-0.3,0.1-0.7,0.1-0.8,0.5C1165.4,74.8,1163.1,74.8,1160.9,74.8z
	 M1164.9,47.3c-6.2,0-11.2,5-11.1,11.1c0.1,5.9,5.2,10.9,11.2,10.8c6.1-0.1,11-5,11-11C1176,52.1,1171,47.2,1164.9,47.3z"/>
<path class="st43" d="M1242.1,74.8c-0.3-1.2-1.5-1-2.3-1.4c-8.8-3.9-12.5-14.5-8-22.9c4.4-8.3,15.1-11.4,23.1-6.7
	c1.7,1,2.8,2.2,1.7,4.1c-1,1.8-2.6,1.6-4.4,0.7c-5.5-2.8-11.3-1.5-14.6,3.1c-3.2,4.5-2.7,10.5,1.3,14.4c3.5,3.4,8.5,4,13.5,1.5
	c1.3-0.7,2.6-1,3.8,0c0.9,0.7,1,1.7,0.9,2.7c-0.2,1-0.9,1.5-1.7,2c-1.7,1.1-3.7,1.5-5.5,2.4C1247.2,74.8,1244.6,74.8,1242.1,74.8z"
	/>
<path class="st43" d="M1262.1,74.8c-1.1-1.1-1.7-2.3-1.7-4c0.1-8.5,0-16.9,0-25.4c0-3.4,1.6-4.4,4.7-2.9c1.1,0.5,1.9,0.1,2.9-0.2
	c3.9-1.1,7.6-0.8,11,1.6c1.1,0.8,1.3,1.3,0.2,2.3c-1.5,1.4-2.6,2.7-5.2,1.5c-3.8-1.8-7.9,1.2-8,5.5c-0.1,5.7-0.1,11.5,0,17.3
	c0,1.9-0.4,3.3-2,4.3C1263.5,74.8,1262.8,74.8,1262.1,74.8z"/>
<path class="st1" d="M1223.6,74.8c-1.2-1.1-1.7-2.5-1.6-4.2c0.1-8.4,0.1-16.9,0-25.3c0-1.9,0.5-3.4,2.7-3.5c2.3-0.1,3,1.4,3,3.5
	c0,8.6,0,17.2,0,25.8c0,1.7-0.6,2.9-2.1,3.7C1224.9,74.8,1224.3,74.8,1223.6,74.8z"/>
<path class="st1" d="M1125.7,32.2c-0.1,0.7-0.3,1.4-0.9,1.8c-1,0.5-1.9,0.3-2.9-0.3c-2.8-2-5.9-3.3-9.4-3.6
	c-7.6-0.7-13.7,1.9-18.4,7.8c-0.3,0.4-0.6,0.8-0.9,1.2c-0.8,1.1-1.9,1.3-2.9,0.6c-1.1-0.7-1.2-1.8-0.6-2.9c1.2-2.1,2.8-3.8,4.6-5.4
	c8-6.8,19.6-7.7,28.6-2.3C1124.2,29.9,1125.5,30.6,1125.7,32.2z"/>
<path class="st1" d="M1110.9,33.5c4.1,0,7.9,1.2,11.2,3.6c1.2,0.9,1.9,1.9,1,3.2c-0.8,1.2-2.1,1.3-3.3,0.4c-6.5-5.1-17-3.5-21.7,3.9
	c-0.8,1.2-2,1.5-3.1,0.7c-1.3-0.9-1.2-2.1-0.4-3.3C1098,36.8,1104.3,33.5,1110.9,33.5z"/>
<path class="st1" d="M1225,30.6c2,0,3.3,1.4,3.3,3.4c0,2.1-1.4,3.3-3.6,3.3c-2,0-3.2-1.3-3.2-3.4C1221.4,31.8,1222.8,30.5,1225,30.6
	z"/>
</svg>
