<svg id="Layer_1" data-name="Layer 1" xmlns="http://www.w3.org/2000/svg" viewBox="0 0 200 200"><defs><style>.cls-1{fill:#43a7de;}.cls-2{fill:#46a8de;}</style></defs><path class="cls-1" d="M131,191.24H80.46a6.52,6.52,0,0,1-2.9-.55,3.94,3.94,0,0,1-2.48-3.7c0-6.25,0-12.51,0-18.76a3.57,3.57,0,0,1,1.68-3,4.63,4.63,0,0,0,2.12-4.3c-.08-7.46,0-14.91,0-22.37,0-1.06-.32-1.28-1.33-1.28q-21.18,0-42.37,0c-6.13,0-12.26,0-18.39,0a11.89,11.89,0,0,1-2.46-.28c-2.3-.49-3.51-2.09-3.55-5-.07-5.67,0-11.35,0-17A4.73,4.73,0,0,1,13,110.87a3.62,3.62,0,0,0,1.75-3.33q0-24.78.05-49.58a1.44,1.44,0,0,0-1-1.56,19.9,19.9,0,0,1-2.22-1.1,3.41,3.41,0,0,1-1.66-2.09c-.73-2.53-.51-5.15-.42-7.72.08-2.11,1.46-3.51,3.21-4.58q8.78-5.41,17.52-10.85c11-6.8,22-13.55,32.91-20.42a6.5,6.5,0,0,1,7.69,0q25,15.57,50,31c2.61,1.6,3.93,3.66,3.68,6.73-.12,1.52,0,3-.13,4.58a4.19,4.19,0,0,1-2.94,3.92c-1.79.58-2.33,1.62-2.2,3.46.18,2.47,0,5,0,7.45,0,1.71,0,1.75,1.55.86,2.36-1.37,4.72-2.75,7-4.26a5.63,5.63,0,0,1,6.7.06c6.16,3.88,12.37,7.69,18.56,11.52l32.08,19.88a18.29,18.29,0,0,1,1.65,1.11,4.14,4.14,0,0,1,1.65,3.32c0,2.2,0,4.39,0,6.59a4,4,0,0,1-2.63,4c-2,.77-2.6,2.21-2.6,4.16,0,7,0,14.08,0,21.12,0,8.53,0,17.06,0,25.6a4.67,4.67,0,0,0,2.34,4.57,4,4,0,0,1,1.8,3.75c0,5.84.09,11.68,0,17.52,0,2.91-2.18,4.73-5.28,4.74H131Zm-.57-9.48h44.47c.76,0,1.58.15,1.41-1.06,0-.22.14-.46.36-.43,1.39.14,1.1-.85,1.11-1.63s-.06-1.75,0-2.61a3.31,3.31,0,0,0-1.68-3.33,4.55,4.55,0,0,1-2.14-4.09c0-4,0-8,0-12.05,0-16.4,0-32.8,0-49.19,0-2.29.26-4.38,2.16-5.93.66-.55.37-.9-.22-1.31-3.14-2.17-6.43-4.08-9.66-6.09q-16.44-10.23-32.9-20.43a3.66,3.66,0,0,0-4.29,0c-1.84,1.19-3.73,2.31-5.59,3.47q-18.09,11.2-36.18,22.43c-1.18.73-1.4,1.57-.47,2.61a6.79,6.79,0,0,1,1.5,5q0,30.56,0,61.12a5.13,5.13,0,0,1-2.42,4.71,3,3,0,0,0-1.53,2.43,47.67,47.67,0,0,0,.06,5.21c.08,1.16.61,1.25,1.56,1.25Q108.22,181.75,130.46,181.76ZM49.57,127.59H77.15c1.94,0,1.67.27,1.68-1.73,0-4.06-.14-8.13.06-12.18.1-2.08-.51-3.26-2.46-4a4.18,4.18,0,0,1-2.75-4.18c0-1.53,0-3.07-.05-4.6-.19-2.79,1-4.66,3.37-6.11C87.41,88.44,97.76,82,108.16,75.58a3.24,3.24,0,0,0,1.71-3.06c0-1.11-.14-2.22-.15-3.34,0-5.38,0-10.76,0-16.15A7.38,7.38,0,0,1,111.31,48c1.14-1.35,1-1.43-.4-2.39-.49-.32-1-.65-1.46-1Q89.37,32.16,69.27,19.69a3.84,3.84,0,0,0-4.5,0c-6.14,3.84-12.3,7.64-18.45,11.45-7.21,4.47-14.44,8.91-21.62,13.42-2.74,1.72-2.4,1-1.44,4a11.71,11.71,0,0,1,.87,3.6q0,31,0,62a5.05,5.05,0,0,1-2.47,4.8,2.82,2.82,0,0,0-1.45,2.33,47.83,47.83,0,0,0,.06,5.08c.08,1.17.61,1.26,1.56,1.25C31.11,127.57,40.34,127.59,49.57,127.59Z"/><path class="cls-2" d="M111.44,150c1.82,0,3.64,0,5.47,0,1.41,0,1.84.35,1.86,1.72,0,3.72,0,7.45,0,11.18A1.57,1.57,0,0,1,117,164.6c-3.72,0-7.45,0-11.18,0-1.31,0-1.79-.49-1.8-1.82,0-3.65,0-7.29,0-10.94,0-1.45.42-1.85,1.85-1.86C107.71,149.94,109.58,150,111.44,150Z"/><path class="cls-1" d="M150.88,125.36c-1.86,0-3.73,0-5.59,0a1.55,1.55,0,0,1-1.8-1.71c0-3.76,0-7.53,0-11.29a1.53,1.53,0,0,1,1.72-1.68c3.77,0,7.53,0,11.29,0,1.35,0,1.76.56,1.78,2.26,0,2.44,0,4.88,0,7.32,0,1,0,2,0,3-.08,1.71-.49,2.09-2.19,2.11s-3.48,0-5.21,0Z"/><path class="cls-1" d="M111.51,110.69h5.22c1.51,0,2,.4,2,1.85q.09,5.46,0,10.92c0,1.46-.54,1.9-2,1.91-3.6,0-7.19,0-10.79,0-1.46,0-2-.45-2-1.92q-.06-5.46,0-10.91c0-1.43.48-1.83,1.91-1.85C107.79,110.67,109.65,110.69,111.51,110.69Z"/><path class="cls-2" d="M150.83,164.59h-5.34c-1.53,0-2-.41-2-1.88q0-5.52,0-11c0-1.26.49-1.71,1.75-1.71,3.72,0,7.44,0,11.17,0,1.17,0,1.82.51,1.83,1.67,0,3.72.07,7.44,0,11.15-.05,1.56-.47,1.81-2.05,1.83-1.78,0-3.56,0-5.33,0Z"/><path class="cls-2" d="M47.17,71.39c-1.74,0-3.48,0-5.22,0s-2.09-.52-2.1-2.1q0-5.34,0-10.68c0-1.4.51-2,1.94-2,3.56-.06,7.12-.07,10.68,0,1.75,0,2.14.42,2.17,2.17.06,3.52,0,7,0,10.56,0,1.65-.54,2-2.26,2.06S48.91,71.39,47.17,71.39Z"/><path class="cls-2" d="M79.33,64c0-1.78,0-3.56,0-5.34,0-1.47.37-2,1.76-2,3.72-.08,7.45,0,11.17,0a1.67,1.67,0,0,1,1.86,1.84c0,3.68.08,7.37,0,11,0,1.54-.59,1.89-2.17,1.89-3.4,0-6.79,0-10.19,0-2,0-2.37-.4-2.4-2.42C79.31,67.32,79.33,65.66,79.33,64Z"/><path class="cls-2" d="M47.26,110.62c-1.78,0-3.56,0-5.34,0s-2.06-.46-2.07-2.1c0-3.47,0-7,0-10.43,0-1.82.2-1.93,2-2.1a105.74,105.74,0,0,1,11.4,0c.85,0,1.24.42,1.3,1.3.25,3.92-.16,7.84,0,11.77.05,1.38-.94,1.51-1.91,1.54C50.82,110.65,49,110.62,47.26,110.62Z"/></svg>