<svg id="Layer_1" data-name="Layer 1" xmlns="http://www.w3.org/2000/svg" viewBox="0 0 200 200"><defs><style>.cls-1{fill:#41a6dd;}</style></defs><path class="cls-1" d="M119.56,127.34a73.35,73.35,0,0,0,6.08,8c.07.09,2.06-1.48,4-2.89-2.78-2.94-5-5.32-7.33-7.5a13.39,13.39,0,0,0-2.74,2.41m1-13.86c4.2,0,7.22-3.25,7.16-7.63s-3.17-7.53-7.37-7.45a7.78,7.78,0,0,0-7.38,7.68,7.46,7.46,0,0,0,7.59,7.4M75,131.75c-.23,2-1.27,4.3-.56,5.82,4,8.42,10.94,12.57,17.86,12.93,11.43,0,19.68-5.19,22.79-13.33.57-1.5-.36-3.57-.59-5.37-1.54.9-3.7,1.43-4.52,2.78-8.11,13.43-22.56,13.48-30.5.1-.82-1.38-3-2-4.48-2.93m1.42-25.95a7.5,7.5,0,0,0-7.62-7.38c-4.22.09-7.15,3.26-7.1,7.71a7.19,7.19,0,0,0,7.44,7.38,7.48,7.48,0,0,0,7.28-7.71m-9.09,19.06a57.33,57.33,0,0,0-6,7.52c-.16.25,2,2,3,3.05l7-7.8c-2-1.36-3.89-2.91-4-2.77M143,84c-.88-1.38-1.48-3.64-2.66-4C127.15,75.91,118.5,67,112.64,55c-1.83-3.78-3.88-3.81-6.9-.87A56.06,56.06,0,0,1,95.2,62.55C81.72,70.43,67.43,75.85,51.48,76c-1.74,0-3.47,1.9-5.2,2.93,1.74,1,3.45,2.95,5.21,3a61,61,0,0,0,12.92-1.14c16.11-3.12,30.84-9.44,44-20.22,1.32,2,2.22,3.47,3.16,4.87,6.49,9.75,15.06,16.81,26.5,19.88,1.4.37,3.22-.84,4.85-1.32m21.93,27.43c0,6.09-3.44,10.73-9.41,12.88V98.69c6.21,2,9.44,6.64,9.41,12.73M149.59,96.8c0,11.2-.12,22.86-3.05,33.52-6.83,24.81-33.07,41.23-57.44,37.67C60.41,163.81,40.56,142.37,40,114.9c-.07-3.39,0-6.79,0-10.19-1.14-15.17,1.67-29.3,11.25-41.55C65.87,44.42,90,37,112,44.42A54.5,54.5,0,0,1,149.59,96.8M122.4,42.12c-18.67-8.5-36.7-8.38-54.78-.31.93-10.53,12.16-20.66,23.59-21.6,15.21-1.25,27.7,7.24,31.19,21.91M33.88,124.46c-5.83-1.63-8.29-6.22-9.27-11.76S27,101.87,33.88,98.11ZM159.14,92.65a9.23,9.23,0,0,1-4.21-5.7,59.42,59.42,0,0,0-20.71-36.53,15.58,15.58,0,0,1-5.56-9.2A34.41,34.41,0,0,0,94.39,14c-16.93.29-30.47,11.77-34,28.41a13.36,13.36,0,0,1-4.15,6.83C44.7,59,37.38,71.22,34.79,86c-.62,3.55-1.64,5.48-5,7.16-8,4-11.81,11-11,19.92.76,8.72,5.8,14.28,13.75,17.74A11.11,11.11,0,0,1,38,136.12a61.54,61.54,0,0,0,56.55,38.17c25,0,46.63-14.51,56.74-37.83a11.17,11.17,0,0,1,5.28-5.44c8-3.35,13.17-8.7,14-17.48.9-9.45-3.1-16.26-11.43-20.89"/></svg>