<svg id="Layer_1" data-name="Layer 1" xmlns="http://www.w3.org/2000/svg" viewBox="0 0 200 200"><defs><style>.cls-1{fill:#41a6dd;}</style></defs><path class="cls-1" d="M142.66,182.84h13.27V169.79H142.66Zm-71.57,0H84.46V169.76H71.09Zm27.65,0V64.19H35.39V168.88c2.45,0,4.79,0,7.13,0a3.88,3.88,0,0,1,3.85,3.56,3.72,3.72,0,0,1-3.22,4.09,50.72,50.72,0,0,1-5.38.16H35.41v6.11H63.05v-1.59c0-5,0-10,0-15,0-2.91,1.59-4.43,4.55-4.44H87.93c3,0,4.58,1.53,4.59,4.53q0,7.49,0,15v1.52Zm8.12-14c2.51,0,4.87,0,7.21,0a3.79,3.79,0,0,1,3.79,4c-.07,2.22-1.72,3.75-4.19,3.8-2.24,0-4.49,0-6.9,0,0,1.66.08,3.15,0,4.63-.08,1.22.28,1.62,1.59,1.62,8.25-.06,16.51,0,24.76,0,.49,0,1,0,1.52-.08,0-5.64,0-11.13,0-16.62,0-2.93,1.52-4.4,4.53-4.4h20.47c2.81,0,4.36,1.54,4.37,4.3v16.72h6.28V17.75H106.86Zm71.48,14.05c.78,0,1.47,0,2.15,0a3.9,3.9,0,1,1-.19,7.79c-.51,0-1,0-1.52,0H26.18a7.79,7.79,0,0,1-2.32-.23,3.82,3.82,0,0,1-2.63-4A3.9,3.9,0,0,1,24.6,183c.86-.11,1.73-.11,2.7-.17V61.22c0-3.61,1.41-5,5.11-5H98.86V14.78c0-3.65,1.29-4.94,4.94-4.94h69.46c3.74,0,5.08,1.32,5.08,5V182.93Z"/><path class="cls-1" d="M164,55.89c0,.78,0,1.55,0,2.32a3.92,3.92,0,0,1-4,4.14c-1.79.07-3.6.08-5.39,0a3.88,3.88,0,0,1-3.9-4.09c0-1.68,0-3.36,0-5a3.73,3.73,0,0,1,3.58-3.93,45.69,45.69,0,0,1,6.08,0A3.74,3.74,0,0,1,164,53.17c0,.91,0,1.82,0,2.72"/><path class="cls-1" d="M145.21,56c0,.77,0,1.54,0,2.31a3.89,3.89,0,0,1-3.92,4.07c-1.8.08-3.6.08-5.39,0a4,4,0,0,1-4-4.17c0-1.63,0-3.27,0-4.9a3.88,3.88,0,0,1,3.82-4,51.07,51.07,0,0,1,5.67,0,3.81,3.81,0,0,1,3.81,4c0,.91,0,1.81,0,2.72"/><path class="cls-1" d="M126.44,55.79c0,.82,0,1.63,0,2.45a3.91,3.91,0,0,1-4,4.11c-1.75.07-3.51.07-5.26,0a4,4,0,0,1-4-4c-.06-1.72,0-3.45,0-5.18a3.9,3.9,0,0,1,3.92-3.94c1.79-.09,3.6-.08,5.39,0a3.84,3.84,0,0,1,4,4.11c0,.82,0,1.63,0,2.45"/><path class="cls-1" d="M119.82,41.21H117.2a3.91,3.91,0,0,1-4.07-3.8c-.08-1.85-.08-3.72,0-5.57a3.87,3.87,0,0,1,4-3.71q2.63,0,5.25,0a3.82,3.82,0,0,1,4,3.93c0,1.77,0,3.54,0,5.31a3.84,3.84,0,0,1-4,3.84h-2.63"/><path class="cls-1" d="M138.6,125.64c-.93,0-1.85,0-2.77,0a3.86,3.86,0,0,1-3.91-3.78c-.06-1.81,0-3.63,0-5.45a3.89,3.89,0,0,1,3.87-3.84c1.84,0,3.69,0,5.53,0a3.84,3.84,0,0,1,3.88,3.81c.05,1.81,0,3.63,0,5.44a3.8,3.8,0,0,1-4,3.82c-.87,0-1.75,0-2.62,0"/><path class="cls-1" d="M145.21,140.18c0,.86,0,1.73,0,2.59a3.88,3.88,0,0,1-4,4c-1.75.07-3.5.06-5.26,0a4,4,0,0,1-4.08-4.08c0-1.68,0-3.36,0-5a3.87,3.87,0,0,1,4-4c1.75-.06,3.5-.05,5.25,0a3.82,3.82,0,0,1,4.05,4c0,.82,0,1.64,0,2.45"/><path class="cls-1" d="M145.21,98.06c0,.82,0,1.63,0,2.45a3.87,3.87,0,0,1-3.92,4.06c-1.8.08-3.6.07-5.4,0a4,4,0,0,1-4-4c0-1.68,0-3.36,0-5a3.84,3.84,0,0,1,3.83-4,56.24,56.24,0,0,1,5.66,0,3.79,3.79,0,0,1,3.81,4c0,.86,0,1.72,0,2.58"/><path class="cls-1" d="M126.42,119.11c0,1,0,2,0,3a3.72,3.72,0,0,1-3.7,3.52c-1.85,0-3.69,0-5.54,0a3.85,3.85,0,0,1-4-3.8c-.08-1.81-.08-3.63,0-5.44a3.9,3.9,0,0,1,4-3.83c1.71,0,3.41,0,5.12,0a3.88,3.88,0,0,1,4.14,4c0,.86,0,1.72,0,2.58Z"/><path class="cls-1" d="M126.44,98c0,.86,0,1.72,0,2.58a3.88,3.88,0,0,1-3.9,3.95c-1.79.07-3.6.07-5.39,0a4,4,0,0,1-4-4c0-1.72,0-3.44,0-5.17a3.84,3.84,0,0,1,3.81-3.89,53.43,53.43,0,0,1,5.66,0,3.75,3.75,0,0,1,3.83,4c0,.86,0,1.73,0,2.59"/><path class="cls-1" d="M164,119.08c0,1,0,1.91,0,2.86a3.79,3.79,0,0,1-3.71,3.68c-1.93.06-3.88,0-5.81,0a3.79,3.79,0,0,1-3.76-3.77c0-1.81,0-3.63,0-5.44a3.87,3.87,0,0,1,3.86-3.85c1.84,0,3.68,0,5.53,0A3.87,3.87,0,0,1,164,116.5c0,.86,0,1.72,0,2.58"/><path class="cls-1" d="M164,34.67c0,.91,0,1.82,0,2.73a3.84,3.84,0,0,1-3.88,3.8c-1.84,0-3.69,0-5.53,0a3.84,3.84,0,0,1-3.87-3.82c0-1.81,0-3.63,0-5.44a3.85,3.85,0,0,1,3.88-3.81c1.8,0,3.6,0,5.4,0a3.86,3.86,0,0,1,4,4c0,.86,0,1.72,0,2.58"/><path class="cls-1" d="M145.21,34.7c0,.9,0,1.81,0,2.72a3.81,3.81,0,0,1-3.89,3.78c-1.84,0-3.69,0-5.53,0a3.83,3.83,0,0,1-3.84-3.57c-.1-1.94-.1-3.9,0-5.85a3.85,3.85,0,0,1,3.91-3.65c1.79,0,3.59,0,5.39,0a3.85,3.85,0,0,1,4,3.84c0,.91,0,1.82,0,2.73"/><path class="cls-1" d="M164,140.32c0,.82,0,1.63,0,2.45a3.88,3.88,0,0,1-3.84,4c-1.84.09-3.69.08-5.53,0a3.89,3.89,0,0,1-3.92-4.07c0-1.68,0-3.36,0-5a3.8,3.8,0,0,1,3.84-4c1.88-.06,3.78-.07,5.67,0A3.8,3.8,0,0,1,164,137.6c0,.91,0,1.81,0,2.72"/><path class="cls-1" d="M145.21,76.87c0,.91,0,1.82,0,2.72a3.82,3.82,0,0,1-3.85,3.82c-1.85,0-3.69,0-5.54,0a3.84,3.84,0,0,1-3.9-3.79c-.06-1.81-.06-3.63,0-5.44a3.89,3.89,0,0,1,4-3.84c1.75,0,3.5,0,5.26,0a3.86,3.86,0,0,1,4,4c0,.86,0,1.72,0,2.58"/><path class="cls-1" d="M119.8,83.42c-.88,0-1.75,0-2.63,0a3.88,3.88,0,0,1-4-3.81c-.08-1.81-.09-3.63,0-5.45a3.93,3.93,0,0,1,4-3.82c1.76,0,3.51,0,5.26,0a3.82,3.82,0,0,1,4,3.83c.07,1.86.07,3.72,0,5.58a3.75,3.75,0,0,1-3.85,3.66c-.92,0-1.84,0-2.76,0"/><path class="cls-1" d="M150.7,97.91c0-.9,0-1.81,0-2.72a3.71,3.71,0,0,1,3.42-3.65,51.74,51.74,0,0,1,6.35,0A3.71,3.71,0,0,1,164,95.37c0,1.73,0,3.45,0,5.17a3.84,3.84,0,0,1-3.82,4,51.07,51.07,0,0,1-5.67,0,3.88,3.88,0,0,1-3.8-4c0-.86,0-1.72,0-2.59"/><path class="cls-1" d="M119.87,133.71c1,0,1.94-.05,2.91,0a3.71,3.71,0,0,1,3.63,3.72c.07,1.81.06,3.63,0,5.44a3.86,3.86,0,0,1-3.93,3.91q-2.7.11-5.4,0a4,4,0,0,1-4-4c0-1.68,0-3.36,0-5a3.91,3.91,0,0,1,4.12-4c.87,0,1.75,0,2.62,0Z"/><path class="cls-1" d="M164,76.87c0,.91,0,1.82,0,2.72a3.82,3.82,0,0,1-3.86,3.82c-1.89,0-3.78,0-5.67,0a3.79,3.79,0,0,1-3.74-3.64c-.06-1.9-.06-3.81,0-5.72a3.8,3.8,0,0,1,3.71-3.68q2.91-.1,5.81,0A3.83,3.83,0,0,1,164,74.15c0,.91,0,1.81,0,2.72"/><path class="cls-1" d="M85.87,83.42c-1,0-1.94,0-2.9,0a3.64,3.64,0,0,1-3.68-3.23,44.34,44.34,0,0,1,0-6.52A3.68,3.68,0,0,1,83,70.35c1.75,0,3.5,0,5.25,0a4,4,0,0,1,4.22,4.07c0,1.63,0,3.26,0,4.89-.06,2.58-1.68,4.1-4.3,4.12-.78,0-1.56,0-2.35,0Z"/><path class="cls-1" d="M85.9,125.63c-1,0-2,0-3.05,0a3.57,3.57,0,0,1-3.55-3.19,45.77,45.77,0,0,1,0-6.52,3.72,3.72,0,0,1,3.87-3.35c1.75,0,3.5,0,5.26,0a3.93,3.93,0,0,1,4.1,3.9c.07,1.77.07,3.55,0,5.31a3.88,3.88,0,0,1-4.12,3.87c-.83,0-1.66,0-2.49,0Z"/><path class="cls-1" d="M85.92,91.46c.87,0,1.75,0,2.62,0a3.91,3.91,0,0,1,4,4c0,1.63,0,3.27,0,4.9a4,4,0,0,1-4.28,4.18c-1.61,0-3.22,0-4.84,0a3.92,3.92,0,0,1-4.21-3.94c-.09-1.81-.08-3.63,0-5.44A3.78,3.78,0,0,1,83,91.48c1-.07,1.94,0,2.91,0Z"/><path class="cls-1" d="M92.52,140.21c0,.86,0,1.73,0,2.59a4,4,0,0,1-4,4c-1.8.06-3.6.07-5.39,0a3.83,3.83,0,0,1-3.87-3.7,47.13,47.13,0,0,1,0-5.7,3.76,3.76,0,0,1,4-3.69c1.71,0,3.42,0,5.12,0a3.94,3.94,0,0,1,4.21,4.21c0,.77,0,1.54,0,2.31"/><path class="cls-1" d="M67.1,83.41c-1,0-2,0-3,0a3.73,3.73,0,0,1-3.59-3.48q-.12-3,0-6a3.78,3.78,0,0,1,3.67-3.57c1.93-.07,3.87-.07,5.8,0A3.84,3.84,0,0,1,73.71,74a54.38,54.38,0,0,1,0,5.71,3.84,3.84,0,0,1-4,3.7c-.88,0-1.75,0-2.63,0Z"/><path class="cls-1" d="M41.65,98c0-.91,0-1.82,0-2.72a3.68,3.68,0,0,1,3.5-3.71,51.47,51.47,0,0,1,6.21,0,3.76,3.76,0,0,1,3.57,3.81c0,1.72,0,3.45,0,5.17a3.89,3.89,0,0,1-3.8,4,51.25,51.25,0,0,1-5.68,0,3.84,3.84,0,0,1-3.82-4c0-.87,0-1.73,0-2.59"/><path class="cls-1" d="M41.66,140.21c0-1,0-1.91,0-2.86a3.7,3.7,0,0,1,3.46-3.6,58.66,58.66,0,0,1,6.36,0,3.73,3.73,0,0,1,3.46,3.76c0,1.73,0,3.45,0,5.18A3.89,3.89,0,0,1,51,146.78c-1.84.09-3.69.09-5.53,0a3.86,3.86,0,0,1-3.85-4c0-.86,0-1.72,0-2.58Z"/><path class="cls-1" d="M67.11,125.63c-1,0-1.94,0-2.91,0A3.74,3.74,0,0,1,60.46,122c-.07-1.9-.07-3.81,0-5.72a3.82,3.82,0,0,1,3.81-3.73c1.84,0,3.68,0,5.53,0a3.9,3.9,0,0,1,3.94,3.79c.07,1.81.06,3.63,0,5.44a3.88,3.88,0,0,1-4,3.85c-.88,0-1.75,0-2.63,0Z"/><path class="cls-1" d="M60.44,140.16c0-1,0-1.91,0-2.86a3.67,3.67,0,0,1,3.5-3.56c2.07-.1,4.15-.09,6.22,0a3.74,3.74,0,0,1,3.55,3.69c.08,1.85.09,3.72,0,5.58a3.92,3.92,0,0,1-4,3.77q-2.7.11-5.4,0a3.86,3.86,0,0,1-3.92-3.91c0-.91,0-1.82,0-2.72Z"/><path class="cls-1" d="M48.26,83.42c-.88,0-1.75,0-2.63,0a3.8,3.8,0,0,1-4-3.83c0-1.81,0-3.63,0-5.44a3.83,3.83,0,0,1,3.89-3.79c1.8,0,3.6,0,5.4,0a3.89,3.89,0,0,1,4,3.85c.05,1.82.05,3.64,0,5.45A3.84,3.84,0,0,1,51,83.41c-.92,0-1.85,0-2.77,0"/><path class="cls-1" d="M48.34,125.63c-1,0-1.94,0-2.9,0a3.79,3.79,0,0,1-3.78-3.75c0-1.86,0-3.72,0-5.58a3.81,3.81,0,0,1,3.8-3.73q2.84-.1,5.67,0a3.85,3.85,0,0,1,3.79,3.76c.06,1.81,0,3.63,0,5.45a3.85,3.85,0,0,1-4,3.85c-.87,0-1.75,0-2.63,0Z"/><path class="cls-1" d="M60.45,97.94c0-1-.05-2,0-3a3.54,3.54,0,0,1,3.21-3.38,52.74,52.74,0,0,1,6.77,0,3.7,3.7,0,0,1,3.29,3.77c0,1.77.06,3.54,0,5.31a3.94,3.94,0,0,1-4,3.92q-2.7.11-5.4,0a3.88,3.88,0,0,1-3.94-4c0-.87,0-1.73,0-2.59h0"/></svg>