<svg id="Layer_1" data-name="Layer 1" xmlns="http://www.w3.org/2000/svg" viewBox="0 0 200 200"><defs><style>.cls-1{fill:#41a6dd;}</style></defs><path class="cls-1" d="M135.62,57.79A7.57,7.57,0,0,0,128,53.51c-3.17.35-5.82,2.13-6.36,4.28ZM41.1,111.33a13.36,13.36,0,0,0-2.34-2.08,18.78,18.78,0,0,0-5.1-2.15c-3.13-.56-6.63,1.65-7.3,4.23Zm32,0a7.56,7.56,0,0,0-7.73-4.28,3.9,3.9,0,0,1-4.11-2,7.45,7.45,0,0,0-7.86-4c-3.64.4-6,2.65-7,6.08-.5,1.62-.92,3.18-3,4.12Zm25.62,7.57h-79a14.56,14.56,0,0,0-1.62,0,2.05,2.05,0,0,0-2,2.45c.14,1.45.93,1.89,3.35,1.89H177.55a13.11,13.11,0,0,0,1.78-.08,1.83,1.83,0,0,0,1.74-2c.05-1.63-.8-2.31-2.95-2.31H98.76M168.07,131H29.16c2.55,10,4.94,19.84,7.62,29.62a13.94,13.94,0,0,0,13.47,10.24q48.69,0,97.36-.06a14.73,14.73,0,0,0,6-1.48c4.58-2.16,6.89-6.07,8-11,2-9.1,4.25-18.16,6.43-27.36m8.71-19.68a33.63,33.63,0,0,1,4.12.26,9.75,9.75,0,0,1-1.6,19.28c-3.3.17-3.29.18-4.12,3.46-2.28,9.1-4.5,18.22-6.89,27.3-2.56,9.72-9.15,15.06-19.09,16.86.89,1.81,1.8,3.6,2.64,5.42a7,7,0,0,1,.68,2.29,4.18,4.18,0,0,1-2.6,4.09,3.7,3.7,0,0,1-4.13-2.16c-1.42-2.73-2.81-5.48-4.11-8.27a2.2,2.2,0,0,0-2.33-1.47q-39.18.06-78.37,0a2.19,2.19,0,0,0-2.33,1.46c-1.28,2.74-2.57,5.48-4.09,8.09a6,6,0,0,1-2.74,2.27A3.14,3.14,0,0,1,48.2,189a3.29,3.29,0,0,1-.42-3.79c1.07-2.17,2.16-4.33,3.31-6.65-1.77-.19-3.39-.23-4.93-.56-8.92-1.9-14.69-7.28-17-16.07-2.74-10.27-5.25-20.6-7.88-31-1.49-.09-3-.05-4.49-.28A9.33,9.33,0,0,1,8.57,121a9.49,9.49,0,0,1,8.23-9.56,2,2,0,0,0,1.32-1c3.42-9.27,12.12-13.22,21.33-9.62l1,.38a5.78,5.78,0,0,0,.6-.71c5.8-8.27,16.61-9.35,23.95-2.35a4.86,4.86,0,0,0,2.88,1.49c6.48.92,10.88,4.48,12.93,10.73.39,1.2,1.15,1,2,1h86.34c0-.7.11-1.33.11-2q0-29.69,0-59.39c0-11-7.38-19.13-18.26-20.35-8.53-1-15.57,4.16-17.91,13-.3,1.13-.49,2.3-.76,3.56A16.59,16.59,0,0,1,140,51a15.44,15.44,0,0,1,4,10.34c0,2.52-1.38,4-3.86,4q-11.76,0-23.53,0c-2.63,0-4.06-1.57-4-4.22a15.34,15.34,0,0,1,10.7-14.37,2,2,0,0,0,1.59-2c1.19-11.23,8.68-19.89,19.06-22.14,14.35-3.11,29.31,6.79,32.14,21.33a33.82,33.82,0,0,1,.61,6.27q.08,29.53,0,59.06Z"/><path class="cls-1" d="M120.33,87.05a19.1,19.1,0,0,1-.24,2.41,3.61,3.61,0,0,1-3.87,3,3.49,3.49,0,0,1-3.51-3.35,23.7,23.7,0,0,1,0-4,3.77,3.77,0,0,1,7.5-.09,14.84,14.84,0,0,1,0,2.11h.12"/><path class="cls-1" d="M136.52,86.93c0-.54,0-1.08,0-1.62a3.55,3.55,0,0,1,3.64-3.71A3.61,3.61,0,0,1,144,85.3c0,1.13,0,2.27,0,3.4a3.74,3.74,0,0,1-3.87,3.72,3.49,3.49,0,0,1-3.62-3.71c0-.59,0-1.19,0-1.78"/><path class="cls-1" d="M132.08,87c0,.59,0,1.19,0,1.78a3.69,3.69,0,0,1-3.72,3.69,3.59,3.59,0,0,1-3.77-3.6c0-1.18,0-2.38,0-3.56a3.63,3.63,0,0,1,3.88-3.67,3.57,3.57,0,0,1,3.61,3.74c0,.54,0,1.08,0,1.62"/><path class="cls-1" d="M112.65,99.43c0-2.78,1.41-4.43,3.77-4.45s3.85,1.68,3.85,4.55S119,104,116.4,104s-3.76-1.55-3.75-4.57"/><path class="cls-1" d="M112.65,74.17c0-2.83,1.36-4.42,3.74-4.45s3.9,1.64,3.87,4.65c0,2.84-1.36,4.35-3.83,4.34s-3.8-1.55-3.78-4.54"/><path class="cls-1" d="M136.52,99.48c0-3.39,2-5.15,5-4.28a3.92,3.92,0,0,1,.6.23c1.92,1,2.42,3.26,1.67,6.2-.48,1.84-2.34,2.71-4.43,2.31-1.91-.36-2.82-1.8-2.81-4.46"/><path class="cls-1" d="M132.09,99.45c0,2.68-.88,4.1-2.79,4.48-2.7.54-4.66-1.06-4.73-3.86s.63-4.22,2.36-4.83c2.9-1,5.15.81,5.16,4.21"/><path class="cls-1" d="M132.09,74.25c.3,3.36-2,4.79-4.48,4.41a2.68,2.68,0,0,1-.64-.12c-2.27-.92-3-3-2.13-6.39.5-2,2.77-2.92,4.88-2.22,1.66.55,2.37,1.84,2.37,4.32"/><path class="cls-1" d="M144,74.27c0,3.09-1.47,4.63-4.22,4.42a3.38,3.38,0,0,1-3.26-3.2,18.12,18.12,0,0,1,0-1.95c.05-2.37,1.44-3.8,3.68-3.82A3.62,3.62,0,0,1,144,73.46c0,.27,0,.54,0,.81"/></svg>