<svg id="Layer_1" data-name="Layer 1" xmlns="http://www.w3.org/2000/svg" xmlns:xlink="http://www.w3.org/1999/xlink" viewBox="0 0 200 200"><defs><style>.cls-1{fill:none;}.cls-2{clip-path:url(#clip-path);}.cls-3{fill:#46a7de;}</style><clipPath id="clip-path"><rect class="cls-1" x="9.4" y="11.25" width="180.26" height="180.13"/></clipPath></defs><g class="cls-2"><path class="cls-3" d="M176.42,101c0-42.81-33.77-76.56-76.51-76.64-43.6-.07-78.07,35.79-77.38,78.08.65,39.41,33.78,76.39,78.44,75.81,42.22-.54,75.73-35.59,75.45-77.25M99.74,11.25c48-.25,89.93,38.09,89.92,89.63,0,50.75-41.23,91.12-90.83,90.49-48.56-.62-89.67-40.55-89.43-90.69S51,11,99.74,11.25"/><path class="cls-3" d="M89.29,139a6.94,6.94,0,0,1-4.88-2.42c-7.86-7.69-15.53-15.57-22.87-23.75C59,110,59,107.21,61.33,104.66c3-3.18,5.53-3.66,8.69-1.11a190.41,190.41,0,0,1,14.2,13.2c1.5,1.48,2.71,2.5,4.25.13.77-1.19,1.57-.38,2.16.24,1.28,1.33,2.14,1,3.26-.34q14.44-17.31,29-34.52a21.26,21.26,0,0,1,4.82-4.74c3.1-1.92,5.81-1.64,8.06.89,2.54,2.87,2.68,5.28.27,8.22q-8.31,10.13-16.72,20.15-11.7,13.92-23.49,27.75c-1.75,2.05-3.32,4.52-6.54,4.51"/></g></svg>