<svg id="Layer_1" data-name="Layer 1" xmlns="http://www.w3.org/2000/svg" viewBox="0 0 200 200"><defs><style>.cls-1{fill:#41a6dd;stroke:#27aae1;stroke-linecap:round;stroke-linejoin:round;stroke-width:2px;}</style></defs><path class="cls-1" d="M110,102.13a5,5,0,0,0,4.74,4.79,4.86,4.86,0,0,0-.11-9.7,5,5,0,0,0-4.63,4.91M85,115.72c-.14,1.25-.8,2.74-.35,3.71,2.49,5.31,7,7.8,12.88,8.24,5.52-.52,10.11-2.82,12.48-8.27.43-1-.25-2.43-.42-3.67-.92.66-2.2,1.13-2.72,2-2.12,3.69-5.12,5.94-9.4,6s-7.57-2.13-9.67-6.07c-.47-.89-1.84-1.3-2.8-1.93m-9.71-13.53A4.91,4.91,0,0,0,80,106.93a4.87,4.87,0,0,0-.23-9.72,5,5,0,0,0-4.54,5m52.29-14c-.61-.83-1.05-2.16-1.83-2.41-8.08-2.59-13.47-8.1-17.11-15.5-1.31-2.65-2.36-2.45-4.46-.63a54.88,54.88,0,0,1-9.74,7c-7.66,4.14-15.82,6.72-24.68,6.74-.89,0-1.78,1-2.67,1.58.86.74,1.63,1.89,2.61,2.11a13.07,13.07,0,0,0,4.58-.07c11.57-1.59,22.14-5.63,31.52-13.28,1.71,2.32,3.21,4.6,5,6.66a26.78,26.78,0,0,0,13.82,8.81c.85.22,2-.62,3-1m15,17.59c-.15,4.31-2.95,7.44-7.66,8.43.28-5.69.55-11.34.83-17.23,4.58,1.3,7,4.49,6.83,8.8m-10.69-5.22c.62,13.65-4.16,25.14-16.12,32.75-11.16,7.1-23.08,7.5-34.7,1.23S63.37,118.07,62.91,104.8c-.31-8.9-.24-17.69,4.52-25.8,7.75-13.2,23.34-20,38-16.3a34.64,34.64,0,0,1,26.42,32.9c0,1.54,0,3.08,0,4.91m-72,13.62c-4.91-.9-7.63-4-7.63-8.73a7.9,7.9,0,0,1,6.74-8.27c.29,5.6.59,11.17.89,17m79-20.27c-2.74-1-3.64-2.52-4.12-5.17-3.9-21.29-25.93-35.26-46.8-29.49-16.83,4.66-26,16.28-28.84,33.31-.27.11-.58.26-.9.37C51.58,95.2,48,100,48.32,106c.36,6.33,4.48,10.64,11.3,12.32A6.06,6.06,0,0,1,63,121.14c7.33,13.54,18.66,21.13,34,21.26s27-7,34.25-20.66a6.65,6.65,0,0,1,5.13-3.95,12,12,0,0,0,9.81-10.7c.61-6-2-11.23-7.31-13.23"/></svg>