<svg id="Layer_1" data-name="Layer 1" xmlns="http://www.w3.org/2000/svg" viewBox="0 0 200 200"><defs><style>.cls-1{fill:#41a6dd;}</style></defs><path class="cls-1" d="M134.07,27.22H112.35c-1.17,6.05-4.7,10.17-10.37,9.92a14.78,14.78,0,0,1-8.71-3.32c-2.21-2-3-5.5-4-7.43-1.23.46-2.61,1.37-4,1.41-5.73.17-11.46.07-17.34.07v13h66.16Zm-75.9,16a8.32,8.32,0,0,0-1.47-.37c-3.6,0-7.19-.07-10.79-.06-6.52,0-7,.47-7,6.94q0,63.78,0,127.58c0,6.54.73,7.27,7.26,7.27H155.45c6.87,0,7.49-.62,7.49-7.49q0-63.56,0-127.11c0-1.09.38-2.46-.13-3.22-1-1.49-2.42-3.63-3.82-3.75-4.93-.46-9.93-.18-15.08-.18-.28,2.64-.51,4.9-.76,7.25H58.64c-.17-2.41-.32-4.56-.47-6.86m.18-9.75V18.55c6.22,0,12.1-.14,18,.06,3.07.11,4.9-.6,6.63-3.55a20.7,20.7,0,0,1,36,0c1.73,2.92,3.55,3.67,6.64,3.56,5.75-.22,11.51-.07,17.95-.07V33.48c5.51,0,10.33-.06,15.16,0,8,.12,13.56,5.64,13.57,13.63q.09,66.41,0,132.8c0,8.58-5.74,13.93-14.8,13.94q-46,.06-91.95,0c-7,0-14.08.05-21.12,0-9.34-.08-14.78-5.57-14.79-14.93q0-65.24,0-130.45c0-9.8,5.24-15,15.07-15,4.35,0,8.71,0,13.69,0"/><rect class="cls-1" x="90.45" y="111.82" width="64.75" height="8.86"/><rect class="cls-1" x="90.42" y="75.51" width="64.9" height="8.62"/><rect class="cls-1" x="90.46" y="148.34" width="64.93" height="8.87"/><path class="cls-1" d="M42.65,153.51l7-5.92,7,7.93,17-15.4L79.82,147l-24.08,22L42.65,153.51"/><path class="cls-1" d="M55.72,96,42.66,80.51l6.92-6,7.05,8,17-15.4,6.17,6.81L55.72,96"/><path class="cls-1" d="M42.65,117c2.54-2.14,4.65-3.94,7-6l6.87,8L73.7,103.61l6.12,6.84-24.1,22L42.65,117"/></svg>