<svg id="Layer_1" data-name="Layer 1" xmlns="http://www.w3.org/2000/svg" viewBox="0 0 200 200"><defs><style>.cls-1{fill:#46a7de;}</style></defs><path class="cls-1" d="M99.19,27.67c-41.95,0-75.68,34-75.75,76.25a75.18,75.18,0,0,0,75.29,75.74c42.36,0,76.8-33.33,76.69-75.89-.12-43.71-36.24-76.15-76.23-76.1m-1.12,165c-16.22.9-31.8-5.13-46.46-13.79-15.28-9-25.79-22.39-33.22-38.34a126.05,126.05,0,0,1-7.9-23.29,10.46,10.46,0,0,1-.22-2.37c0-4.08.21-8.16,0-12.22-1-15.87,4.22-30.15,12.1-43.36C35.64,37,55.12,22.57,80.51,16.54c16.94-4,33.49-1.66,49.59,4.3,21.58,8,37.91,22.1,48.4,42.67A87.31,87.31,0,0,1,187.68,97a86.64,86.64,0,0,1-15.48,57.51c-13.06,18.85-31.09,30.45-53.21,36.35-6.59,1.76-13,1.58-20.92,1.85"/><path class="cls-1" d="M136.34,72.9c-.08,2.27-1.63,4.44-3.51,6.29C127.61,84.36,122.27,89.4,117,94.48c-3,2.88-6,5.77-9,8.58-.82.76-.75,1.09,0,1.82q11.6,10.91,23.13,21.88a19.53,19.53,0,0,1,4.45,5.29c1.42,2.89,1.07,5.38-1.11,7.43-2.35,2.23-4.42,2.52-7.34.55-4-2.69-7-6.5-10.41-9.87-4.41-4.39-8.7-8.91-13-13.43-1.16-1.22-2.12-1.94-3.38-.18-.79,1.1-1.72,1.08-2.51,0-1.27-1.76-2.23-1-3.37.21q-9,9.57-18.18,19a22.62,22.62,0,0,1-5.68,4.73c-2.68,1.41-4.4,1.06-6.63-1.24-2.46-2.56-2.9-4.72-1.38-7.28,1.69-2.87,4.33-4.89,6.67-7.16q10.23-9.93,20.58-19.72c1.23-1.17.93-1.86-.15-2.86-8.24-7.68-16.42-15.41-24.35-23.4a17.2,17.2,0,0,1-2.42-3c-1.67-2.66-1.43-5,.57-7.21s4.34-2.64,7.15-1.34A15.19,15.19,0,0,1,75,70.64c7.89,7.93,15.82,15.81,23.65,23.79,1.33,1.36,2.06,1.38,3.33-.05,6.66-7.53,13.41-15,20.15-22.44a16.6,16.6,0,0,1,6.65-5c3.54-1.24,7.52,1.6,7.56,5.91"/></svg>