<svg id="Layer_1" data-name="Layer 1" xmlns="http://www.w3.org/2000/svg" viewBox="0 0 200 200"><defs><style>.cls-1{fill:#41a6dd;}</style></defs><path class="cls-1" d="M94,21.78c.28,3.87-1.39,8,2.52,11a1.12,1.12,0,0,1,.32.45c.68,1.54,1.85,1.69,3.29,1.22V21.78Zm3.15-10H86.87c-1.43,0-2.56.42-2.67,2.08-.1,1.44.82,2.24,2.69,2.25,6.77,0,13.55,0,20.32,0,1.46,0,2.73-.36,2.77-2.18,0-1.42-.9-2.14-2.78-2.16-3.36,0-6.72,0-10.07,0m-14,42a11.1,11.1,0,1,0-11-11.3,11,11,0,0,0,11,11.3m44,19.92a10.26,10.26,0,0,0-.11-1.42C125,63.5,119.86,57.5,111.36,54.45c-2.81-1-3.64-2.16-3.65-5.17,0-2.45.05-4.9,0-7.34,0-.55-.6-1.52-1-1.54-2.29-.15-4.59-.08-6.88-.08a4,4,0,0,0-.11.75A16.69,16.69,0,0,1,77.09,58.33a2.51,2.51,0,0,0-2.06.5A22.07,22.07,0,0,0,67.75,70c-.32,1.15-.54,2.33-.86,3.73,2.37,0,4.44,0,6.5,0s3.42,1.08,3.45,2.73-1.35,2.85-3.53,2.87-4.23,0-6.45,0c0,.82-.09,1.42-.09,2V182.6c0,4.49,1.86,6.32,6.37,6.32h48a13,13,0,0,0,1.65,0c2.19-.28,4.19-1.65,4.31-3.63.23-4.05.07-8.13.07-12.39H125c-8.91,0-17.82,0-26.73,0-5.11,0-8-2.85-8-7.91q0-28.29,0-56.58c0-5.06,3-8,8-8h27.11c.64,0,1.29,0,1.94-.08V79.36H88.5a12.4,12.4,0,0,1-1.83,0,2.71,2.71,0,0,1-2.48-2.89,2.55,2.55,0,0,1,2.54-2.61,19.2,19.2,0,0,1,2-.06h38.35Zm5.9,84.3v27.56a42.52,42.52,0,0,1-2.17,4.51c-1.44,2.31-3.84,3.35-6.26,4.31H69.62a6.39,6.39,0,0,0-.78-.4,10.62,10.62,0,0,1-7.61-10.48q0-53.62,0-107.25a27.37,27.37,0,0,1,5.35-16.46c1.39-1.89,3-3.59,4.57-5.4-5-5.88-6.37-12.44-2.7-19.35,4.22-7.94,11.25-10.21,19.79-8.44v-5c-.89,0-1.67.05-2.44,0a7.82,7.82,0,0,1-7.29-7.77,7.66,7.66,0,0,1,7.61-7.59q11,0,22,0a7.65,7.65,0,0,1,2,15,32.84,32.84,0,0,1-4.13.58V25h10.11c0-.4,0-.64.06-.88.15-1.95,1.31-3.17,2.91-3.07s2.58,1.29,2.59,3.17c0,3.06,0,6.13,0,9.19a2.61,2.61,0,0,1-2.69,2.64,2.69,2.69,0,0,1-2.76-2.6c-.07-.83,0-1.67,0-2.49H105.93v3.59c.32,0,.55.08.79.1,4.26.33,6.47,2.74,6.48,7.05,0,1.9.07,3.8,0,5.7a2.06,2.06,0,0,0,1.55,2.37A28.17,28.17,0,0,1,131.89,69c.43,1.5.74,3,1.1,4.57V147c-1.81,2.11-3.78,2.46-4.94.7a5.22,5.22,0,0,1-.61-2.77q-.06-18.36,0-36.73v-2.08a4.71,4.71,0,0,0-.8-.19c-9.52,0-19,0-28.56,0-1.85,0-2.19,1-2.18,2.61q0,28.11,0,56.21c0,2.27.27,2.52,2.54,2.52h27.1c.59,0,1.17-.07,1.89-.11,0-2.8,0-5.42,0-8,0-2,1.44-3.3,3.16-2.82.89.25,1.6,1.15,2.39,1.75"/></svg>