<svg id="Layer_1" data-name="Layer 1" xmlns="http://www.w3.org/2000/svg" viewBox="0 0 200 200"><defs><style>.cls-1{fill:#41a6dd;}</style></defs><path class="cls-1" d="M102.72,69.76c3.83,3.14,16.12,3,18.73-.08-4.08-2.84-14.51-2.85-18.73.08M87.9,86.43C87,78.67,83.39,73,76.52,69.83,69.13,66.39,62,67.39,55.69,72.44a18.39,18.39,0,0,0-7.15,13.93c3.31.34,3.31.34,4-2.4a16.09,16.09,0,0,1,30.65-2.16c.57,1.47.89,3,1.34,4.62Zm-32-.07H80.4c-.26-6.2-5.94-11.2-12.45-11.12-6.28.08-11.84,5.18-12,11.12m46.24-12.27c-.29,4.21-.58,8.17-.86,12.27H123c-.31-4.15-.6-8.12-.91-12.27a31.89,31.89,0,0,1-19.91,0m76.18,20H20v4.55H178.36ZM141,86.52c.53-2.24.26-3.55-1.94-4.59a8.19,8.19,0,0,1-3.69-4.13c-1.47-3.81-.48-7.87-.72-11.85h3.67c0,2.91,0,5.73,0,8.55a4,4,0,0,0,3.05,4.3V65.92h3.52V78.79l.48.18c.56-.6,1.33-1.11,1.62-1.82a10.77,10.77,0,0,0,.79-3.54c.12-2.55,0-5.11,0-7.63h3.51c0,3.45.22,6.79-.07,10.09a7.66,7.66,0,0,1-4.33,6.1c-2.21,1.2-2.46,1.73-1.68,4.35,4.41,0,8.85-.07,13.29,0,1.65,0,2.1-.49,2.08-2.1-.07-7.53-.09-15.07,0-22.6,0-1.82-.38-2.4-2.33-2.4q-58.63.09-117.26,0c-.62,0-1.24,0-1.85,0-1.24-.11-1.59.46-1.57,1.63.06,3,0,6.05,0,9.08,0,4.88,0,9.75.05,14.63,0,.56.52,1.55.89,1.59a35.93,35.93,0,0,0,4.52.08C44.82,70.39,57,63.38,66.3,62.82a24.62,24.62,0,0,1,16.41,4.6c6.45,4.65,9.73,11.12,10.47,19.1a26.79,26.79,0,0,1,2.71,0c1.33.14,1.81-.32,1.88-1.72.25-4.68.82-9.35,1-14a5.15,5.15,0,0,1,3.71-5.15,28.12,28.12,0,0,1,6.45-1.5c4.58-.46,9.14-.28,13.43,1.69a4.9,4.9,0,0,1,3.18,4.55c.22,4.8.66,9.6,1,14.4.06.86,0,1.76,1.3,1.75,4.38,0,8.75,0,13.18,0M99.06,52.06h0q29.72,0,59.44,0c1.59,0,2.15-.35,2.12-2-.1-5.75-.08-11.49,0-17.23,0-1.55-.5-2-2-2q-59.55.06-119.09,0c-1.41,0-1.94.34-1.92,1.86.09,5.68.13,11.36,0,17,0,2,.58,2.34,2.4,2.33,19.69-.06,39.38,0,59.08,0M20.87,106.22a12.11,12.11,0,0,0,.15,1.21q7.79,34.63,15.56,69.29c.32,1.44.92,1.81,2.34,1.8q59.93-.06,119.87,0c1.93,0,2.61-.54,3-2.37q7.08-31.86,14.3-63.71c.45-2,.87-4,1.34-6.24Zm165-19.7c.19,8.88.14,17.4-1.89,26-5.46,23-10.46,46-15.63,69.08-.78,3.49-2,4.48-5.65,4.48H35.58c-3.6,0-4.83-.94-5.59-4.33q-8.67-38.61-17.33-77.22a4.71,4.71,0,0,1-.17-.91c0-5.6,0-11.2,0-17h2c4.45,0,8.9-.09,13.34,0,1.83.06,2.41-.39,2.4-2.33-.07-18.16,0-36.31,0-54.46,0-.68,0-1.36,0-2,.08-2.7,1.57-4.19,4.28-4.29,1,0,2.1,0,3.15,0H162.49c4.4,0,5.57,1.18,5.57,5.62V83.69c0,2.83,0,2.83,2.75,2.83h15"/><path class="cls-1" d="M73.12,118.15v-5.79h42c2.83,0,5.66,0,8.49,0,.9,0,1.42.26,1.41,1.23,0,1.47,0,2.94,0,4.57Z"/><path class="cls-1" d="M83.44,36.54A4.66,4.66,0,0,1,88,41.38a4.55,4.55,0,0,1-4.73,4.43A4.45,4.45,0,0,1,78.75,41a4.58,4.58,0,0,1,4.69-4.48"/><path class="cls-1" d="M123.52,41.29a4.6,4.6,0,0,1-4.81,4.51,4.45,4.45,0,0,1-4.48-4.61,4.6,4.6,0,0,1,4.68-4.65,4.67,4.67,0,0,1,4.61,4.75"/><path class="cls-1" d="M100.7,45.82A4.65,4.65,0,0,1,96,41.18a4.78,4.78,0,0,1,4.56-4.65,4.69,4.69,0,0,1,4.8,4.59,4.63,4.63,0,0,1-4.64,4.7"/></svg>