<svg id="Layer_1" data-name="Layer 1" xmlns="http://www.w3.org/2000/svg" viewBox="0 0 200 200"><defs><style>.cls-1{fill:#44a7de;}.cls-2{fill:#43a7de;}</style></defs><path class="cls-1" d="M143.92,151.58a2.14,2.14,0,0,1,.15,1.25c0,10.48,0,21,0,31.43,0,1.18-.3,1.49-1.48,1.49q-56.93-.06-113.86,0c-5.43,0-10.85,0-16.27.06-1,0-1.31-.2-1.31-1.26q.06-33.39,0-66.78l0-86.47c0-5.74.06-11.49,0-17.24,0-1.26.43-1.44,1.53-1.44q41.42,0,82.81,0c7.13,0,14.27,0,21.4,0a6.38,6.38,0,0,1,5,2c3.62,3.73,7.36,7.35,11.09,11,2.95,2.86,5.95,5.65,8.91,8.49.7.68,1.32,1.44,1.95,2.18a2.07,2.07,0,0,1,.37,1.51c-.3,6.52-.13,13-.16,19.56,0,1,0,1.41-1.17.81a41.68,41.68,0,0,0-7.95-3.41c-.73-.2-.61-.76-.61-1.28,0-3.3,0-6.6,0-9.9,0-2-.6-2.61-2.63-2.61-5.13,0-10.27,0-15.41,0-1.15,0-1.41-.37-1.4-1.46.06-4.93,0-9.87,0-14.8,0-1.63-.22-1.86-1.8-1.87-3,0-5.89-.52-8.87-.46-21.64.4-43.29.13-64.93.15-5,0-10-.11-15-.12a4.62,4.62,0,0,0-2.26.43,2.26,2.26,0,0,0-1,2.3Q21,31.57,21,38q0,62.93,0,125.85c0,3,0,6.11,0,9.17,0,2.14.8,2.95,3,3,5.26,0,10.53.14,15.78,0,6.24-.19,12.47-.1,18.7-.11q34.8,0,69.59,0c1.46,0,2.91.36,4.38,0s1.92-.84,1.93-2.23c0-5.18,0-10.36,0-15.53,0-.53,0-1.06,0-1.59a.94.94,0,0,1,.72-1c3-.71,5.61-2.39,8.36-3.69C143.55,151.71,143.74,151.65,143.92,151.58Z"/><path class="cls-2" d="M70.87,104.83c-.54-25.43,21-47.34,47.16-47.16a47.1,47.1,0,0,1,47.13,47.94c-.29,23.88-19.8,47.6-50.22,46.51C93.89,151.37,70.12,131.35,70.87,104.83Zm46.72-36.78a36.84,36.84,0,1,0,37.23,37.38C155.31,84.19,136.49,67.41,117.59,68.05Z"/><path class="cls-2" d="M194.88,178.05c-.14.16-.32.39-.52.58-2,1.93-4,3.88-6.11,5.77-.7.63-1.28,1.36-1.94,2-.44.45-.78.71-1.36.08-1.57-1.69-3.24-3.29-4.84-5-2.92-3.05-5.82-6.13-8.74-9.18-3.91-4.09-7.85-8.14-11.76-12.23-2.84-3-5.63-6-8.47-8.93-.4-.42-.42-.64,0-1.05q4.2-4,8.35-8.07c.43-.41.72-.51,1.19,0,3.79,4,7.59,7.93,11.39,11.89,2.65,2.75,5.31,5.5,8,8.25,4,4.17,8,8.37,12,12.52a33.12,33.12,0,0,1,2.52,2.64C194.67,177.55,194.91,177.68,194.88,178.05Z"/><path class="cls-1" d="M52.8,123.38c4.36,0,8.72,0,13.08,0,1.67,0,2.2.29,2.86,1.89.43,1.06.78,2.15,1.24,3.18a18,18,0,0,0,1.1,1.9c.17.3.68.5.44.89s-.67.16-1,.17c-2.89,0-5.78-.1-8.67-.12-7,0-14.09.08-21.14.11a11.92,11.92,0,0,1-2.06-.16,3.62,3.62,0,0,1-3.38-3.91c.17-2.4,1.55-3.85,3.86-3.9,2.93-.06,5.87,0,8.8,0H52.8Z"/><path class="cls-1" d="M68.94,69.4c-.07,2.6-1.47,4.07-4.32,4-3.34-.12-6.66.25-10,.11s-6.57-.21-9.85-.17c-1.46,0-2.92,0-4.37,0-3.17.06-4.2-2.68-3.68-5a3.71,3.71,0,0,1,4.36-3,27.72,27.72,0,0,0,5,0c1-.07,2,.15,2.91.1,3.33-.18,6.65,0,10-.1,2.14-.07,4.3.06,6.45,0S68.93,67.14,68.94,69.4Z"/><path class="cls-1" d="M52.86,49.77c4.07,0,8.14,0,12.22,0a3.49,3.49,0,0,1,3.8,2.9,4.48,4.48,0,0,1-2.09,4.71,3.62,3.62,0,0,1-1.56.21c-6.06.39-12.12-.12-18.18,0-2.16.05-4.32,0-6.48,0a3.7,3.7,0,0,1-3.76-2.38,4.59,4.59,0,0,1,1-4.74,3.83,3.83,0,0,1,2.65-.71H52.86Z"/><path class="cls-1" d="M51.24,98.21c-4.07,0-8.15-.06-12.22,0a3.48,3.48,0,0,1-3.28-1.87,4,4,0,0,1,2.5-6,9.82,9.82,0,0,1,1.94-.25c6.75,0,13.5,0,20.25.07,1.75,0,3.49,0,5.23-.08.83,0,1.16.15.9,1.12a31.58,31.58,0,0,0-1.3,6.31c-.05.85-.7.64-1.18.64H51.24Z"/><path class="cls-1" d="M51.48,114H39.14a3.64,3.64,0,0,1-3.57-2.44c-.63-2-.12-4.07,1.33-5a4.89,4.89,0,0,1,2.84-.53l21.13,0c1,0,2,0,2.93,0,.69,0,1,.21.93.91a24.72,24.72,0,0,0,.52,6.06c.17.81-.12,1.06-1,1.06C60,114,55.75,114,51.48,114Z"/><path class="cls-1" d="M103.72,156.65a4,4,0,0,1-.46,0c-5.94,0-11.89,0-17.83,0-2.21,0-3.58-1.64-3.55-4.06,0-2,1.35-4,3.66-3.81a6.69,6.69,0,0,1,3.56,1.09,43.19,43.19,0,0,0,13.79,6.28,5.74,5.74,0,0,1,.69.26S103.66,156.54,103.72,156.65Z"/><path class="cls-1" d="M99.55,106.06h10.87a3.54,3.54,0,0,1,3.8,3.82A3.81,3.81,0,0,1,110.4,114c-6.44,0-12.87,0-19.3,0A6.77,6.77,0,0,0,89,114c-.54.16-.64-.27-.78-.7a25.26,25.26,0,0,1-1-6.23c0-.83.28-1,1.06-1C92.05,106.08,95.8,106.06,99.55,106.06Z"/><path class="cls-1" d="M100,98.21c-3.67,0-7.33,0-11,0-.91,0-1.14-.22-.85-1.11A39.2,39.2,0,0,1,90.62,91,1.35,1.35,0,0,1,92,90.15c2.68.07,5.37.15,8,.13,2.88,0,5.77,0,8.65-.1a9.43,9.43,0,0,1,2.31.16,3.65,3.65,0,0,1,3.11,2.9,4.31,4.31,0,0,1-1.56,4.48,2.59,2.59,0,0,1-1.72.49Z"/><path class="cls-1" d="M93.25,123.41h16.44a5.39,5.39,0,0,1,1.9.41,4,4,0,0,1,1.48,6.64,3.78,3.78,0,0,1-2.82.94c-2.48,0-5,0-7.45,0a3.51,3.51,0,0,1-2-.72,35.37,35.37,0,0,1-7.23-6.7A3.32,3.32,0,0,1,93.25,123.41Z"/></svg>