<svg id="Layer_1" data-name="Layer 1" xmlns="http://www.w3.org/2000/svg" viewBox="0 0 200 200"><defs><style>.cls-1{fill:#41a6dd;}</style></defs><path class="cls-1" d="M18.07,100.34c0,45.64,37.3,83,82.9,83a83,83,0,1,0-82.9-83m-6-4c.17-1.86.33-3.73.52-5.58A86.94,86.94,0,0,1,26.36,52a88.82,88.82,0,0,1,79.39-40.49,86.89,86.89,0,0,1,47.93,17,87.61,87.61,0,0,1,33.86,50.59,84.71,84.71,0,0,1,2.32,27.56c-2,24.74-12.36,45.31-31.16,61.53a85.51,85.51,0,0,1-39.33,19.23c-4.34.89-8.8,1.18-13.2,1.75-.36,0-.72.1-1.07.16h-8c-1.86-.18-3.73-.33-5.59-.53a87,87,0,0,1-29.15-8.3,88.89,88.89,0,0,1-49.74-70.59c-.19-1.86-.35-3.72-.52-5.58Z"/><path class="cls-1" d="M71.42,103.7a11.87,11.87,0,1,1-11-12.24,11.89,11.89,0,0,1,11,12.24"/><path class="cls-1" d="M142.7,91.45a11.86,11.86,0,1,1-11.95,11.82A11.89,11.89,0,0,1,142.7,91.45"/><path class="cls-1" d="M112.94,103.33a11.84,11.84,0,1,1-11.76-11.88,11.84,11.84,0,0,1,11.76,11.88"/></svg>