<svg id="Layer_1" data-name="Layer 1" xmlns="http://www.w3.org/2000/svg" viewBox="0 0 200 200"><defs><style>.cls-1{fill:#41a6dd;}</style></defs><path class="cls-1" d="M97,164.94l.69.21c11.33-26.85,22.66-53.69,34.06-80.73-7.56,0-14.75,0-21.94,0-4.42,0-5.52-1-5.24-5.5.7-11.27,1.57-22.52,2.33-33.78.29-4.23.47-8.47.7-12.7l-.49-.13L69.51,107.17c8.65,0,16.76,0,24.87,0,3.29,0,5.05,1.56,5,4.52-.09,4.42-.35,8.83-.55,13.24q-.91,20-1.84,40m16.14-88.78h21c1.13,0,2.27,0,3.4,0,4,.14,5.58,2.5,4.06,6.2-3.3,8-6.7,16-10.08,24q-17.43,41.22-34.83,82.44c-1,2.43-2.18,4.62-5.27,4s-3.58-3-3.47-5.67c.76-17.75,1.6-35.51,2.28-53.26.22-5.93,0-11.86,0-18.18H87.41c-8,0-16,0-24.06,0-4.14,0-5.94-2.84-4.1-6.54Q72.61,82.4,86.08,55.61c7.56-15.07,15.17-30.12,22.7-45.22C110,8,111.33,5.86,114.32,6.78s3.2,3.46,3,6.29c-.82,9.82-1.47,19.65-2.13,29.48q-1.07,15.83-2,31.65c0,.59,0,1.2,0,2"/><path class="cls-1" d="M83.87,22.93a3.79,3.79,0,0,1,4,3.45,4,4,0,0,1-3.06,4.69c-3.39,1.12-6.93,1.86-10.21,3.24C50.65,44.41,35.78,62.37,31.34,87.8c-5.94,34.07,12.76,64.92,42.77,77.37,3.92,1.63,5.13,5,2.34,7.21a5.53,5.53,0,0,1-4.67.72c-25.9-10.92-42.46-30-48-57.61-5.89-29.18,2.91-54,24.42-74.4,9.39-8.89,20.71-14.53,33.2-17.81a21.2,21.2,0,0,1,2.5-.35"/><path class="cls-1" d="M178.61,100.08a78.89,78.89,0,0,1-56,75.29c-3.69,1.11-5.86.27-6.66-2.58-.69-2.44.71-4.14,4.13-5.3,28.31-9.66,45.49-29.27,49.61-58.8,4.19-30.11-11.26-58.26-38.3-72-.73-.37-1.49-.7-2.19-1.11-2.38-1.4-3.12-3.52-2-5.7s3.19-2.88,5.72-1.73A76.77,76.77,0,0,1,160.07,48.9a78.37,78.37,0,0,1,18.54,51.18"/></svg>