<svg id="Layer_1" data-name="Layer 1" xmlns="http://www.w3.org/2000/svg" viewBox="0 0 200 200"><defs><style>.cls-1{fill:#41a6dd;}</style></defs><path class="cls-1" d="M73.49,83.45c0-5.88,0-12,0-18.12,0-2.17-1-3.09-3.06-3.08-7.19,0-14.38-.09-21.57.11-1,0-2.88,1.44-2.91,2.27-.26,6.07-.14,12.16-.14,18.82Zm10.71,2c0-6.86.07-13.52,0-20.19,0-3.09,0-6,3.35-7.43-1.15-3-2.35-5.6-3.17-8.34a10.64,10.64,0,0,0-5.89-6.81C73.1,39.94,68,36.67,62.63,34a6.73,6.73,0,0,0-5.3-.07c-6.18,3.14-12.18,6.63-18.18,10.12a6.53,6.53,0,0,0-2.55,2.74c-1.57,3.58-2.89,7.27-3.83,9.7,5.17,9.15,1.36,18.29,3.17,26.73,2.63.86,3.38-.31,3.33-2.86q-.17-7.67,0-15.33c.13-6,3.38-9.19,9.31-9.26q11-.12,22,0c6.3,0,9.6,3.41,9.67,9.78.06,5.5.15,11,0,16.5-.09,2.63,1,3.51,4,3.38m-9.72,6.23c5.42,3.33,11,6.49,16.24,10,20.59,13.7,39,29.65,52.16,51,1.85,3,3.45,6.16,5.15,9.25,1.26,2.29.7,4.44-1.62,5.1-1.13.33-3.54-.92-4.16-2.09-19-35.84-50.12-57.62-85.67-74.29-2.41-1.13-5.49-.85-8.44-.48C52.43,93.67,56.86,97,61,100.76c19.81,17.81,32.7,40,40.74,65.15.76,2.37,1.15,4.56-1.78,5.41s-3.86-1.13-4.62-3.51c-7.12-22.3-18-42.45-35.21-58.61C53.5,103,45.7,98,38.37,92.52a9.1,9.1,0,0,0-9.8-.9,107.91,107.91,0,0,1,21.27,31.84c6.55,14.94,9.56,30.67,10.73,46.82.16,2.32.25,4.8-2.89,5s-3.76-2.14-3.9-4.72c-1-18.12-5-35.45-13.49-51.61A90.32,90.32,0,0,0,22.45,95.18c-2.09-2-4.06-2.51-6.64-1.53-1.6.6-3.24,1.07-4.87,1.52-2.4.66-4.56-.11-4.82-2.52C6,91.5,7.76,89.4,9.07,89c6.33-2,12.81-3.57,19.59-5.39v-18c-5.22-2.51-4.85-2.89-3.38-8.64,3.14-12.31,10.55-20,22-25.44,14.36-6.8,10.64-6.84,25.29.09,11.7,5.53,18.91,13.54,22.05,25.9,1.27,5,1.25,6.07-3.89,8.07,0,6.43-.09,13,.1,19.49,0,1,1.39,2,2.15,3,.06.08.26,0,.38.09,8.07,3.71,15,3.59,23.37-1.55,14.83-9.13,32-11,49.29-10.52,4.19.11,8.37.5,12.55.78,2.47.16,4.08,1.45,3.87,4-.23,2.67-2.34,2.73-4.45,2.52-12.59-1.26-25.14-1.12-37.57,1.53A75.6,75.6,0,0,0,114.34,95.3c4.33,2.07,8.11,4,12,5.62a4.85,4.85,0,0,0,3.79-.69c16.36-10.51,34.61-14.5,53.69-15.67,2.32-.15,4.07.7,4.08,3.12s-1.76,3.43-4.23,3.57c-15.74.87-30.81,4.37-44.84,11.81-1.24.66-2.44,1.41-4.09,2.37l13.8,9.18c9.47-10,21.18-16.41,34.24-20.52,1-.31,2-.63,3-.93,2.23-.66,4.3-.6,5.14,2s-.93,3.8-3.12,4.49c-2,.63-4,1.14-6,1.84A73.39,73.39,0,0,0,154,118.78c1.12,1,2.1,2,3.13,2.9a124.64,124.64,0,0,1,24.29,28.18c1.3,2.06,2.28,4.06-.37,5.71-2.42,1.5-3.89,0-5.11-2-17.81-28.47-44.25-45.47-75.33-56.09-8.37-2.86-17-4.83-25.57-7.21l-.52,1.35"/></svg>