<svg id="Layer_1" data-name="Layer 1" xmlns="http://www.w3.org/2000/svg" viewBox="0 0 200 200"><defs><style>.cls-1{fill:#44a7de;}</style></defs><path class="cls-1" d="M100.62,157H43l-26.62,0c-2.27,0-4.37-.5-5.9-2.38a2.61,2.61,0,0,1-.64-1.74q0-35.08,0-70.16a2.05,2.05,0,0,1,.5-1.41c2.21-2.69,4.66-5.15,7-7.69,9.83-10.51,19.53-21.13,29.77-31.23a3.13,3.13,0,0,1,2.39-1q51.29,0,102.56,0a3.14,3.14,0,0,1,2.25.83c3.75,3.32,6.91,7.2,10.4,10.77S171.61,60.3,175,63.93c4.76,5.07,9.51,10.14,14.3,15.18a9.34,9.34,0,0,1,2.4,6.7c0,1.63-.13,3.27-.13,4.9q0,29.87,0,59.73a12.48,12.48,0,0,1-.22,3,3.89,3.89,0,0,1-3.68,3.36,24.84,24.84,0,0,1-3.1.21ZM18.77,117h0c0,9.91,0,19.82,0,29.73,0,1.13.34,1.47,1.5,1.47q29.27-.06,58.52,0c1.3,0,1.48-.42,1.47-1.55q-.06-20.08,0-40.17c0-2.59,0-5.19.17-7.78a41,41,0,0,0-.28-8.85,22.84,22.84,0,0,0-7.46-13.3c-8-7.44-15-15.79-22.5-23.73-.66-.7-.9-.57-1.44,0-3.18,3.43-6.39,6.83-9.58,10.24Q29.9,73,20.65,82.91a6.5,6.5,0,0,0-1.89,4.63Q18.79,102.29,18.77,117ZM136,87.76q-22.72,0-45.46,0c-1.1,0-1.42.29-1.42,1.4q.06,28.86,0,57.7c0,1.07.22,1.42,1.36,1.41,8.6-.05,17.2,0,25.8,0,1.87,0,1.62.23,1.62-1.68,0-11.88,0-23.75,0-35.63,0-3.72,1.67-5.35,5.39-5.38q12.59-.06,25.19,0c3.63,0,5.11,1.53,5.12,5.14q.06,18.12,0,36.23c0,1,.23,1.35,1.31,1.34q13.14-.08,26.28,0c1.17,0,1.44-.32,1.43-1.46q0-28.73,0-57.46c0-1.56,0-1.56-1.56-1.56ZM59.49,50c.49.58.77,1,1.1,1.31C68.38,59.6,76.23,67.79,84,76.1a7.81,7.81,0,0,0,6.24,2.6q40.61-.06,81.2,0c1.65,0,3.31-.2,4.94-.31,0-.47-.23-.61-.41-.8L164.61,65.48c-3.77-4-7.62-8-11.25-12.12A9.09,9.09,0,0,0,146,50c-11.6.09-23.19.06-34.78.06H59.49Zm85.25,81.48c0-5.28,0-10.55,0-15.82,0-.85-.17-1.2-1.11-1.19-5.23,0-10.47,0-15.71,0-.89,0-1.15.24-1.15,1.15q0,15.71,0,31.41c0,1,.35,1.17,1.24,1.16,5.15,0,10.31,0,15.46,0,1,0,1.29-.24,1.28-1.26C144.71,141.83,144.74,136.67,144.74,131.52Z"/><path class="cls-1" d="M40.34,112.29c-.32,2.9.22,5.81-.15,8.71A4.26,4.26,0,0,1,36,124.92,4.2,4.2,0,0,1,31.73,121a67.74,67.74,0,0,1,0-11.83,4.29,4.29,0,0,1,4.2-3.7,4.19,4.19,0,0,1,4.2,3.68A16.1,16.1,0,0,1,40.34,112.29Z"/><path class="cls-1" d="M67.26,115.25c0,1.68,0,3.36,0,5-.05,2.78-1.86,4.67-4.41,4.64s-4.18-2-4.23-4.71c-.06-3.34-.09-6.68,0-10,.07-2.66,1.85-4.64,4.29-4.67a4.36,4.36,0,0,1,4.35,4.59C67.29,111.82,67.26,113.54,67.26,115.25Z"/><path class="cls-1" d="M99.18,115.2c0-1.8-.05-3.6,0-5.39.13-4.31,4.41-4.94,6.76-3.59a3,3,0,0,1,1.61,2.39,70.55,70.55,0,0,1,0,13.16c-.17,1.71-1.48,2.83-3.45,3.1a4.33,4.33,0,0,1-4.42-2.2,5.33,5.33,0,0,1-.51-2.2C99.18,118.71,99.18,117,99.18,115.2Z"/><path class="cls-1" d="M164,115.09c0-1.71,0-3.43,0-5.15a4.27,4.27,0,0,1,4.24-4.43,4.49,4.49,0,0,1,4.35,4.29c.07,3.59.06,7.19,0,10.78a4.28,4.28,0,1,1-8.56-.21l0-2.64v-2.64Z"/></svg>