<svg id="Layer_1" data-name="Layer 1" xmlns="http://www.w3.org/2000/svg" viewBox="0 0 200 200"><defs><style>.cls-1{fill:#41a6dd;}</style></defs><path class="cls-1" d="M62.8,177.2c-.63,5.27,1.79,8.45,6.43,8.46q27.51.08,55,0c4.65,0,7.29-3.66,6.19-8.44-6.34,2.67-13,2.27-19.66,2.27-10.11,0-20.22,0-30.33,0-5.93,0-11.85,0-17.65-2.3M75,42.59h43.33V40.86q0-12.47,0-24.93c0-3.16-1-4.2-4.26-4.21h-16c-6.36,0-12.72,0-19.08,0-2.82,0-4,1.18-4,4,0,1.82,0,3.64,0,5.46V42.59m71.28,68.08c0-9.21,0-18.43,0-27.65a99,99,0,0,0-.39-10.34c-1.37-12.34-13.19-23.31-25.56-23.48-15.14-.2-30.28-.11-45.42-.08a26,26,0,0,0-6.1.68C55.55,53.05,47.08,63.91,47.06,77.7c-.05,22.2-.08,44.39.06,66.59a30.8,30.8,0,0,0,1.64,10c4.27,12,14.22,18.94,27,19,13.93.07,27.85,0,41.78,0a27.75,27.75,0,0,0,19.55-7.37c6.31-5.84,9.19-13.19,9.18-21.73V110.67M76.12,5.52h41.07c5.81,1.9,7.68,6.14,7.54,11.94-.2,8,0,16-.09,24,0,1.54.49,2,1.94,2.36,14.48,3.31,25.7,16.84,25.83,31.71.2,23.16.12,46.34.09,69.5,0,10.4-3.85,19.26-11.81,25.9a9.06,9.06,0,0,0-3.69,8c.07,7.36-5.14,12.87-12,12.9q-28.35.12-56.7,0c-4.57,0-8-2.36-10.36-6.31-1.76-3-1.71-6.26-1.6-9.53a3.58,3.58,0,0,0-1.62-3.32c-9-6.77-13.76-15.87-13.83-27.11-.15-23.11-.25-46.22,0-69.33.16-13,6.41-22.76,17.66-29.14,3.11-1.77,6.64-2.77,10.17-4.2V41.17c0-8.49,0-17,0-25.48,0-3.29.9-6.12,3.58-8.13a28,28,0,0,1,3.78-2"/><path class="cls-1" d="M77,122.57c-4.55,6.74-1.22,17,6.47,20.19a35.53,35.53,0,0,0,23.65,1.07c6.78-1.88,10.74-6.42,11.19-12.32.5-6.49-1.23-12.42-5.7-17.07s-9.36-8.59-14.12-12.79c-4.06-3.56-7.72-7.36-8.62-13.36-.25.41-.35.56-.44.72-3.65,6.47-4.51,12.86-.14,19.5A18.49,18.49,0,0,1,92.18,116c.72,5.33-2.35,9.41-7.78,9.63A9.4,9.4,0,0,1,77,122.57m19.75,29.24a44.68,44.68,0,0,1-14.45-2.69c-11.38-4.45-16.3-15.7-12-27.19a25.32,25.32,0,0,1,5.67-9c1.78-1.81,3.26-2.22,4.8-1.35s1.8,2.15,1.33,4.65c-.2,1.07-.91,2.48,1,2.94,2.38.57,3.62-.66,2.8-3.17-.67-2-2-3.86-2.8-5.86-1.09-2.67-2.45-5.36-2.82-8.15-.91-6.79,1.3-12.88,5.26-18.37a15.53,15.53,0,0,1,10.28-6.55A3.5,3.5,0,0,1,99.85,79a3.27,3.27,0,0,1-1.1,4.21c-3.43,2.53-3.33,5.45-1.07,8.33a71.75,71.75,0,0,0,7.54,7.56c4.17,4,8.72,7.55,12.54,11.81,5.57,6.22,7.64,13.81,6.62,22.12-1,8.6-7.35,15-17.1,17.26-3.45.79-7,1-10.56,1.52"/><path class="cls-1" d="M87.43,30.17h18.4V24.29H87.43Zm9.13,6.45c-2.78,0-5.57,0-8.35,0-4.66-.06-7-2.43-7-7.08,0-1.87,0-3.75,0-5.63A6,6,0,0,1,87.11,18q9.61-.14,19.23,0a5.86,5.86,0,0,1,5.77,5.66,68.38,68.38,0,0,1,0,7.44,5.63,5.63,0,0,1-5.2,5.38c-3.43.19-6.89,0-10.33,0v.14"/></svg>