<svg id="Layer_1" data-name="Layer 1" xmlns="http://www.w3.org/2000/svg" viewBox="0 0 636.42 636.42"><defs><style>.cls-1{fill:#46a7de;}.cls-2,.cls-3{fill:none;stroke:#545554;stroke-linecap:round;}.cls-2{stroke-width:2px;}.cls-4{fill:#414042;}</style></defs><path class="cls-1" d="M405.89,427.5h-19.6c0,.25,0,.47,0,.69,0,3,0,6,0,9a2.29,2.29,0,0,0,2.57,2.58h14.46a2.33,2.33,0,0,0,2.6-2.63V427.5Zm-41.83-286c0-.22,0-.4,0-.58q0-11.58,0-23.16a2.33,2.33,0,0,0-2.62-2.55H310.36a2.31,2.31,0,0,0-2.6,2.63v23.66Zm-56.3,286v24c0,1.91.85,2.76,2.77,2.76h50.78c1.93,0,2.79-.87,2.79-2.82v-24ZM422.94,284.58V165.83a15.2,15.2,0,0,0-15.18-15.23H262.06a14.25,14.25,0,0,0-7.47,2,15,15,0,0,0-7.76,13.69V401.94c0,.68,0,1.35,0,2A15.22,15.22,0,0,0,262,418.45H407.8a15.22,15.22,0,0,0,15.14-15.13ZM362,463.37H309.85a2.18,2.18,0,0,0-.44-.11,11.2,11.2,0,0,1-10.66-11.34V427.46h-1q-18.06,0-36.14,0a22.42,22.42,0,0,1-3.75-.32,24.22,24.22,0,0,1-20.06-24q0-118.58,0-237.16a24.21,24.21,0,0,1,24.33-24.39h36.58v-.87q0-11.66,0-23.31a11.16,11.16,0,0,1,8.07-10.68c.82-.23,1.66-.36,2.48-.53h53.23l1,.19a11.22,11.22,0,0,1,9.52,11.37q0,11.52,0,23v.8H374q16.68,0,33.36,0A30.41,30.41,0,0,1,412,142a24.19,24.19,0,0,1,19.36,18.26c.28,1.29.45,2.6.68,3.91V405c-.1.65-.18,1.31-.3,2q-2.65,14.1-16.09,19.18c-.52.2-.72.41-.72,1,0,3.42,0,6.85,0,10.27a11.25,11.25,0,0,1-11.41,11.37H388.55a11.23,11.23,0,0,1-11.3-11.33V427.5H373.1v.84q0,11.79,0,23.58a11.2,11.2,0,0,1-9.52,11.22c-.52.09-1.05.16-1.58.23"/><path class="cls-1" d="M335.91,188.83H290.05c-.23,0-.45,0-.68,0a2.21,2.21,0,0,0-2.08,2.09c-.07,1.45,1,2.39,2.71,2.39h91.86c.23,0,.46,0,.68,0a2.28,2.28,0,0,0,2-1.72,2,2,0,0,0-.82-2.25,3.23,3.23,0,0,0-1.63-.48q-23.07,0-46.14,0m0-9h46.33A11.25,11.25,0,0,1,384,202.18a12.28,12.28,0,0,1-2,.15H289.86a11.27,11.27,0,0,1-2.13-22.39,14.1,14.1,0,0,1,1.95-.14H336"/><path class="cls-1" d="M336.47,443.8a3,3,0,1,0-3-3,3,3,0,0,0,3,3m0,7.34a10.33,10.33,0,1,1,10.29-10.39,10.42,10.42,0,0,1-10.29,10.39"/><path class="cls-1" d="M336.48,131.32a3,3,0,0,0,0-6,3,3,0,0,0,0,6m10.32-3a10.31,10.31,0,1,1-10-10.33,10.33,10.33,0,0,1,10,10.33"/><path class="cls-1" d="M85.62,428.28V436c0,2,.82,2.84,2.85,2.85H99.4c1.16,0,2.32,0,3.48,0a2.17,2.17,0,0,0,2.23-2.39V429c0-.22,0-.44,0-.7Zm-20.16-144V404.14A15.16,15.16,0,0,0,80.6,419.3h31.34a15.19,15.19,0,0,0,15.14-15.17V164.77c0-.6,0-1.2-.09-1.8a15.11,15.11,0,0,0-14.93-13.59H80.58a15.08,15.08,0,0,0-15.12,15.14ZM151.26,460a15.34,15.34,0,0,1-2.49-1.46,4.39,4.39,0,0,1-1.25-3.49q0-24,0-47.91v-.93H136.1c-2,12.58-9.32,19.92-22,22.1v7.9c0,6.65-4.64,11.46-11.31,11.57q-7.58.14-15.16,0a11,11,0,0,1-10.89-10.53c-.15-2.82-.06-5.64-.07-8.46v-.63a49.41,49.41,0,0,1-5.84-2c-9.18-4.41-14.27-11.75-14.27-22q-.13-120,0-240a24.07,24.07,0,0,1,19.71-23.4,27.91,27.91,0,0,1,4.47-.39q15.81,0,31.61,0a24.13,24.13,0,0,1,23.15,18.66c.21,1,.21,1,1.17,1h10.93v-49a4.49,4.49,0,0,1,2.73-4.52,4.45,4.45,0,0,1,6.24,4.09V164.4A4.45,4.45,0,0,1,152,169c-1.2,0-2.41,0-3.62,0H136.07V397.17h15.78a4.43,4.43,0,0,1,4.65,4.63v53.35a4.42,4.42,0,0,1-3.59,4.74.5.5,0,0,0-.17.1Z"/><line class="cls-2" x1="248.28" y1="497.94" x2="248.28" y2="507.5"/><line class="cls-2" x1="264.9" y1="497.94" x2="264.9" y2="507.5"/><line class="cls-2" x1="281.52" y1="497.94" x2="281.52" y2="507.5"/><line class="cls-2" x1="298.14" y1="497.94" x2="298.14" y2="507.5"/><line class="cls-2" x1="314.76" y1="497.94" x2="314.76" y2="507.5"/><line class="cls-2" x1="331.38" y1="497.94" x2="331.38" y2="507.5"/><line class="cls-2" x1="348" y1="497.94" x2="348" y2="507.5"/><line class="cls-2" x1="364.62" y1="497.94" x2="364.62" y2="507.5"/><line class="cls-2" x1="381.24" y1="497.94" x2="381.24" y2="507.5"/><line class="cls-2" x1="397.86" y1="497.94" x2="397.86" y2="507.5"/><line class="cls-2" x1="414.48" y1="497.94" x2="414.48" y2="507.5"/><line class="cls-2" x1="431.1" y1="497.94" x2="431.1" y2="507.5"/><line class="cls-3" x1="248.28" y1="497.94" x2="248.28" y2="502.27"/><line class="cls-3" x1="251.61" y1="497.94" x2="251.61" y2="502.27"/><line class="cls-3" x1="254.94" y1="497.94" x2="254.94" y2="502.27"/><line class="cls-3" x1="258.28" y1="497.94" x2="258.28" y2="502.27"/><line class="cls-3" x1="261.61" y1="497.94" x2="261.61" y2="502.27"/><line class="cls-3" x1="264.94" y1="497.94" x2="264.94" y2="502.27"/><line class="cls-3" x1="268.27" y1="497.94" x2="268.27" y2="502.27"/><line class="cls-3" x1="271.6" y1="497.94" x2="271.6" y2="502.27"/><line class="cls-3" x1="274.93" y1="497.94" x2="274.93" y2="502.27"/><line class="cls-3" x1="278.27" y1="497.94" x2="278.27" y2="502.27"/><line class="cls-3" x1="281.6" y1="497.94" x2="281.6" y2="502.27"/><line class="cls-3" x1="284.93" y1="497.94" x2="284.93" y2="502.27"/><line class="cls-3" x1="288.26" y1="497.94" x2="288.26" y2="502.27"/><line class="cls-3" x1="291.59" y1="497.94" x2="291.59" y2="502.27"/><line class="cls-3" x1="294.93" y1="497.94" x2="294.93" y2="502.27"/><line class="cls-3" x1="298.26" y1="497.94" x2="298.26" y2="502.27"/><line class="cls-3" x1="301.59" y1="497.94" x2="301.59" y2="502.27"/><line class="cls-3" x1="304.92" y1="497.94" x2="304.92" y2="502.27"/><line class="cls-3" x1="308.25" y1="497.94" x2="308.25" y2="502.27"/><line class="cls-3" x1="311.58" y1="497.94" x2="311.58" y2="502.27"/><line class="cls-3" x1="314.92" y1="497.94" x2="314.92" y2="502.27"/><line class="cls-3" x1="318.25" y1="497.94" x2="318.25" y2="502.27"/><line class="cls-3" x1="321.58" y1="497.94" x2="321.58" y2="502.27"/><line class="cls-3" x1="324.91" y1="497.94" x2="324.91" y2="502.27"/><line class="cls-3" x1="328.24" y1="497.94" x2="328.24" y2="502.27"/><line class="cls-3" x1="331.57" y1="497.94" x2="331.57" y2="502.27"/><line class="cls-3" x1="334.91" y1="497.94" x2="334.91" y2="502.27"/><line class="cls-3" x1="338.24" y1="497.94" x2="338.24" y2="502.27"/><line class="cls-3" x1="341.57" y1="497.94" x2="341.57" y2="502.27"/><line class="cls-3" x1="344.9" y1="497.94" x2="344.9" y2="502.27"/><line class="cls-3" x1="348.23" y1="497.94" x2="348.23" y2="502.27"/><line class="cls-3" x1="351.57" y1="497.94" x2="351.57" y2="502.27"/><line class="cls-3" x1="354.9" y1="497.94" x2="354.9" y2="502.27"/><line class="cls-3" x1="358.23" y1="497.94" x2="358.23" y2="502.27"/><line class="cls-3" x1="361.56" y1="497.94" x2="361.56" y2="502.27"/><line class="cls-3" x1="364.89" y1="497.94" x2="364.89" y2="502.27"/><line class="cls-3" x1="368.22" y1="497.94" x2="368.22" y2="502.27"/><line class="cls-3" x1="371.56" y1="497.94" x2="371.56" y2="502.27"/><line class="cls-3" x1="374.89" y1="497.94" x2="374.89" y2="502.27"/><line class="cls-3" x1="378.22" y1="497.94" x2="378.22" y2="502.27"/><line class="cls-3" x1="381.55" y1="497.94" x2="381.55" y2="502.27"/><line class="cls-3" x1="384.88" y1="497.94" x2="384.88" y2="502.27"/><line class="cls-3" x1="388.22" y1="497.94" x2="388.22" y2="502.27"/><line class="cls-3" x1="391.55" y1="497.94" x2="391.55" y2="502.27"/><line class="cls-3" x1="394.88" y1="497.94" x2="394.88" y2="502.27"/><line class="cls-3" x1="398.21" y1="497.94" x2="398.21" y2="502.27"/><line class="cls-3" x1="401.54" y1="497.94" x2="401.54" y2="502.27"/><line class="cls-3" x1="404.87" y1="497.94" x2="404.87" y2="502.27"/><line class="cls-3" x1="408.21" y1="497.94" x2="408.21" y2="502.27"/><line class="cls-3" x1="411.54" y1="497.94" x2="411.54" y2="502.27"/><line class="cls-3" x1="414.87" y1="497.94" x2="414.87" y2="502.27"/><line class="cls-3" x1="418.2" y1="497.94" x2="418.2" y2="502.27"/><line class="cls-3" x1="421.53" y1="497.94" x2="421.53" y2="502.27"/><line class="cls-3" x1="424.86" y1="497.94" x2="424.86" y2="502.27"/><line class="cls-3" x1="428.2" y1="497.94" x2="428.2" y2="502.27"/><line class="cls-3" x1="431.53" y1="497.94" x2="431.53" y2="502.27"/><line class="cls-2" x1="55.89" y1="497.94" x2="55.89" y2="507.5"/><line class="cls-2" x1="72.51" y1="497.94" x2="72.51" y2="507.5"/><line class="cls-2" x1="89.13" y1="497.94" x2="89.13" y2="507.5"/><line class="cls-2" x1="105.75" y1="497.94" x2="105.75" y2="507.5"/><line class="cls-2" x1="122.37" y1="497.94" x2="122.37" y2="507.5"/><line class="cls-2" x1="138.99" y1="497.94" x2="138.99" y2="507.5"/><line class="cls-2" x1="155.61" y1="497.94" x2="155.61" y2="507.5"/><line class="cls-3" x1="56.09" y1="497.94" x2="56.09" y2="502.27"/><line class="cls-3" x1="59.42" y1="497.94" x2="59.42" y2="502.27"/><line class="cls-3" x1="62.75" y1="497.94" x2="62.75" y2="502.27"/><line class="cls-3" x1="66.08" y1="497.94" x2="66.08" y2="502.27"/><line class="cls-3" x1="69.41" y1="497.94" x2="69.41" y2="502.27"/><line class="cls-3" x1="72.75" y1="497.94" x2="72.75" y2="502.27"/><line class="cls-3" x1="76.08" y1="497.94" x2="76.08" y2="502.27"/><line class="cls-3" x1="79.41" y1="497.94" x2="79.41" y2="502.27"/><line class="cls-3" x1="82.74" y1="497.94" x2="82.74" y2="502.27"/><line class="cls-3" x1="86.07" y1="497.94" x2="86.07" y2="502.27"/><line class="cls-3" x1="89.41" y1="497.94" x2="89.41" y2="502.27"/><line class="cls-3" x1="92.74" y1="497.94" x2="92.74" y2="502.27"/><line class="cls-3" x1="96.07" y1="497.94" x2="96.07" y2="502.27"/><line class="cls-3" x1="99.4" y1="497.94" x2="99.4" y2="502.27"/><line class="cls-3" x1="102.73" y1="497.94" x2="102.73" y2="502.27"/><line class="cls-3" x1="106.06" y1="497.94" x2="106.06" y2="502.27"/><line class="cls-3" x1="109.4" y1="497.94" x2="109.4" y2="502.27"/><line class="cls-3" x1="112.73" y1="497.94" x2="112.73" y2="502.27"/><line class="cls-3" x1="116.06" y1="497.94" x2="116.06" y2="502.27"/><line class="cls-3" x1="119.39" y1="497.94" x2="119.39" y2="502.27"/><line class="cls-3" x1="122.72" y1="497.94" x2="122.72" y2="502.27"/><line class="cls-3" x1="126.06" y1="497.94" x2="126.06" y2="502.27"/><line class="cls-3" x1="129.39" y1="497.94" x2="129.39" y2="502.27"/><line class="cls-3" x1="132.72" y1="497.94" x2="132.72" y2="502.27"/><line class="cls-3" x1="136.05" y1="497.94" x2="136.05" y2="502.27"/><line class="cls-3" x1="139.38" y1="497.94" x2="139.38" y2="502.27"/><line class="cls-3" x1="142.71" y1="497.94" x2="142.71" y2="502.27"/><line class="cls-3" x1="146.05" y1="497.94" x2="146.05" y2="502.27"/><line class="cls-3" x1="149.38" y1="497.94" x2="149.38" y2="502.27"/><line class="cls-3" x1="152.71" y1="497.94" x2="152.71" y2="502.27"/><line class="cls-3" x1="156.04" y1="497.94" x2="156.04" y2="502.27"/><line class="cls-2" x1="473.28" y1="462.48" x2="482.84" y2="462.48"/><line class="cls-2" x1="473.28" y1="445.86" x2="482.84" y2="445.86"/><line class="cls-2" x1="473.28" y1="429.24" x2="482.84" y2="429.24"/><line class="cls-2" x1="473.28" y1="412.62" x2="482.84" y2="412.62"/><line class="cls-2" x1="473.28" y1="396" x2="482.84" y2="396"/><line class="cls-2" x1="473.28" y1="379.38" x2="482.84" y2="379.38"/><line class="cls-2" x1="473.28" y1="362.76" x2="482.84" y2="362.76"/><line class="cls-2" x1="473.28" y1="346.14" x2="482.84" y2="346.14"/><line class="cls-2" x1="473.28" y1="329.52" x2="482.84" y2="329.52"/><line class="cls-2" x1="473.28" y1="312.9" x2="482.84" y2="312.9"/><line class="cls-2" x1="473.28" y1="296.28" x2="482.84" y2="296.28"/><line class="cls-2" x1="473.28" y1="279.66" x2="482.84" y2="279.66"/><line class="cls-3" x1="473.28" y1="462.48" x2="477.62" y2="462.48"/><line class="cls-3" x1="473.28" y1="459.15" x2="477.62" y2="459.15"/><line class="cls-3" x1="473.28" y1="455.82" x2="477.62" y2="455.82"/><line class="cls-3" x1="473.28" y1="452.49" x2="477.62" y2="452.49"/><line class="cls-3" x1="473.28" y1="449.15" x2="477.62" y2="449.15"/><line class="cls-3" x1="473.28" y1="445.82" x2="477.62" y2="445.82"/><line class="cls-3" x1="473.28" y1="442.49" x2="477.62" y2="442.49"/><line class="cls-3" x1="473.28" y1="439.16" x2="477.62" y2="439.16"/><line class="cls-3" x1="473.28" y1="435.83" x2="477.62" y2="435.83"/><line class="cls-3" x1="473.28" y1="432.5" x2="477.62" y2="432.5"/><line class="cls-3" x1="473.28" y1="429.16" x2="477.62" y2="429.16"/><line class="cls-3" x1="473.28" y1="425.83" x2="477.62" y2="425.83"/><line class="cls-3" x1="473.28" y1="422.5" x2="477.62" y2="422.5"/><line class="cls-3" x1="473.28" y1="419.17" x2="477.62" y2="419.17"/><line class="cls-3" x1="473.28" y1="415.84" x2="477.62" y2="415.84"/><line class="cls-3" x1="473.28" y1="412.5" x2="477.62" y2="412.5"/><line class="cls-3" x1="473.28" y1="409.17" x2="477.62" y2="409.17"/><line class="cls-3" x1="473.28" y1="405.84" x2="477.62" y2="405.84"/><line class="cls-3" x1="473.28" y1="402.51" x2="477.62" y2="402.51"/><line class="cls-3" x1="473.28" y1="399.18" x2="477.62" y2="399.18"/><line class="cls-3" x1="473.28" y1="395.85" x2="477.62" y2="395.85"/><line class="cls-3" x1="473.28" y1="392.51" x2="477.62" y2="392.51"/><line class="cls-3" x1="473.28" y1="389.18" x2="477.62" y2="389.18"/><line class="cls-3" x1="473.28" y1="385.85" x2="477.62" y2="385.85"/><line class="cls-3" x1="473.28" y1="382.52" x2="477.62" y2="382.52"/><line class="cls-3" x1="473.28" y1="379.19" x2="477.62" y2="379.19"/><line class="cls-3" x1="473.28" y1="375.85" x2="477.62" y2="375.85"/><line class="cls-3" x1="473.28" y1="372.52" x2="477.62" y2="372.52"/><line class="cls-3" x1="473.28" y1="369.19" x2="477.62" y2="369.19"/><line class="cls-3" x1="473.28" y1="365.86" x2="477.62" y2="365.86"/><line class="cls-3" x1="473.28" y1="362.53" x2="477.62" y2="362.53"/><line class="cls-3" x1="473.28" y1="359.2" x2="477.62" y2="359.2"/><line class="cls-3" x1="473.28" y1="355.86" x2="477.62" y2="355.86"/><line class="cls-3" x1="473.28" y1="352.53" x2="477.62" y2="352.53"/><line class="cls-3" x1="473.28" y1="349.2" x2="477.62" y2="349.2"/><line class="cls-3" x1="473.28" y1="345.87" x2="477.62" y2="345.87"/><line class="cls-3" x1="473.28" y1="342.54" x2="477.62" y2="342.54"/><line class="cls-3" x1="473.28" y1="339.21" x2="477.62" y2="339.21"/><line class="cls-3" x1="473.28" y1="335.87" x2="477.62" y2="335.87"/><line class="cls-3" x1="473.28" y1="332.54" x2="477.62" y2="332.54"/><line class="cls-3" x1="473.28" y1="329.21" x2="477.62" y2="329.21"/><line class="cls-3" x1="473.28" y1="325.88" x2="477.62" y2="325.88"/><line class="cls-3" x1="473.28" y1="322.55" x2="477.62" y2="322.55"/><line class="cls-3" x1="473.28" y1="319.21" x2="477.62" y2="319.21"/><line class="cls-3" x1="473.28" y1="315.88" x2="477.62" y2="315.88"/><line class="cls-3" x1="473.28" y1="312.55" x2="477.62" y2="312.55"/><line class="cls-3" x1="473.28" y1="309.22" x2="477.62" y2="309.22"/><line class="cls-3" x1="473.28" y1="305.89" x2="477.62" y2="305.89"/><line class="cls-3" x1="473.28" y1="302.56" x2="477.62" y2="302.56"/><line class="cls-3" x1="473.28" y1="299.22" x2="477.62" y2="299.22"/><line class="cls-3" x1="473.28" y1="295.89" x2="477.62" y2="295.89"/><line class="cls-3" x1="473.28" y1="292.56" x2="477.62" y2="292.56"/><line class="cls-3" x1="473.28" y1="289.23" x2="477.62" y2="289.23"/><line class="cls-3" x1="473.28" y1="285.9" x2="477.62" y2="285.9"/><line class="cls-3" x1="473.28" y1="282.56" x2="477.62" y2="282.56"/><line class="cls-3" x1="473.28" y1="279.23" x2="477.62" y2="279.23"/><line class="cls-2" x1="473.28" y1="279.66" x2="482.84" y2="279.66"/><line class="cls-2" x1="473.28" y1="263.04" x2="482.84" y2="263.04"/><line class="cls-2" x1="473.28" y1="246.42" x2="482.84" y2="246.42"/><line class="cls-2" x1="473.28" y1="229.8" x2="482.84" y2="229.8"/><line class="cls-2" x1="473.28" y1="213.18" x2="482.84" y2="213.18"/><line class="cls-2" x1="473.28" y1="196.56" x2="482.84" y2="196.56"/><line class="cls-2" x1="473.28" y1="179.94" x2="482.84" y2="179.94"/><line class="cls-2" x1="473.28" y1="163.32" x2="482.84" y2="163.32"/><line class="cls-2" x1="473.28" y1="146.7" x2="482.84" y2="146.7"/><line class="cls-2" x1="473.28" y1="130.09" x2="482.84" y2="130.09"/><line class="cls-2" x1="473.28" y1="113.47" x2="482.84" y2="113.47"/><line class="cls-3" x1="473.28" y1="279.66" x2="477.62" y2="279.66"/><line class="cls-3" x1="473.28" y1="276.33" x2="477.62" y2="276.33"/><line class="cls-3" x1="473.28" y1="273" x2="477.62" y2="273"/><line class="cls-3" x1="473.28" y1="269.67" x2="477.62" y2="269.67"/><line class="cls-3" x1="473.28" y1="266.34" x2="477.62" y2="266.34"/><line class="cls-3" x1="473.28" y1="263" x2="477.62" y2="263"/><line class="cls-3" x1="473.28" y1="259.67" x2="477.62" y2="259.67"/><line class="cls-3" x1="473.28" y1="256.34" x2="477.62" y2="256.34"/><line class="cls-3" x1="473.28" y1="253.01" x2="477.62" y2="253.01"/><line class="cls-3" x1="473.28" y1="249.68" x2="477.62" y2="249.68"/><line class="cls-3" x1="473.28" y1="246.35" x2="477.62" y2="246.35"/><line class="cls-3" x1="473.28" y1="243.01" x2="477.62" y2="243.01"/><line class="cls-3" x1="473.28" y1="239.68" x2="477.62" y2="239.68"/><line class="cls-3" x1="473.28" y1="236.35" x2="477.62" y2="236.35"/><line class="cls-3" x1="473.28" y1="233.02" x2="477.62" y2="233.02"/><line class="cls-3" x1="473.28" y1="229.69" x2="477.62" y2="229.69"/><line class="cls-3" x1="473.28" y1="226.35" x2="477.62" y2="226.35"/><line class="cls-3" x1="473.28" y1="223.02" x2="477.62" y2="223.02"/><line class="cls-3" x1="473.28" y1="219.69" x2="477.62" y2="219.69"/><line class="cls-3" x1="473.28" y1="216.36" x2="477.62" y2="216.36"/><line class="cls-3" x1="473.28" y1="213.03" x2="477.62" y2="213.03"/><line class="cls-3" x1="473.28" y1="209.7" x2="477.62" y2="209.7"/><line class="cls-3" x1="473.28" y1="206.36" x2="477.62" y2="206.36"/><line class="cls-3" x1="473.28" y1="203.03" x2="477.62" y2="203.03"/><line class="cls-3" x1="473.28" y1="199.7" x2="477.62" y2="199.7"/><line class="cls-3" x1="473.28" y1="196.37" x2="477.62" y2="196.37"/><line class="cls-3" x1="473.28" y1="193.04" x2="477.62" y2="193.04"/><line class="cls-3" x1="473.28" y1="189.71" x2="477.62" y2="189.71"/><line class="cls-3" x1="473.28" y1="186.37" x2="477.62" y2="186.37"/><line class="cls-3" x1="473.28" y1="183.04" x2="477.62" y2="183.04"/><line class="cls-3" x1="473.28" y1="179.71" x2="477.62" y2="179.71"/><line class="cls-3" x1="473.28" y1="176.38" x2="477.62" y2="176.38"/><line class="cls-3" x1="473.28" y1="173.05" x2="477.62" y2="173.05"/><line class="cls-3" x1="473.28" y1="169.71" x2="477.62" y2="169.71"/><line class="cls-3" x1="473.28" y1="166.38" x2="477.62" y2="166.38"/><line class="cls-3" x1="473.28" y1="163.05" x2="477.62" y2="163.05"/><line class="cls-3" x1="473.28" y1="159.72" x2="477.62" y2="159.72"/><line class="cls-3" x1="473.28" y1="156.39" x2="477.62" y2="156.39"/><line class="cls-3" x1="473.28" y1="153.06" x2="477.62" y2="153.06"/><line class="cls-3" x1="473.28" y1="149.72" x2="477.62" y2="149.72"/><line class="cls-3" x1="473.28" y1="146.39" x2="477.62" y2="146.39"/><line class="cls-3" x1="473.28" y1="143.06" x2="477.62" y2="143.06"/><line class="cls-3" x1="473.28" y1="139.73" x2="477.62" y2="139.73"/><line class="cls-3" x1="473.28" y1="136.4" x2="477.62" y2="136.4"/><line class="cls-3" x1="473.28" y1="133.06" x2="477.62" y2="133.06"/><line class="cls-3" x1="473.28" y1="129.73" x2="477.62" y2="129.73"/><line class="cls-3" x1="473.28" y1="126.4" x2="477.62" y2="126.4"/><line class="cls-3" x1="473.28" y1="123.07" x2="477.62" y2="123.07"/><line class="cls-3" x1="473.28" y1="119.74" x2="477.62" y2="119.74"/><line class="cls-3" x1="473.28" y1="116.41" x2="477.62" y2="116.41"/><line class="cls-3" x1="473.28" y1="113.07" x2="477.62" y2="113.07"/><path class="cls-4" d="M79.62,554.36H67.11v-2.48l5.9-6.3a14.44,14.44,0,0,0,1.8-2.31,3.71,3.71,0,0,0,.58-1.88,2.77,2.77,0,0,0-.61-1.91,2.19,2.19,0,0,0-1.75-.7,2.38,2.38,0,0,0-1.94.85,3.34,3.34,0,0,0-.71,2.22H66.75a5.94,5.94,0,0,1,.79-3,5.67,5.67,0,0,1,2.25-2.17,6.87,6.87,0,0,1,3.3-.78,6.48,6.48,0,0,1,4.38,1.35A4.81,4.81,0,0,1,79,541a6.2,6.2,0,0,1-.7,2.75,15.08,15.08,0,0,1-2.41,3.27l-4.15,4.38h7.85Z"/><path class="cls-4" d="M94.55,546.81A9.2,9.2,0,0,1,93,552.6a5.45,5.45,0,0,1-4.58,2,5.5,5.5,0,0,1-4.56-2A9,9,0,0,1,82.22,547v-3.36a9.09,9.09,0,0,1,1.59-5.8,6.26,6.26,0,0,1,9.12,0,8.88,8.88,0,0,1,1.62,5.63Zm-3.62-3.69a6.68,6.68,0,0,0-.62-3.3,2.1,2.1,0,0,0-1.94-1,2,2,0,0,0-1.88,1,6.21,6.21,0,0,0-.65,3.07v4.44a7,7,0,0,0,.61,3.32,2.29,2.29,0,0,0,3.87,0,7,7,0,0,0,.61-3.19Z"/><path class="cls-4" d="M103.22,551.69a2.37,2.37,0,0,0,1.63-.56,1.91,1.91,0,0,0,.65-1.46h3.4a4.58,4.58,0,0,1-.76,2.52,4.86,4.86,0,0,1-2,1.78,6.37,6.37,0,0,1-2.84.64,5.86,5.86,0,0,1-4.58-1.85A7.32,7.32,0,0,1,97,547.65v-.24a7.26,7.26,0,0,1,1.66-5,5.84,5.84,0,0,1,4.58-1.86,5.74,5.74,0,0,1,4.08,1.44,5.16,5.16,0,0,1,1.56,3.86h-3.4a2.48,2.48,0,0,0-.65-1.72,2.43,2.43,0,0,0-3.57.26,5.33,5.33,0,0,0-.64,3v.38a5.36,5.36,0,0,0,.64,3A2.2,2.2,0,0,0,103.22,551.69Z"/><path class="cls-4" d="M114.79,540.8l.12,1.51a4.78,4.78,0,0,1,3.89-1.76,3.62,3.62,0,0,1,3.6,2.07,4.65,4.65,0,0,1,4.07-2.07,4.08,4.08,0,0,1,3.29,1.28,6,6,0,0,1,1.07,3.87v8.66H127.2v-8.65a2.61,2.61,0,0,0-.45-1.69,2,2,0,0,0-1.59-.53,2.26,2.26,0,0,0-2.26,1.56v9.31h-3.62v-8.64a2.54,2.54,0,0,0-.46-1.7,2,2,0,0,0-1.58-.53,2.35,2.35,0,0,0-2.23,1.28v9.59H111.4V540.8Z"/><path class="cls-4" d="M321.06,547.49h2.07v2.92h-2.07v4h-3.62v-4H310l-.16-2.28,7.61-12h3.65Zm-7.65,0h4v-6.44l-.23.41Z"/><path class="cls-4" d="M337.79,546.81a9.27,9.27,0,0,1-1.56,5.79,6.25,6.25,0,0,1-9.15,0,9,9,0,0,1-1.62-5.64v-3.36a9.09,9.09,0,0,1,1.59-5.8,6.26,6.26,0,0,1,9.12,0,8.88,8.88,0,0,1,1.62,5.63Zm-3.62-3.69a6.68,6.68,0,0,0-.62-3.3,2.1,2.1,0,0,0-1.94-1,2,2,0,0,0-1.88,1,6.21,6.21,0,0,0-.65,3.07v4.44a7,7,0,0,0,.61,3.32,2.29,2.29,0,0,0,3.87,0,7,7,0,0,0,.61-3.19Z"/><path class="cls-4" d="M346.46,551.69a2.37,2.37,0,0,0,1.63-.56,1.91,1.91,0,0,0,.65-1.46h3.4a4.58,4.58,0,0,1-.76,2.52,4.86,4.86,0,0,1-2,1.78,6.37,6.37,0,0,1-2.84.64,5.88,5.88,0,0,1-4.58-1.85,7.32,7.32,0,0,1-1.68-5.11v-.24a7.26,7.26,0,0,1,1.66-5,5.84,5.84,0,0,1,4.58-1.86,5.7,5.7,0,0,1,4.07,1.44,5.13,5.13,0,0,1,1.57,3.86h-3.4a2.48,2.48,0,0,0-.65-1.72,2.43,2.43,0,0,0-3.57.26,5.33,5.33,0,0,0-.64,3v.38a5.36,5.36,0,0,0,.64,3A2.2,2.2,0,0,0,346.46,551.69Z"/><path class="cls-4" d="M358,540.8l.12,1.51a4.78,4.78,0,0,1,3.89-1.76,3.62,3.62,0,0,1,3.6,2.07,4.65,4.65,0,0,1,4.07-2.07,4,4,0,0,1,3.28,1.28,5.92,5.92,0,0,1,1.08,3.87v8.66h-3.63v-8.65A2.61,2.61,0,0,0,370,544a2,2,0,0,0-1.59-.53,2.26,2.26,0,0,0-2.26,1.56v9.31h-3.62v-8.64a2.54,2.54,0,0,0-.46-1.7,2,2,0,0,0-1.58-.53,2.35,2.35,0,0,0-2.23,1.28v9.59h-3.62V540.8Z"/><path class="cls-4" d="M539.88,268.38v3h-.35a6.17,6.17,0,0,0-3.95,1.27,5.2,5.2,0,0,0-1.8,3.45,5,5,0,0,1,3.67-1.48,4.65,4.65,0,0,1,3.79,1.71,6.84,6.84,0,0,1,1.4,4.48,6.75,6.75,0,0,1-.77,3.22,5.53,5.53,0,0,1-2.18,2.24,6.28,6.28,0,0,1-3.19.81,5.9,5.9,0,0,1-4.65-2,7.73,7.73,0,0,1-1.78-5.35v-1.3a11.78,11.78,0,0,1,1.12-5.24,8.28,8.28,0,0,1,3.22-3.53,9.39,9.39,0,0,1,4.87-1.25Zm-3.53,9.14a2.82,2.82,0,0,0-1.59.46,2.62,2.62,0,0,0-1,1.21v1.1a4.84,4.84,0,0,0,.71,2.83,2.44,2.44,0,0,0,3.89.1,4.32,4.32,0,0,0,0-4.79A2.37,2.37,0,0,0,536.35,277.52Z"/><path class="cls-4" d="M545.76,277.84l1-9.28H557v3h-7.25l-.45,3.92a5.71,5.71,0,0,1,2.74-.68,5.26,5.26,0,0,1,4.09,1.61,6.5,6.5,0,0,1,1.48,4.53,6.59,6.59,0,0,1-.75,3.16,5.32,5.32,0,0,1-2.14,2.17,6.68,6.68,0,0,1-3.28.77,7.21,7.21,0,0,1-3.07-.67,5.53,5.53,0,0,1-2.24-1.89,5.25,5.25,0,0,1-.87-2.77h3.59a2.66,2.66,0,0,0,.79,1.77,2.5,2.5,0,0,0,1.79.64,2.22,2.22,0,0,0,1.89-.89,4.09,4.09,0,0,0,.66-2.5,3.39,3.39,0,0,0-.76-2.38,2.81,2.81,0,0,0-2.17-.82,3.12,3.12,0,0,0-2.09.67l-.35.33Z"/><path class="cls-4" d="M566.17,284.14a2.43,2.43,0,0,0,1.63-.55,2,2,0,0,0,.65-1.47h3.39a4.71,4.71,0,0,1-.75,2.53,5,5,0,0,1-2,1.77,6.24,6.24,0,0,1-2.84.64,5.9,5.9,0,0,1-4.59-1.85A7.3,7.3,0,0,1,560,280.1v-.23a7.23,7.23,0,0,1,1.67-5A5.8,5.8,0,0,1,566.2,273a5.67,5.67,0,0,1,4.08,1.45,5.07,5.07,0,0,1,1.56,3.85h-3.39a2.53,2.53,0,0,0-.65-1.72,2.43,2.43,0,0,0-3.57.26,5.35,5.35,0,0,0-.64,3v.38a5.46,5.46,0,0,0,.63,3A2.23,2.23,0,0,0,566.17,284.14Z"/><path class="cls-4" d="M577.74,273.25l.11,1.52a4.76,4.76,0,0,1,3.9-1.77,3.62,3.62,0,0,1,3.6,2.07,4.65,4.65,0,0,1,4.07-2.07,4.06,4.06,0,0,1,3.28,1.28,5.92,5.92,0,0,1,1.08,3.87v8.66h-3.63v-8.65a2.56,2.56,0,0,0-.45-1.68,2,2,0,0,0-1.6-.54,2.26,2.26,0,0,0-2.25,1.56v9.31h-3.62v-8.64a2.54,2.54,0,0,0-.46-1.7,2,2,0,0,0-1.58-.53,2.35,2.35,0,0,0-2.23,1.28v9.59h-3.62V273.25Z"/></svg>