<svg id="Layer_1" data-name="Layer 1" xmlns="http://www.w3.org/2000/svg" viewBox="0 0 200 200"><defs><style>.cls-1{fill:#41a6dd;}</style></defs><path class="cls-1" d="M165.18,184.19h20.2v-8.06h-20.2Zm-150.49.17c6.52,0,12.92,0,19.32,0a1.38,1.38,0,0,0,1-.9c.08-2.42,0-4.84,0-7.28H14.69Zm156.4-47.55V140c0,9.4,0,18.8,0,28.2,0,1.43.35,2.08,1.88,2a22.34,22.34,0,0,1,4.17,0c1.94.2,2.42-.58,2.42-2.46-.07-20,0-40.11-.06-60.17a33.9,33.9,0,0,0-.28-4.15,19.06,19.06,0,0,0-18.91-16.45c-9.77,0-18.15,7.22-19,16.76-.46,5.32-.28,10.7-.3,16.06-.05,10.26.07,20.53-.08,30.78a10.63,10.63,0,0,1-12.52,10.11c-5.59-1-9.15-5.35-9.16-11.25,0-14.63.11-29.26-.08-43.89-.11-7.68-4-13.4-10.88-16.69S94.71,86.24,88.6,90.74c-5.32,3.92-7.75,9.36-7.74,16q0,21.45,0,42.89a11,11,0,0,1-10.14,11.24,10.82,10.82,0,0,1-11.3-8.35,25.51,25.51,0,0,1-.3-5.33c0-13.5.06-27,0-40.51-.06-8-3.57-14.23-10.87-17.76-7-3.4-13.93-2.64-20.15,2.14-5.12,3.92-7.44,9.32-7.44,15.73q0,29.3,0,58.58c0,4.8,0,4.83,4.78,4.79,4.19,0,3.61.51,3.61-3.54q0-30.18,0-60.37a10.87,10.87,0,0,1,19.23-7,11.11,11.11,0,0,1,2.51,7.35c0,14.56-.08,29.13,0,43.69a19.15,19.15,0,0,0,38.27.64c.26-8.06.1-16.15.13-24.22,0-7.21-.12-14.44.18-21.64.22-5.36,4.56-9.3,10-9.78a10.88,10.88,0,0,1,11.16,8,20.72,20.72,0,0,1,.43,4.92c.06,14.36-.13,28.73.17,43.09.23,11.27,11.44,19.78,22.52,17.57a19.19,19.19,0,0,0,15.71-19c.05-14.56,0-29.12,0-43.69a10.79,10.79,0,0,1,13-10.65A10.67,10.67,0,0,1,171.08,106c0,10.26,0,20.52,0,30.78m14.27,33.12c4.56,1,6,2.87,6,7.26,0,2.31,0,4.63,0,6.95a5.89,5.89,0,0,1-6,6.09q-10.12.14-20.25,0a5.84,5.84,0,0,1-6-5.91c-.1-2.31,0-4.63,0-6.95,0-4.55,1.4-6.32,6-7.44,0-.53.12-1.1.12-1.68q0-30.67,0-61.37c0-3-1.4-5-3.79-5.57-3.46-.8-6.19,1.58-6.2,5.51,0,10.39,0,20.79,0,31.18,0,5.55.25,11.18-.51,16.64-1.65,11.71-13.2,20.88-25,20.44-12.81-.48-23.64-10-24.39-22.24-.58-9.43-.29-18.92-.34-28.38,0-6.09,0-12.18,0-18.27a4.92,4.92,0,1,0-9.82.16c0,5.5,0,11,0,16.49,0,8.93,0,17.87,0,26.81a25.15,25.15,0,0,1-20.36,24.93c-14.9,3.13-29.68-8.59-29.83-23.82-.13-14.24,0-28.47,0-42.7a15.93,15.93,0,0,0-.14-2.77,4.9,4.9,0,0,0-5.06-4.14,5,5,0,0,0-4.77,4.5,11.75,11.75,0,0,0,0,1.19q0,30.69,0,61.37c0,.52.05,1,.08,1.69.58.15,1.14.28,1.68.45a5.74,5.74,0,0,1,4.25,5.39c.11,2.9.13,5.82,0,8.73a5.8,5.8,0,0,1-5.9,5.76q-10.13.14-20.25,0a5.88,5.88,0,0,1-6-6.05c-.06-2.12,0-4.24,0-6.36,0-5.1,1-6.52,6-8v-2.09q0-30.69,0-61.38c0-12.76,9.61-23.88,21.72-25.15,13.61-1.44,25.31,6.85,28,19.94a28.78,28.78,0,0,1,.51,5.72c0,14.17,0,28.34,0,42.5,0,3.2,1.74,5.24,4.55,5.48a4.8,4.8,0,0,0,5.1-3.53,12,12,0,0,0,.29-2.94c0-14.24-.08-28.47.07-42.7a25,25,0,0,1,50.08.31c.11,13.9,0,27.81,0,41.71a17.49,17.49,0,0,0,.2,3.16,4.79,4.79,0,0,0,5.13,4,4.89,4.89,0,0,0,4.59-4.63c.06-.73,0-1.46,0-2.18,0-14,0-27.94,0-41.91a25.12,25.12,0,0,1,50.23-.43c.09,20.53,0,41.05,0,61.57Z"/><path class="cls-1" d="M119.49,64.32c-.79-6.23,2-10.56,7.21-13.65A21.54,21.54,0,0,0,129.14,49a6.3,6.3,0,0,0,.07-10.1c-1.39-1.11-2.92-2-4.37-3.08a11.69,11.69,0,0,1-5.36-10.26c0-2,0-4,0-5.95a2.92,2.92,0,0,1,2.73-3.07,3,3,0,0,1,3.1,3q.15,2.86,0,5.75a6.29,6.29,0,0,0,3,5.85c1.53,1,3.1,2,4.53,3.2A12.15,12.15,0,0,1,133,53.41a57.43,57.43,0,0,1-4.69,3.32,6.18,6.18,0,0,0-3,5.68c.07,1.85.06,3.71,0,5.56-.07,2-1.23,3.23-3,3.21s-2.8-1.14-2.86-3.29c0-1.19,0-2.38,0-3.57"/><path class="cls-1" d="M93,64.54c-.74-6.37,2.06-10.84,7.42-14A19.6,19.6,0,0,0,102.68,49a6.34,6.34,0,0,0,0-10.22c-1.72-1.34-3.6-2.48-5.31-3.83A11.37,11.37,0,0,1,93,25.77c0-2,0-4,0-5.95s1.29-3.31,3-3.3,2.84,1.33,2.89,3.34c0,1.52.08,3.05,0,4.56a7.23,7.23,0,0,0,3.73,7.13,31.66,31.66,0,0,1,4.35,3.12,12.15,12.15,0,0,1,0,18.47,35.28,35.28,0,0,1-4.51,3.24,7,7,0,0,0-3.55,6.81c.08,1.59.05,3.18,0,4.77,0,2.08-1.14,3.24-2.93,3.23S93.06,70,93,67.91c0-1.12,0-2.25,0-3.37"/><path class="cls-1" d="M66.6,64.39c-.82-6.42,2.19-10.75,7.49-13.9,2.41-1.43,4.66-3,4.66-6.37a6.21,6.21,0,0,0-2.64-5.45c-1.46-1-3-2-4.4-3.05a11.52,11.52,0,0,1-5.09-9.79c0-2-.06-4.1,0-6.15a2.94,2.94,0,0,1,2.86-3.15,3,3,0,0,1,3,3.08,47.74,47.74,0,0,1,0,5.35,6.51,6.51,0,0,0,3.29,6.31,41.62,41.62,0,0,1,4.65,3.36,12.13,12.13,0,0,1,.07,18.47,48.71,48.71,0,0,1-4.83,3.46,6.38,6.38,0,0,0-3.17,6c.09,1.78,0,3.57,0,5.35-.07,2.08-1.17,3.26-2.94,3.29s-2.85-1.11-3-3.22c0-.59,0-1.19,0-1.78V64.39"/></svg>