<svg id="Layer_1" data-name="Layer 1" xmlns="http://www.w3.org/2000/svg" viewBox="0 0 200 200"><defs><style>.cls-1{fill:#47a8de;}.cls-2{fill:#4aa9df;}</style></defs><path class="cls-1" d="M101.24,190.1H38.73a30.8,30.8,0,0,1-4.18-.29c-2.32-.3-3.36-1.48-3.6-4.17-.14-1.47-.22-3-.22-4.43q0-47.15,0-94.29c0-.44,0-.88,0-1.32-.08-1.47-.68-2.07-2.18-2.1-3.72-.08-7.43-.13-11.14-.21-3-.07-4.74-1.48-5.25-4.1a3.91,3.91,0,0,1,1.74-4.27c4.52-3.15,9.22-6,13.89-9q8-5,15.93-10a11.3,11.3,0,0,0,5.72-10.49c-.12-5.39-.44-10.79-.2-16.18a28.28,28.28,0,0,1,.39-5.12A4.64,4.64,0,0,1,55,20.26,4.9,4.9,0,0,1,59.7,25c.44,5.35.13,10.7.2,16.06,0,2.87.69,3.31,3.28,2,3.91-1.94,7.4-4.56,11.1-6.86C81.82,31.57,89.35,26.89,96.73,22a7.61,7.61,0,0,1,8.89-.14c8.38,5.29,16.73,10.63,25.09,15.94q28.18,17.88,56.38,35.76A16.69,16.69,0,0,1,189,74.91a4.48,4.48,0,0,1-.85,7.65c-1.7.91-3.55.86-5.37.92-2.88.1-5.76,0-8.64.06-1.6,0-2.16.57-2.21,2.14,0,.44,0,.88,0,1.32v95.86a18.05,18.05,0,0,1-.49,4.27,3.14,3.14,0,0,1-2.5,2.47,24.49,24.49,0,0,1-5.47.5ZM161.67,125c0-1.36,0-2.72,0-4.08q0-22.48,0-45a11.29,11.29,0,0,0-5.56-10.21Q131.45,50,106.78,34.15a9.09,9.09,0,0,0-10.49-.1C79.6,44.66,63,55.32,46.18,65.79a10.83,10.83,0,0,0-5.27,9.88q.06,9,.06,18,0,38.45,0,76.89c0,2.63.19,5.26.44,7.88.12,1.24.71,1.84,1.92,1.84H66c1.38,0,2-.68,2.09-2.07,0-.44,0-.88,0-1.32l0-42.71c0-.64,0-1.28,0-1.91.22-3.1,1.7-4.63,4.74-5.07a23.31,23.31,0,0,1,3.34-.2q24.48,0,49,0c1.15,0,2.32,0,3.47,0,3.63.17,5.28,1.38,5.85,4.32a14,14,0,0,1,.25,2.74c0,11.91,0,23.83.06,35.74,0,2.88.15,5.75.25,8.63.05,1.2.62,1.81,1.77,1.82h22.67a1.62,1.62,0,0,0,1.74-1.47,21.5,21.5,0,0,0,.45-3.92Q161.67,149.95,161.67,125Zm-60.35,55.34h19.79c2.25,0,2.67-.43,2.67-2.65v-37.9c0-2.2-.49-2.7-2.64-2.7H81.8c-2.28,0-2.74.45-2.74,2.73v37.78c0,2.32.42,2.74,2.71,2.74Z"/><path class="cls-2" d="M101.69,91.51h26.62a7.48,7.48,0,0,1,4.44,1.17,4.24,4.24,0,0,1-.51,7.45,6.9,6.9,0,0,1-3,.72c-18,.38-36,.12-54,.16a14.25,14.25,0,0,1-3.44-.4C69.27,100,68,98.41,68.09,96a4.65,4.65,0,0,1,4-4.17,17.39,17.39,0,0,1,3-.28Q88.37,91.53,101.69,91.51Z"/></svg>