<svg id="Layer_1" data-name="Layer 1" xmlns="http://www.w3.org/2000/svg" viewBox="0 0 200 200"><defs><style>.cls-1{fill:#41a6dd;}</style></defs><path class="cls-1" d="M66.22,76.65a7.2,7.2,0,0,0,14.39.18,7.3,7.3,0,0,0-7.13-7.4,7.19,7.19,0,0,0-7.26,7.22M50,47.88c.4,0,.6.13.73.06.71-.36,1.39-.76,2.1-1.13,13-7,26.15-7.19,39.58-1.09,2.76,1.25,4.76,4.91,8.16,3.79,2.95-1,5.59-3,8.21-4.84A3.61,3.61,0,0,0,110.09,42,30.18,30.18,0,0,0,56.76,24.23C51,31.08,48.86,39,50,47.88M46.11,64.13a9.55,9.55,0,0,0-.66.81c-12.52,18.53-3.66,43.73,17.92,50.72,2.22.72,3,1.62,2.94,4-.12,18.7-.08,37.41,0,56.11a4.36,4.36,0,0,0,.95,3,24.83,24.83,0,0,0,5,3,2.29,2.29,0,0,0,1.89-.16c5.9-3.52,6.07-4.09,3.56-10.58a17.65,17.65,0,0,0-.85-2.23,4.82,4.82,0,0,1,.1-5.25c3.72-5.73,3.34-11.32-.15-17a4.86,4.86,0,0,1-.11-3.92c3.15-6.89,4.87-14,4.06-21.61,0-.26,0-.54,0-.79-.59-2.85.79-3.9,3.43-4.76A33.3,33.3,0,0,0,107.2,84.82c.44-21.49-17.76-37.63-39-34.5a31.52,31.52,0,0,0-15.7,7.07l8,9.87,2-1.89A15.76,15.76,0,0,1,88.08,82.43a15.74,15.74,0,0,1-30.41-5.15A4,4,0,0,0,57,74.9c-3.5-3.59-7.1-7.07-10.84-10.77m106.71,110V122.5q0-22.83,0-45.66c0-1.46-.05-2.65-1.6-3.56-11.73-7-23.41-14-35.13-21a3.05,3.05,0,0,0-2.37-.48c-2.62,1.37-5.12,3-7.72,4.54.36.59.52.91.73,1.18A42.27,42.27,0,0,1,91,122.13a3.71,3.71,0,0,0-1.65,2.78c-.18,4.67.42,9.43-2.1,13.73a10.33,10.33,0,0,0,.34,11.67c2.17,3.29,2.07,6.51,0,9.87-2.26,3.75-2.83,7.56-.62,11.71.88,1.65,1.62,2.33,3.51,2.32,19.85-.07,39.7,0,59.55,0h2.79m8.49,8.52h-3.9c-22.78,0-45.55,0-68.33.07a8.4,8.4,0,0,0-4.5,1.59c-3.24,2.31-6.22,5-9.43,7.34a3,3,0,0,1-2.69.2c-4.48-2.52-8.92-5.12-13.21-7.92a4.4,4.4,0,0,1-1.45-3.24q-.13-27.66,0-55.3a3.48,3.48,0,0,0-2.38-3.74C30.45,110,23.31,77.6,41.27,56.37a3.85,3.85,0,0,0,.95-3.8c-5-20.95,8.19-42.37,29.15-46.79C95.93.6,116.84,18.16,118.44,40.17A6.41,6.41,0,0,0,122,46c12.39,7.23,24.63,14.71,37,22a4.16,4.16,0,0,1,2.39,4.21c-.2,8.94-.32,17.88-.3,26.83q.06,40.09.25,80.19c0,1,0,2.09,0,3.49"/><path class="cls-1" d="M135.31,118.28l5.8,5.82-28,27.89c-4.66-4.71-9.53-9.66-14.47-14.66l5.59-5.61,8.5,9.43,22.6-22.87"/></svg>