<svg id="Layer_1" data-name="Layer 1" xmlns="http://www.w3.org/2000/svg" viewBox="0 0 200 200"><defs><style>.cls-1{fill:#41a6dd;}</style></defs><path class="cls-1" d="M105.23,172.94c0,.17.08.34.13.51,3.1-.78,6.26-1.39,9.28-2.42a8,8,0,0,0,5.06-5c1.9-4.92,4-9.73,6.22-14.54.63-1.39.41-2-.92-2.82q-11.31-6.56-22.51-13.31a2.86,2.86,0,0,0-3.27-.06c-5.24,2.88-10.5,5.72-15.8,8.47-4,2.07-7.56,1.43-10.76-1.76q-14.1-14.09-28.19-28.18c-4-4-4.48-7.2-1.85-12.13s5.45-10,8-15.06a3.45,3.45,0,0,0,0-2.83c-4.43-7.67-9-15.25-13.47-22.9-.68-1.17-1.3-1.33-2.51-.81-4.77,2.08-9.53,4.22-14.39,6a9.56,9.56,0,0,0-5.56,5.63c-2.24,5-2,10.29-1,15.53,1.23,6.57,4,12.59,7.13,18.41C29,120.8,39.91,133.63,52.54,145.1c9.87,9,20.46,16.94,32.67,22.54,6.35,2.92,12.87,5.33,20,5.3M117.65,45H55.41c-4.25,0-5.6,1.35-5.61,5.53s-.07,8.58,0,12.86A7.84,7.84,0,0,0,50.79,67c2.44,4.35,5,8.64,7.59,12.9A9.3,9.3,0,0,1,58.64,90c-2.82,5-5.44,10.16-8.22,15.21a2,2,0,0,0,.41,2.9q13.53,13.45,27,27a2,2,0,0,0,2.88.4c5.11-2.8,10.32-5.46,15.43-8.27a9.21,9.21,0,0,1,10,.27c4,2.42,7.93,4.84,12,7.09a8.87,8.87,0,0,0,4.13,1.15c19.2.08,38.4.05,57.6.05,4.75,0,6-1.23,6-6V71c0-6.89,0-13.78,0-20.67,0-1.93-.29-3.79-2.17-4.68a8.93,8.93,0,0,0-3.69-.6q-31.11-.06-62.24,0M41.22,52.25c0-1.51-.07-2.69,0-3.87A12.57,12.57,0,0,1,53,36.48c.84-.06,1.68-.08,2.53-.08q62.23,0,124.47,0c5.73,0,10.26,1.87,12.85,7.08a14.85,14.85,0,0,1,1.41,6.27q.14,40.7,0,81.41c0,8.11-5.39,13.31-13.66,13.34-14.84,0-29.68,0-44.52,0h-2.77c3.1,4.34,1.52,8.13-.29,12a108.47,108.47,0,0,0-5,11.83c-2.62,7.92-8.77,11.22-16.19,12.74-9.33,1.91-18.16-.42-26.73-3.94-13.91-5.7-25.92-14.37-37-24.32A173.05,173.05,0,0,1,18.85,119.4C12.06,109.12,6.5,98.26,4.7,85.88c-1.23-8.39.07-16.3,5.5-23.1a12.44,12.44,0,0,1,4.43-3.4c5.81-2.68,11.73-5.11,17.6-7.66a9.85,9.85,0,0,1,9,.53"/><path class="cls-1" d="M131,97.53c-3.38,2.92-6.59,5.76-9.86,8.52-2.6,2.21-4.26,2.16-6.87-.07s-5.52-4.59-8.16-7c-1.15-1.07-1.87-.89-3,0-8.33,6.71-16.71,13.35-25.07,20-2.42,1.92-4.72,2-6.44.26-2-2-1.71-4.65.85-6.74,4-3.3,8.13-6.5,12.2-9.75L98.08,92c-2.47-2.17-4.8-4.24-7.16-6.28L60.42,59.38a15.07,15.07,0,0,1-1.24-1.15,4.22,4.22,0,0,1-.32-5.9,4.1,4.1,0,0,1,6-.44c3.36,2.78,6.62,5.68,9.92,8.54q21,18.23,42.09,36.48c.21.18.45.33.9.65,2.67-2.3,5.38-4.6,8.07-6.92q21.62-18.72,43.22-37.44a17.72,17.72,0,0,1,2.33-1.81,4.2,4.2,0,0,1,5.64,5.88,10.56,10.56,0,0,1-1.84,2q-17.85,15.49-35.72,30.95c-.52.45-1,.93-1.68,1.57L150,101.15q12.56,9.64,25.09,19.3c2.53,2,3.17,3.79,2.2,6a3.86,3.86,0,0,1-5.42,2.07,12.67,12.67,0,0,1-2.47-1.59L132.56,98.6c-.44-.34-.92-.64-1.56-1.07"/></svg>