<svg id="Layer_1" data-name="Layer 1" xmlns="http://www.w3.org/2000/svg" viewBox="0 0 200 200"><defs><style>.cls-1{fill:#41a6dd;}</style></defs><path class="cls-1" d="M105.5,103.31H93.11v12.63H105.5ZM137,59.38A37.74,37.74,0,1,0,99.75,96.91,37.72,37.72,0,0,0,137,59.38m-6.08,107c.63,0,1.11.12,1.59.12q25.38,0,50.76,0c3.28,0,4.23-1,4.23-4.36q0-9.51,0-19c0-.53-.06-1.07-.1-1.72-.93,0-1.73,0-2.52,0-2.47-.13-3.64-1.19-3.64-3.23s1.23-3.11,3.66-3.21c.83,0,1.66,0,2.46,0,.51-5.27-.31-6.19-5.28-6.19H131v6.19h2.15q12.27,0,24.55,0a15.24,15.24,0,0,1,2,.14,2.85,2.85,0,0,1,2.6,3.07,2.78,2.78,0,0,1-2.58,3.06,17.79,17.79,0,0,1-2.19.17H130.92Zm-119.87-25v20.37c0,3.87.88,4.75,4.79,4.75H67.59V141.38H65.44c-6,0-12.06,0-18.09,0a11.1,11.1,0,0,1-2.38-.22,2.9,2.9,0,0,1-2.28-3.74c.42-1.77,1.49-2.47,4-2.48h19c.64,0,1.29-.06,1.89-.09v-6c-.6,0-1-.07-1.46-.07H15.34c-.43,0-.86,0-1.29.06a2.82,2.82,0,0,0-2.9,2.77,28.5,28.5,0,0,0,0,3.35c3.08,0,6-.05,8.85,0,2.58.06,3.8,1.33,3.63,3.59-.15,1.84-1.36,2.79-3.82,2.84-2.82,0-5.65,0-8.73,0m113.38,6.22V126.75c0-3.39-.87-4.31-4.21-4.32q-20.94,0-41.89,0c-3.28,0-4.19.94-4.19,4.15q0,21,0,42.06c0,3.12,1,4.15,4,4.16q21.13,0,42.26,0c3,0,4-1.05,4-4.17q0-10.51,0-21M75.28,179.15c-2.94-1.09-5.48-2.62-6.82-5.69-.18-.4-1.24-.58-1.9-.59q-25.28,0-50.57,0c-.62,0-1.23,0-1.85,0a9.29,9.29,0,0,1-9.36-9.58q0-15.42,0-30.82c0-6.17,3.82-10,10-10.08,7,0,14,0,21,0,10.28,0,20.55,0,30.83,0a2.14,2.14,0,0,0,2.27-1.32c1.74-3.37,4.7-4.9,8.42-5,3.06-.06,6.12,0,9.37,0,0-4.68,0-9.15-.07-13.62,0-.43-.89-1-1.47-1.22A43.89,43.89,0,0,1,67.1,89.47a43.23,43.23,0,0,1-11.82-32.3A43.85,43.85,0,0,1,90.57,16.23c17.12-3.3,31.73,2,42.84,15.43C148.74,50.14,146.2,77,128.05,92.77a41.33,41.33,0,0,1-14.1,8.17,2.14,2.14,0,0,0-1.79,2.45c.11,4.16,0,8.33,0,12.67,2.87,0,5.56,0,8.25,0,4.24,0,7.49,1.53,9.52,5.41a2.52,2.52,0,0,0,1.92.85c6.09.06,12.18,0,18.27,0,10.46,0,20.93.16,31.38-.07,5.84-.12,10.2,1.58,12.26,7.41v35.8c-.12.14-.28.25-.34.4-1.73,4.8-4.73,6.92-9.85,7h-4.24q-23.7,0-47.39,0c-.65,0-1.7.2-1.88.6-1.35,3.07-3.89,4.59-6.82,5.68Z"/><path class="cls-1" d="M36.23,138.1a3,3,0,0,1-3,3.19,3.1,3.1,0,0,1-3.27-3.18A3.16,3.16,0,0,1,33.11,135a3,3,0,0,1,3.12,3.12"/><path class="cls-1" d="M168.64,138.22a3,3,0,0,1,3-3.24,3.17,3.17,0,0,1,3.29,3.2,3.11,3.11,0,0,1-3.15,3.12,3,3,0,0,1-3.13-3.08"/><path class="cls-1" d="M113.89,79.68c-9.19-6.63-22.75-5.12-28.64.23,7.28,6.16,20.64,6.08,28.64-.23M95.9,34.6c-12.13,1.47-20.67,12-21.37,21.6,2.44.18,5.8-.62,5.79,3.25s-3.31,3-5.86,3.16A23.67,23.67,0,0,0,80,75.41c13-8.87,25.84-8.81,38.67,0a23.85,23.85,0,0,0,5.45-12.68c-4.9-.62-6-1.22-5.9-3.31.27-3.89,3.47-3,5.86-3.24-.8-10-9.69-20.27-21.41-21.56-.33,2.4.43,5.77-3.4,5.78s-2.85-3.5-3.33-5.8m34.9,24.77c.13,16.94-14,31.41-30.83,31.55a31.57,31.57,0,0,1-32.2-31.28c-.23-17.21,14-31.66,31.38-31.77a31.71,31.71,0,0,1,31.65,31.5"/><path class="cls-1" d="M112.28,49.79a15.47,15.47,0,0,1-1.63,2.64c-2.94,3-5.94,6-9,9-1.49,1.46-3.29,1.51-4.56.24a3.05,3.05,0,0,1,.08-4.58c3-3.12,6.13-6.18,9.23-9.24a2.75,2.75,0,0,1,3.51-.67,12.86,12.86,0,0,1,2.33,2.63"/></svg>