<svg id="Layer_1" data-name="Layer 1" xmlns="http://www.w3.org/2000/svg" viewBox="0 0 200 200"><defs><style>.cls-1{fill:#41a6dd;}</style></defs><path class="cls-1" d="M103.78,65h17.44v5.56H103.78ZM65.61,76.68h93.75V94.13H65.61ZM42,173.47V50.24H103.6V59h-2.51C99,59,97.85,60,97.8,62.15c-.06,2.47,0,4.95,0,7.43,0,.31,0,.62-.09,1.11H63.82c-3.37,0-4.18.81-4.18,4.23V96.53c0,2.56,1,3.56,3.75,3.56H112.1q24.63,0,49.26,0c1.75,0,3.14-.42,4-2.07V72.73c-.83-1.65-2.22-2.07-4-2.06-10.83,0-21.65,0-32.48,0h-1.6c0-.51-.09-.77-.09-1,0-2.52,0-5,0-7.56A2.89,2.89,0,0,0,124,59h-2.66V36.39c0-3-.88-3.84-3.85-3.84h-89c-3.16,0-4,.82-4,4V173.47h5.78c0-.45.11-.9.11-1.36q0-66,0-131.94V38.56h85V58.87h-5.75V57.29c0-3.26,0-6.52,0-9.77,0-2.15-1.1-3.16-3.25-3.26H39.86c-2.7,0-3.71,1-3.73,3.75v.41q0,59.64,0,119.29c0,1.92.08,3.84.12,5.76Z"/><path class="cls-1" d="M97.86,113.19c0-2.24,0-4.49,0-6.73s-1.21-3.48-3-3.45-2.92,1.34-2.92,3.44q0,6.87,0,13.73c0,2,1.24,3.42,3,3.42s3-1.37,3-3.4c0-2.34,0-4.68,0-7"/><path class="cls-1" d="M150.66,113.26c0,2.51,0,5,0,7.55a2.72,2.72,0,0,0,2,2.62,2.56,2.56,0,0,0,3-.81,3.69,3.69,0,0,0,.78-2.1c.07-4.8.05-9.61,0-14.41a2.9,2.9,0,0,0-2.79-3.1,2.86,2.86,0,0,0-3.07,3c-.07,2.43,0,4.85,0,7.28h0"/><path class="cls-1" d="M91.88,135.43c0,1.78,0,3.57,0,5.36,0,2,1.28,3.36,3.05,3.33a3.05,3.05,0,0,0,2.93-3.32c0-3.66,0-7.33,0-11a3,3,0,1,0-6,0c0,1.88,0,3.76,0,5.64"/><path class="cls-1" d="M121.29,111.74c0-1.88,0-3.75,0-5.63a2.88,2.88,0,0,0-2.79-3.09,2.82,2.82,0,0,0-3.06,3c-.07,3.89-.07,7.79,0,11.68a2.82,2.82,0,0,0,3.07,3,2.88,2.88,0,0,0,2.78-3.1c0-1.92,0-3.85,0-5.77"/><path class="cls-1" d="M138.91,123.51c0,1.93,0,3.85,0,5.77a3,3,0,0,0,2.81,3.13,2.91,2.91,0,0,0,3-2.89q.11-6,0-12a2.8,2.8,0,0,0-3.07-2.81,2.85,2.85,0,0,0-2.77,3c0,1.92,0,3.84,0,5.76"/><path class="cls-1" d="M86.06,123.48c0-1.88,0-3.76,0-5.63a2.89,2.89,0,0,0-2.8-3.1,2.82,2.82,0,0,0-3,2.85q-.12,6,0,12a2.91,2.91,0,0,0,3.06,2.86,3,3,0,0,0,2.78-3.16c0-1.93,0-3.85,0-5.77"/><path class="cls-1" d="M103.68,141.23c0,1.88,0,3.76,0,5.63a3,3,0,0,0,2.9,3.17,3,3,0,0,0,3-3c.06-3.89.07-7.78,0-11.67a2.85,2.85,0,0,0-3.05-3c-1.7.06-2.79,1.31-2.81,3.23,0,1,0,1.92,0,2.88v2.75"/><path class="cls-1" d="M156.52,135.28c0-1.92,0-3.85,0-5.77a3,3,0,0,0-2.87-3.06,2.9,2.9,0,0,0-3,2.83q-.1,6,0,12.08a2.78,2.78,0,0,0,3,2.75,2.87,2.87,0,0,0,2.83-3.06c0-1.92,0-3.85,0-5.77"/><path class="cls-1" d="M127.11,154.44c0,1.38,0,2.75,0,4.13a3,3,0,1,0,6,0q0-4.12,0-8.25a3,3,0,0,0-3-3.22c-1.75,0-2.93,1.29-3,3.27,0,1.37,0,2.75,0,4.12"/><path class="cls-1" d="M86.06,142.57c0-1.42,0-2.84,0-4.26a3,3,0,0,0-2.89-3.05,2.9,2.9,0,0,0-2.94,2.85q-.12,4.53,0,9.08a2.91,2.91,0,0,0,3,2.84A3,3,0,0,0,86.05,147c0-1.47,0-2.93,0-4.4"/><path class="cls-1" d="M121.29,142.51c0-1.42,0-2.84,0-4.26a3,3,0,0,0-2.81-3,2.89,2.89,0,0,0-3,2.77c-.09,3.07-.09,6.15,0,9.22a2.89,2.89,0,0,0,3,2.78,3,3,0,0,0,2.82-3c0-1.51,0-3,0-4.54"/><path class="cls-1" d="M138.91,142.76c0,1.43,0,2.85,0,4.27a3,3,0,0,0,2.8,3,2.87,2.87,0,0,0,3-2.76c.09-3.06.1-6.14,0-9.21a2.9,2.9,0,0,0-3-2.79,3,3,0,0,0-2.83,3.1c0,1.47,0,2.94,0,4.4"/><path class="cls-1" d="M68.45,154.4c0,1.47,0,2.93,0,4.4a2.87,2.87,0,0,0,2.84,2.93,2.75,2.75,0,0,0,3-2.62c.11-3.11.11-6.23,0-9.34a2.75,2.75,0,0,0-3-2.71,2.86,2.86,0,0,0-2.8,2.94c0,1.47,0,2.94,0,4.4"/><path class="cls-1" d="M103.69,110.38c0,1.47,0,2.93,0,4.4a2.86,2.86,0,0,0,2.85,2.91,2.77,2.77,0,0,0,3-2.64q.15-4.74,0-9.47a2.72,2.72,0,0,0-3-2.56,2.86,2.86,0,0,0-2.78,2.83c0,1.51,0,3,0,4.53"/><path class="cls-1" d="M97.86,154.62c0-1.23,0-2.47,0-3.7a3,3,0,1,0-6-.08c0,2.61,0,5.21,0,7.82a3,3,0,0,0,3,3.07,3,3,0,0,0,2.95-3.13c0-.68,0-1.37,0-2.06v-1.92"/><path class="cls-1" d="M156.52,154.65c0-1.33,0-2.66,0-4a3,3,0,0,0-2.82-3,2.9,2.9,0,0,0-3,2.78c-.09,2.84-.09,5.69,0,8.53a2.79,2.79,0,0,0,3,2.74,2.87,2.87,0,0,0,2.82-2.95c0-1.38,0-2.75,0-4.13"/><path class="cls-1" d="M127.11,123.64c0,.92,0,1.83,0,2.74a3,3,0,1,0,6,0c0-1.87,0-3.75,0-5.62a3,3,0,1,0-6,0c0,1,0,1.92,0,2.88"/><path class="cls-1" d="M127.12,108.79c0,1-.05,2,0,3a3,3,0,0,0,3,3,3,3,0,0,0,3-3c.06-2,.07-3.94,0-5.9a2.9,2.9,0,0,0-2.9-2.88,2.94,2.94,0,0,0-3,2.9c-.06,1,0,1.92,0,2.88"/><path class="cls-1" d="M127.12,138.31c0,.91,0,1.83,0,2.74a3,3,0,0,0,3,3.06,2.94,2.94,0,0,0,2.93-3c.06-1.91.06-3.83,0-5.75a2.94,2.94,0,0,0-2.94-3,3,3,0,0,0-3,3.06c0,1,0,1.92,0,2.88"/><path class="cls-1" d="M68.46,123.65c0,1,0,2,0,3a2.86,2.86,0,0,0,2.7,2.75A2.71,2.71,0,0,0,74.23,127a60,60,0,0,0,0-6.84,2.82,2.82,0,0,0-3-2.46,2.93,2.93,0,0,0-2.78,2.72c-.06,1.09,0,2.19,0,3.28"/><path class="cls-1" d="M68.45,108.91c0,1,0,2,0,3a3,3,0,0,0,2.78,2.87,2.86,2.86,0,0,0,3-2.6,59.9,59.9,0,0,0,0-6.7A2.73,2.73,0,0,0,71.18,103a2.88,2.88,0,0,0-2.72,2.74c0,1,0,2.1,0,3.15"/><path class="cls-1" d="M68.46,138.27c0,1,0,2,0,3a2.87,2.87,0,0,0,2.81,2.82,2.71,2.71,0,0,0,3-2.47,60.38,60.38,0,0,0,0-6.86,2.7,2.7,0,0,0-3-2.4,2.83,2.83,0,0,0-2.75,2.72c0,1.06,0,2.11,0,3.17"/><path class="cls-1" d="M103.69,125.05c0,.55,0,1.1,0,1.65a2.89,2.89,0,0,0,2.74,2.72,2.74,2.74,0,0,0,3-2.37,18.72,18.72,0,0,0,0-4,2.77,2.77,0,0,0-3.09-2.46,2.9,2.9,0,0,0-2.69,2.78c0,.54,0,1.09,0,1.64"/><path class="cls-1" d="M121.28,128c0-.6,0-1.2,0-1.79a2.89,2.89,0,0,0-2.71-2.62,2.75,2.75,0,0,0-3,2.34,20,20,0,0,0,0,4.09,2.84,2.84,0,0,0,2.9,2.41,3,3,0,0,0,2.85-2.65c0-.59,0-1.19,0-1.78Z"/><path class="cls-1" d="M86.05,107.33c0-.54,0-1.1,0-1.64A2.87,2.87,0,0,0,83.26,103a2.73,2.73,0,0,0-3,2.42,20.15,20.15,0,0,0,0,4,2.75,2.75,0,0,0,3,2.41,2.9,2.9,0,0,0,2.78-2.69c0-.6,0-1.19,0-1.79"/><path class="cls-1" d="M138.92,107.46c0,.55,0,1.1,0,1.64a2.89,2.89,0,0,0,2.76,2.71,2.74,2.74,0,0,0,3-2.4,20.15,20.15,0,0,0,0-4,2.77,2.77,0,0,0-3.11-2.43,2.88,2.88,0,0,0-2.67,2.79c0,.55,0,1.1,0,1.65"/><path class="cls-1" d="M138.92,157.28c0,.55,0,1.1,0,1.64a2.87,2.87,0,0,0,2.81,2.81,2.78,2.78,0,0,0,3-2.45,20.42,20.42,0,0,0,0-3.83,2.89,2.89,0,0,0-3-2.57,3,3,0,0,0-2.76,2.89c0,.5,0,1,0,1.51"/><path class="cls-1" d="M121.28,157.38c0-.6,0-1.19,0-1.79a3,3,0,0,0-2.79-2.71,2.88,2.88,0,0,0-3,2.47,21.3,21.3,0,0,0,0,3.83,2.79,2.79,0,0,0,3,2.55,2.9,2.9,0,0,0,2.78-2.85c0-.5,0-1,0-1.5Z"/><path class="cls-1" d="M103.69,157.28c0,.6,0,1.19,0,1.78a2.87,2.87,0,0,0,2.81,2.67,2.73,2.73,0,0,0,2.93-2.32,20.07,20.07,0,0,0,0-4.1,2.87,2.87,0,0,0-3-2.43,3,3,0,0,0-2.74,2.76c0,.54,0,1.09,0,1.64"/><path class="cls-1" d="M86.05,157.36c0-.55,0-1.1,0-1.64a3,3,0,0,0-2.81-2.84,2.87,2.87,0,0,0-3,2.49,21,21,0,0,0,0,4,2.76,2.76,0,0,0,3,2.39A2.87,2.87,0,0,0,86.05,159c0-.55,0-1.1,0-1.65"/><path class="cls-1" d="M78.84,91.28c2.29,0,4.58,0,6.87,0,2,0,3.39-1.33,3.33-3s-1.4-2.84-3.36-2.84q-7,0-14,0a2.9,2.9,0,0,0-3.21,2.81,2.87,2.87,0,0,0,3.11,3.06c2.42,0,4.85,0,7.27,0"/><path class="cls-1" d="M96.36,85.4c-.59,0-1.19,0-1.78,0a3,3,0,0,0-2.68,2.82,2.85,2.85,0,0,0,2.36,2.93,19.41,19.41,0,0,0,4,0,2.77,2.77,0,0,0,2.51-3,2.87,2.87,0,0,0-2.86-2.75c-.5,0-1,0-1.51,0Z"/></svg>