<svg id="Layer_1" data-name="Layer 1" xmlns="http://www.w3.org/2000/svg" viewBox="0 0 200 200"><defs><style>.cls-1,.cls-2{fill:#41a6dd;stroke:#41a6dd;stroke-miterlimit:10;}.cls-1{stroke-width:3px;}.cls-2{stroke-width:4px;}</style></defs><path class="cls-1" d="M58.09,76.65c.13-1.42.27-3.45.51-5.47a6.68,6.68,0,0,0-1.69-5.49c-1.46-1.63-3-3.24-4.32-4.95-3.15-4-3.19-7.81-.16-11.87a19.65,19.65,0,0,1,2.76-3.19c3.21-2.76,3.94-6.17,3.21-10.17a25.22,25.22,0,0,1-.28-5.14,7.38,7.38,0,0,1,5-7.28,47.2,47.2,0,0,1,7.53-2,7.9,7.9,0,0,0,5.8-4.28,52.79,52.79,0,0,1,3.25-5.34c2.66-3.78,6-4.85,10.4-3.33a53.51,53.51,0,0,1,5.76,2.41,8.24,8.24,0,0,0,7.37,0,56.76,56.76,0,0,1,7-2.71c3.56-1,6.5.22,8.69,3.09a29.4,29.4,0,0,1,3.14,5,9.23,9.23,0,0,0,7.62,5.45,27.24,27.24,0,0,1,5.74,1.49,7.67,7.67,0,0,1,5.48,7.88,60.68,60.68,0,0,1-.49,6.86A7.51,7.51,0,0,0,142.22,44c1.52,1.65,3.05,3.3,4.4,5.09,2.9,3.85,2.84,7.66-.13,11.48-1.28,1.65-2.69,3.2-4.11,4.72a7.5,7.5,0,0,0-2,6.46,53.29,53.29,0,0,1,.47,7,7.83,7.83,0,0,1-6,8c-2.43.74-4.94,1.27-7.42,1.85a6.33,6.33,0,0,0-4.3,3.09c-1.09,1.89-2.15,3.81-3.37,5.63-3,4.55-6.48,5.65-11.6,3.71-2-.77-4-1.7-6-2.54a6.57,6.57,0,0,0-5.32,0c-2,.84-4,1.78-6.05,2.55-5,1.88-8.53.74-11.49-3.69a44.25,44.25,0,0,1-2.52-4.32,8.2,8.2,0,0,0-6.3-4.78,44,44,0,0,1-5.17-1.2C59.9,85.59,57.9,82.82,58.09,76.65Zm5.46-38.19A11,11,0,0,1,60.63,47c-1.41,1.61-2.89,3.17-4.2,4.85-1.79,2.28-1.77,3.58,0,5.88a50.41,50.41,0,0,0,3.62,4.11,11.77,11.77,0,0,1,3.4,9.86c-.21,1.92-.41,3.84-.51,5.77-.17,3.07.6,4.17,3.56,5,1.91.52,3.87.86,5.8,1.3a11.22,11.22,0,0,1,7.82,5.7A64,64,0,0,0,83.6,95c1.45,2.12,2.54,2.46,5,1.6,1.66-.59,3.29-1.32,4.89-2.07a13.25,13.25,0,0,1,11.91-.06,55,55,0,0,0,5.32,2.24c2,.71,3.13.38,4.37-1.34a35.89,35.89,0,0,0,2.87-4.65,13,13,0,0,1,10.21-7.37,33.6,33.6,0,0,0,4.72-1.09c2.48-.75,3.12-1.65,3.09-4.19a21.2,21.2,0,0,0-.28-3.74c-1-5.38.2-10,4.33-13.8a25.62,25.62,0,0,0,2.94-3.45,3.56,3.56,0,0,0-.06-4.75c-1.23-1.54-2.52-3.06-3.88-4.5a12.35,12.35,0,0,1-3.54-10.43c.27-2.18.37-4.37.48-6.56a3.17,3.17,0,0,0-2.42-3.41,25.21,25.21,0,0,0-4.23-1.07c-5.45-.69-9.46-3.29-11.79-8.37a22.8,22.8,0,0,0-2-3.35c-1.58-2.28-2.75-2.68-5.33-1.72-1.81.67-3.57,1.48-5.32,2.28a12.41,12.41,0,0,1-10.74,0c-1.66-.75-3.32-1.52-5-2.18-2.9-1.11-4.11-.73-5.81,1.88-1.19,1.84-2.24,3.76-3.37,5.63a10.34,10.34,0,0,1-6.59,4.92c-2.23.55-4.48,1-6.7,1.57-3,.79-3.83,2-3.6,5.08C63.15,34.2,63.37,36.33,63.55,38.46Z"/><path class="cls-1" d="M27.87,171.7l-5.45-9.45-2.77,1.59c-2,1.17-3.07,1-4-.54q-4.9-8.46-9.78-17c-.77-1.34-.34-2.45,1.39-3.45q8.64-5,17.3-10c1.84-1,3-.78,3.91.86l23.91,41.41c1.08,1.87,2.17,3.73,3.24,5.61.94,1.63.54,2.69-1.48,3.86l-16.88,9.74c-2,1.17-3.06,1-4-.56q-4.87-8.42-9.71-16.84c-.85-1.47-.41-2.54,1.47-3.65Zm-3.19-34-13.33,7.7,8,13.94c1.86-1.07,1-.62,2.83-1.63s3-.91,3.81.52q3.66,6.19,7.22,12.44c.81,1.44.33,2.49-1.49,3.56l-2.83,1.64,8,13.91L50.3,182Z"/><path class="cls-1" d="M95.91,62.38c2.64-2.69,5.11-5.23,7.6-7.74,3.93-4,7.89-7.91,11.83-11.85l.68-.65c1.25-1.14,2.76-1.19,3.75-.14a2.5,2.5,0,0,1-.27,3.62c-1.87,1.9-3.76,3.77-5.64,5.65q-7.8,7.8-15.61,15.6c-1.8,1.8-2.91,1.78-4.74,0C88.9,62.22,84.26,57.64,79.72,53a4,4,0,0,1-1.09-2.71c.2-2,2.67-2.55,4.23-1,2.8,2.72,5.56,5.5,8.32,8.28C92.71,59,94.21,60.63,95.91,62.38Z"/><path class="cls-2" d="M126.81,131.75,131,130q15.55-6.45,31.1-12.89c3.95-1.65,7.87-3.35,11.81-5a13.22,13.22,0,0,1,9.71-.7,12.59,12.59,0,0,1,6.88,5.63,1.78,1.78,0,0,1-.52,2.52L168,135.71q-9.84,7.22-19.69,14.42c-5,3.64-9.89,7.36-14.95,10.89a21.71,21.71,0,0,1-15.14,3.81c-3.28-.36-6.53-1-9.79-1.49L99,161.85c-3.41-.55-6.81-1.11-10.22-1.65l-10.17-1.61c-2.52-.39-5-.8-7.55-1.18a1.1,1.1,0,0,0-.74.2Q65,162,59.78,166.4a2.12,2.12,0,0,1-1.67.7,1.69,1.69,0,0,1-1.52-1.29,1.58,1.58,0,0,1,.57-1.79c3.18-2.67,6.38-5.33,9.57-8a12.26,12.26,0,0,0,1.33-1.14,3.57,3.57,0,0,1,3.61-1c4.31.75,8.64,1.4,13,2.09l12.65,2.05,13.5,2.12c2.51.39,5,.88,7.55,1.16A19,19,0,0,0,132,157.66q11.49-8.35,22.95-16.78l19.83-14.55,10.84-7.94c.92-.67.94-1,.06-1.76a8.61,8.61,0,0,0-9.54-1.61c-3.69,1.47-7.33,3.07-11,4.6l-33.55,13.93-7.6,3.14a1.94,1.94,0,0,0-.56.32,12,12,0,0,1-6.67,2.73,122.12,122.12,0,0,1-18.34.62c-1.43,0-2.86-.14-4.28-.22a1.68,1.68,0,0,1-1.62-1.93,1.77,1.77,0,0,1,1.86-1.53c2.79.1,5.58.2,8.37.23,2.51,0,5,.09,7.52-.06a60.19,60.19,0,0,0,7.59-.88c3.22-.61,5-2.76,5.59-5.95,0-.3.11-.6.16-.9,0-.06,0-.12,0-.25l-5-1.53c-7.57-2.29-15.13-4.61-22.71-6.85a24.64,24.64,0,0,0-8.93-.79A42.39,42.39,0,0,0,71.21,124c-2.42,1.19-4.67,2.73-7,4.12Q54.6,133.87,45,139.66c-.74.44-1.47.91-2.21,1.36a1.8,1.8,0,0,1-2.61-.47A1.78,1.78,0,0,1,41,138l16.87-10.21c3.46-2.09,6.9-4.21,10.38-6.27a39.91,39.91,0,0,1,9.67-3.81,42.07,42.07,0,0,1,11.7-1.64,34.1,34.1,0,0,1,9.85,1.73c8.69,2.67,17.4,5.28,26.11,7.91a1.78,1.78,0,0,1,1.53,2C127,129.08,126.9,130.4,126.81,131.75Z"/></svg>