<svg id="Layer_1" data-name="Layer 1" xmlns="http://www.w3.org/2000/svg" viewBox="0 0 200 200"><defs><style>.cls-1{fill:#41a6dd;}</style></defs><path class="cls-1" d="M59.28,39.24c.55-.2,1-.35,1.36-.51q20.22-8.19,40.44-16.38a4.73,4.73,0,0,1,3.83,0q20.34,8.3,40.72,16.5c.33.14.67.24,1.12.39,0-2.61,0-5.1,0-7.58a1.4,1.4,0,0,0-1.06-1.55q-21-8.29-41.88-16.61a2.4,2.4,0,0,0-1.61,0Q81.74,21.56,61.3,29.72c-2,.81-2,.81-2,3v6.52M125.88,94V92.79c0-5.83,0-11.66,0-17.49,0-.71,0-1.43-.12-2.14a11.09,11.09,0,0,0-10.29-9.78c-5.78-.2-10.68,3.52-11.6,8.95a41,41,0,0,0-.24,4.58,3.27,3.27,0,0,1-3.26,3.14,3.2,3.2,0,0,1-3.27-3.22A34.82,34.82,0,0,1,97.29,72a17.54,17.54,0,0,1,24.49-13.75c7,3.14,10.49,8.78,10.64,16.4.12,6.07,0,12.14,0,18.2V94h8.64c0-.28,0-.48,0-.69q0-24.18,0-48.37c0-.74-.32-1-.92-1.22Q122,36.38,103.83,29a2.38,2.38,0,0,0-1.6,0Q84.07,36.32,65.92,43.66a1.4,1.4,0,0,0-1.08,1.53q0,23.88,0,47.76V94H97.09c0-1.82,0-3.59,0-5.35a3.22,3.22,0,0,1,3.4-3.19,3.26,3.26,0,0,1,3.13,3.37c0,1.72,0,3.45,0,5.18Zm21.8-47.26V48c0,16.19,0,32.38,0,48.57a3.67,3.67,0,0,1-4,4.05q-61-.06-122,0c-3.59,0-6.37,1.91-7.31,5.08a7.88,7.88,0,0,0-.32,2.21q0,22.61,0,45.2a7.12,7.12,0,0,0,7.23,7.27h2.3c-.5-.68-.88-1.18-1.25-1.7a3.28,3.28,0,0,1,.61-4.64,3.24,3.24,0,0,1,4.62.69q2.66,3.45,5.22,7a3.15,3.15,0,0,1,0,4.06q-2.55,3.45-5.16,6.86a3.27,3.27,0,1,1-5.25-3.91c.38-.54.79-1.06,1.24-1.66-1.71-.12-3.27-.09-4.8-.34A13.56,13.56,0,0,1,7.5,153.63q-.06-23.12,0-46.23A13.64,13.64,0,0,1,20.86,94.09c12,0,24.07,0,36.1,0h1.3V46.81c-.38.14-.71.27-1,.38a3.23,3.23,0,0,1-4.44-2.94c-.08-5.35-.06-10.7,0-16a3.28,3.28,0,0,1,2.41-3.09q14.37-5.7,28.71-11.43c5.84-2.33,11.69-4.64,17.52-7a4.12,4.12,0,0,1,3.25,0q23.05,9.22,46.12,18.4a3.41,3.41,0,0,1,2.52,3.74c0,4.91-.08,9.82,0,14.73.06,2.95-2.55,4.71-5,3.44-.14-.07-.3-.11-.64-.23"/><path class="cls-1" d="M103,183.88h55.74a4.43,4.43,0,0,0,4.82-4.83V132.2c0-3.11-1.75-4.84-4.89-4.84q-55.69,0-111.38,0a4.77,4.77,0,0,0-4.91,4.9q.12,23.33,0,46.64a4.84,4.84,0,0,0,5.08,5.06c18.51-.07,37,0,55.54,0m67.11-23.41a49.19,49.19,0,0,0,6.64-.36,6.8,6.8,0,0,0,5.41-6.69q0-22.9,0-45.82a7.15,7.15,0,0,0-6.61-7c-.34,0-.68,0-1,0h-8.71c.44.6.78,1.08,1.13,1.55a3.29,3.29,0,1,1-5.22,4q-2.5-3.3-5-6.62a3.23,3.23,0,0,1,0-4.31c1.67-2.25,3.34-4.48,5-6.71a3.28,3.28,0,1,1,5.25,3.93c-.35.49-.72,1-1.17,1.58.42,0,.7.06,1,.06H175a13.68,13.68,0,0,1,13.8,13.82v45.21A13.63,13.63,0,0,1,175,166.92h-4.82v1.18c0,3.75,0,7.5,0,11.25a10.9,10.9,0,0,1-11.07,11.07q-56.1,0-112.2,0a10.81,10.81,0,0,1-10.95-10.75q-.09-24,0-48.07c0-6.14,4.78-10.68,11.11-10.82.44,0,.89,0,1.33,0q55.08,0,110.15,0c5.18,0,9.21,2.51,10.85,7a13.36,13.36,0,0,1,.76,4.38c.07,9,0,17.93,0,26.9Z"/><path class="cls-1" d="M88.15,60.11c0-1.87,0-3.75,0-5.62a2.21,2.21,0,0,0-2.45-2.39H78.44A2.23,2.23,0,0,0,76,54.59q0,5.52,0,11a2.29,2.29,0,0,0,2.6,2.56c2.32,0,4.63,0,7,0a2.31,2.31,0,0,0,2.61-2.57c0-1.84,0-3.68,0-5.52m6.55,0v5.42c0,5.12-3.25,8.81-8.35,9.16a62.65,62.65,0,0,1-9.19-.07,8.56,8.56,0,0,1-7.7-8.39q-.08-6.07,0-12.17a8.65,8.65,0,0,1,8.27-8.49q4.33-.15,8.69,0a8.62,8.62,0,0,1,8.24,8.3c.08,2.08,0,4.16,0,6.24h0"/><path class="cls-1" d="M151.45,145.88a10.91,10.91,0,0,1-5-3.54,6.55,6.55,0,0,1-1.18-1.89c-.38-1.26-1.12-1.47-2.32-1.46-7.33.06-14.66,0-22,0-2.1,0-3.45-1.1-3.66-2.93a3.16,3.16,0,0,1,3-3.59c1.87-.05,3.75,0,5.62,0h21c2.46,0,3.6,1.08,3.78,3.55a4,4,0,0,0,3.39,3.69c.23,0,.47.07.7.09a3.3,3.3,0,0,1,3.26,3.68q0,11.76,0,23.52c0,.37,0,.75,0,1.12a3.28,3.28,0,0,1-3.24,3.28,4.05,4.05,0,0,0-4.12,4.06,3.26,3.26,0,0,1-3.43,3.29q-13.29,0-26.59,0a3.27,3.27,0,1,1,.06-6.54h22.91a1.19,1.19,0,0,0,1.35-.86,10.15,10.15,0,0,1,5.7-5.69c.49-.21.84-.37.84-1.06,0-6.1,0-12.2,0-18.3,0-.13,0-.27,0-.44"/><path class="cls-1" d="M72.08,132.48H85.17c2.19,0,3.57,1.22,3.59,3.17S87.38,139,85.12,139c-7.53,0-15.06,0-22.6,0A1.33,1.33,0,0,0,61,140a10.12,10.12,0,0,1-5.66,5.59,1.06,1.06,0,0,0-.82,1.16q0,8.9,0,17.79a1.08,1.08,0,0,0,.81,1.18,10.21,10.21,0,0,1,5.75,5.76,1.15,1.15,0,0,0,1.29.81c7.7,0,15.41,0,23.11,0a3.27,3.27,0,0,1,.83,6.43,4.59,4.59,0,0,1-1.11.1q-13.14,0-26.28,0a3.27,3.27,0,0,1-3.56-3.36,4.09,4.09,0,0,0-4-4A3.27,3.27,0,0,1,48,167.85q0-12.27,0-24.54a3.25,3.25,0,0,1,3.12-3.49c2.85-.32,4-1.48,4.25-4.37a3.23,3.23,0,0,1,3.4-3c4.43,0,8.87,0,13.3,0"/><path class="cls-1" d="M103,145.79a9.84,9.84,0,0,0,0,19.67,9.84,9.84,0,1,0,0-19.67m0-6.56a16.39,16.39,0,1,1-16.4,16.21A16.34,16.34,0,0,1,103,139.23"/><path class="cls-1" d="M130.75,168.6c-1.74,0-3.48,0-5.22,0-2.15,0-3.5-1.3-3.5-3.27a3.26,3.26,0,0,1,3.54-3.28q5.2,0,10.43,0a3.29,3.29,0,0,1,3.42,2.75,3.22,3.22,0,0,1-2.16,3.62,5,5,0,0,1-1.4.18c-1.71,0-3.41,0-5.11,0"/><path class="cls-1" d="M75.31,149.14c-1.81,0-3.61,0-5.42,0a3.15,3.15,0,0,1-3.29-3.06,3.19,3.19,0,0,1,3.11-3.47c3.71-.07,7.43-.07,11.14,0a3.26,3.26,0,0,1-.12,6.52c-1.81,0-3.62,0-5.42,0"/><path class="cls-1" d="M130.64,149.14c-1.77,0-3.54,0-5.31,0a3.26,3.26,0,0,1-.17-6.52c3.71-.08,7.43-.07,11.14,0a3.26,3.26,0,0,1-.14,6.52c-1.84,0-3.68,0-5.52,0Z"/><path class="cls-1" d="M75.29,168.59c-1.77,0-3.54,0-5.31,0a3.16,3.16,0,0,1-3.38-3.18,3.19,3.19,0,0,1,3.33-3.36q5.37-.08,10.73,0a3.27,3.27,0,1,1,0,6.54c-1.77,0-3.55,0-5.32,0"/><path class="cls-1" d="M74,152.36c1.4,0,2.79,0,4.19,0a3.26,3.26,0,0,1,.18,6.52c-2.9.07-5.79.08-8.69,0a3.26,3.26,0,0,1,.23-6.52c1.36,0,2.73,0,4.09,0"/><path class="cls-1" d="M132,158.9c-1.36,0-2.72,0-4.08,0a3.21,3.21,0,0,1-3.26-3.33,3.15,3.15,0,0,1,3.34-3.21q4,0,8.07,0a3.2,3.2,0,0,1,3.38,3.19,3.27,3.27,0,0,1-3.36,3.35H132"/></svg>