<svg id="Layer_1" data-name="Layer 1" xmlns="http://www.w3.org/2000/svg" viewBox="0 0 200 200"><defs><style>.cls-1{fill:#41a6dd;}</style></defs><path class="cls-1" d="M178.93,55.76c-3.19-2.54-6.64-5.26-10.07-8q-12-9.54-23.89-19.11c-2.65-2.11-3.89-2.1-6.61.06L106.17,54.36l-1,.76c0-3.08,0-5.9,0-8.71,0-.35.54-.73.9-1q16.49-13.2,33-26.35c1.85-1.48,3.22-1.53,5-.11q19.81,15.76,39.58,31.59a1.67,1.67,0,0,1,.29.38l-5,4.85m-.72,129.51v1.66H159.58v-2.05q0-20.43,0-40.84c0-3-1.25-4.29-4.2-4.29q-13.69,0-27.4,0c-3,0-4.24,1.29-4.24,4.25q0,20.34,0,40.66V187H105.13V143.45c0-2.33-1.07-3.79-2.93-4.07-2.54-.38-4.22,1.19-4.22,4q0,20.69,0,41.38v2.18H79.34v-2.26q0-20.24,0-40.48c0-3.24-1.19-4.45-4.39-4.45h-27c-3.18,0-4.38,1.22-4.38,4.47v42.7H24.88v-1.8q0-59.46,0-118.93a3.44,3.44,0,0,1,1-2.43c11.75-9.48,23.56-18.88,35.51-28.41,1,.75,2,1.49,2.93,2.25,10.74,8.55,21.45,17.13,32.22,25.64A3.55,3.55,0,0,1,98,66.4C98,80.19,98,94,98,107.77c0,.78,0,1.55,0,2.33,0,2.56,1.49,4.21,3.65,4.16s3.5-1.65,3.51-4.11q0-7.08,0-14.15c0-10,0-20.07,0-30.1a3.18,3.18,0,0,1,1-2.22Q123.48,49.76,140.88,36c.22-.18.47-.33.84-.6q6.17,4.9,12.3,9.8,11.47,9.15,23,18.29A2.89,2.89,0,0,1,178.25,66q-.06,59.64,0,119.29m-25.89-22.05c-4.86.64-6.09,1.46-6,3.95s1.46,3.19,6,3.44v16.3H131V147h21.33ZM72.06,187H50.79V171.13a35.76,35.76,0,0,0,5.12-1.95c.56-.31.8-1.57.81-2.41,0-2.4-1.43-3.2-5.9-3.45V147H72.06ZM19.13,50.75c3.55-2.84,7.27-5.82,11-8.78l28-22.32c2.84-2.27,3.85-2.27,6.71,0Q80.76,32.42,96.72,45.11A2.93,2.93,0,0,1,98,47.8c-.09,2.32,0,4.64,0,7.37l-8-6.39Q77.29,38.7,64.63,28.61c-2.6-2.06-3.83-2-6.47.07L25.43,54.81c-.47.37-.95.72-1.41,1.07l-4.89-5.13m6.13-26.32h6.88c0,2.08,0,4.08,0,6.08a1.33,1.33,0,0,1-.43.91c-2.05,1.69-4.13,3.33-6.43,5.17Zm80,0h7c0,2.07,0,4.14,0,6.2a1.86,1.86,0,0,1-.72,1.12c-2,1.62-4,3.2-6.23,5Zm82.3,20q-19.09-15.3-38.27-30.49a41.2,41.2,0,0,0-5.5-3.14h-4.3c-5.47,2-9.24,6.4-13.78,9.71-2.06,1.5-4,3.15-6.27,5,0-1.77,0-3.18,0-4.58,0-2.22-1.31-3.64-3.52-3.67q-7.26-.11-14.5,0c-2.2,0-3.45,1.46-3.46,3.71,0,5.19,0,10.38,0,16l-3.25-2.59c-8.44-6.73-16.85-13.5-25.36-20.16a47.24,47.24,0,0,0-5.79-3.36h-4.3c-5.42,2-9.14,6.35-13.65,9.61-2,1.43-3.83,3-6.16,4.89,0-1.42,0-2.5,0-3.57,0-3.28-1.28-4.53-4.58-4.54-4.29,0-8.59,0-12.89,0-2.83,0-4.15,1.34-4.17,4.21q-.06,9.76,0,19.52a2.94,2.94,0,0,1-1.3,2.7C15,44.74,13.44,46,11.91,47.25c-2.7,2.2-2.81,4.14-.4,6.58,1.68,1.7,3.33,3.44,5.07,5.06a3.49,3.49,0,0,1,1.17,2.81q0,44.68,0,89.38,0,19.33,0,38.68c0,3.23,1.22,4.43,4.43,4.43H180.84c3.4,0,4.54-1.18,4.54-4.68q0-63.76,0-127.52a4.08,4.08,0,0,1,1.32-3.28c2.27-2.17,4.4-4.49,6.59-6.75V49.45c-1.88-1.69-3.7-3.48-5.67-5.06"/><path class="cls-1" d="M49.52,90.19H39.73V80.36h9.79ZM52.9,73.08q-8.22-.08-16.46,0c-2.75,0-4,1.33-4,4.07q0,8.15,0,16.28c0,2.67,1.39,4,4.12,4s5.25,0,7.87,0c2.8,0,5.61,0,8.41,0,2.56,0,3.93-1.43,3.94-4q0-8.22,0-16.46c0-2.52-1.32-3.86-3.86-3.88"/><path class="cls-1" d="M82.47,90.16H72.63V80.37h9.84Zm3.47-17.08q-8.4-.08-16.81,0c-2.42,0-3.74,1.41-3.77,3.81,0,2.74,0,5.49,0,8.23h0c0,2.86,0,5.72,0,8.59a3.48,3.48,0,0,0,3.67,3.73q8.49.08,17,0a3.48,3.48,0,0,0,3.66-3.74q0-8.4,0-16.81a3.45,3.45,0,0,0-3.78-3.79"/><path class="cls-1" d="M49.52,123.09H39.73v-9.8h9.79Zm7.24-13.26c0-2.41-1.34-3.77-3.77-3.79q-8.41-.06-16.82,0a3.46,3.46,0,0,0-3.76,3.8q0,8.31,0,16.63c0,2.49,1.39,3.92,3.85,3.93q8.32,0,16.64,0c2.46,0,3.83-1.44,3.85-3.92,0-2.75,0-5.49,0-8.23s0-5.61,0-8.41"/><path class="cls-1" d="M82.45,123.12H72.59v-9.77h9.86Zm7.27-13.28c0-2.42-1.34-3.78-3.76-3.8q-8.42-.06-16.82,0a3.45,3.45,0,0,0-3.77,3.79q0,8.31,0,16.63c0,2.49,1.38,3.93,3.84,3.94,5.55,0,11.09,0,16.64,0,2.47,0,3.84-1.43,3.86-3.91,0-2.75,0-5.49,0-8.23s0-5.61,0-8.41"/><path class="cls-1" d="M130.47,90.11h-9.82V80.33h9.82Zm7.26-13c0-2.63-1.31-4-3.95-4q-8.31-.06-16.63,0a3.44,3.44,0,0,0-3.76,3.8q0,8.33,0,16.63a3.55,3.55,0,0,0,3.86,3.92q8.33,0,16.64,0c2.47,0,3.82-1.42,3.85-3.92,0-2.68,0-5.36,0-8.05s0-5.6,0-8.4"/><path class="cls-1" d="M153.63,80.35h9.78v9.81h-9.78Zm-3.42,17.08q8.31,0,16.64,0c2.47,0,3.82-1.41,3.84-3.92,0-2.68,0-5.36,0-8.05s0-5.6,0-8.4c0-2.62-1.3-4-3.95-4q-8.33-.06-16.64,0c-2.43,0-3.74,1.38-3.75,3.8q0,8.33,0,16.64c0,2.49,1.4,3.9,3.87,3.91"/><path class="cls-1" d="M130.49,123.1h-9.86v-9.77h9.86ZM137.73,110c0-2.64-1.28-4-3.93-4-5.54,0-11.09,0-16.63,0a3.44,3.44,0,0,0-3.78,3.78q0,8.31,0,16.63c0,2.5,1.4,3.93,3.85,3.94,5.54,0,11.09,0,16.63,0,2.49,0,3.84-1.4,3.87-3.89,0-2.75,0-5.49,0-8.23s0-5.49,0-8.23"/><path class="cls-1" d="M163.41,123.12h-9.78v-9.81h9.78ZM166.75,106q-8.33-.06-16.64,0c-2.43,0-3.74,1.38-3.76,3.79,0,2.81,0,5.61,0,8.41s0,5.37,0,8.05,1.35,4.1,4,4.11q8.24,0,16.46,0a3.54,3.54,0,0,0,3.85-3.92q0-8.22,0-16.46c0-2.63-1.28-4-3.94-4"/><path class="cls-1" d="M101.58,123.24A3.5,3.5,0,0,0,98,126.83a3.63,3.63,0,0,0,3.67,3.57,3.51,3.51,0,0,0,3.47-3.55,3.45,3.45,0,0,0-3.55-3.61"/></svg>