<svg id="Layer_1" data-name="Layer 1" xmlns="http://www.w3.org/2000/svg" viewBox="0 0 200 200"><defs><style>.cls-1{fill:#41a6dd;}</style></defs><path class="cls-1" d="M92.92,80.31l12.33-12.37-3-3L90,77.26l2.9,3m7.34,54L162.14,71.7c-.33-.29-.81-.72-1.31-1.14C151,62.43,139.89,60.07,127.66,63a27.57,27.57,0,0,0-12.53,6.14A213.31,213.31,0,0,0,99.4,84.47c-8.45,9.58-11,20.92-8.1,33.39a35.68,35.68,0,0,0,9,16.47M90,69.78l6.7-6.71a44.94,44.94,0,0,0-9.87-8.33,43.53,43.53,0,0,0-24.68-6.92c-14.21.35-25.78,6.29-34.74,17.32a44.21,44.21,0,0,0-9.47,21.3,51.72,51.72,0,0,0-.61,7.86c-.06,14.77,0,29.54,0,44.3,0,.41,0,.81,0,1.21a1.41,1.41,0,0,1-1.52,1.51c-.94,0-1.89,0-2.84,0a1.42,1.42,0,0,1-1.48-1.44,5.09,5.09,0,0,1,0-.55c0-15.36-.15-30.71.06-46.06C11.66,79,17,66.76,27.12,56.72a49.55,49.55,0,0,1,26.61-14,50.11,50.11,0,0,1,30.8,4.05A51.2,51.2,0,0,1,100.83,59a1.35,1.35,0,0,0,1.4.48,5.61,5.61,0,0,1,4.91,1.62l3.69,3.59c2.24-1.3,4.55-2.59,6.82-4a32.8,32.8,0,0,1,9.26-3.47c12.73-3.08,24.41-.68,35.09,6.79a45,45,0,0,1,5,4.26c2.28,2.17,2.25,5,0,7.25q-16,16.08-32,32.16Q119.8,123,104.58,138.2c-1.06,1.05-2.07,2.17-3.7,2.35-2.06.23-3.47-.89-4.78-2.21a39.05,39.05,0,0,1-7.25-10.25,42.93,42.93,0,0,1-4.34-22.89,42.06,42.06,0,0,1,6-18.63c-1.32-1.51-2.52-3-3.82-4.34a5.93,5.93,0,0,1-1.17-7.42,1,1,0,0,0-.2-1.33C78.81,66.35,70.78,62.86,61.1,63.27,47,63.87,34.89,75.12,32.91,89.19a36.77,36.77,0,0,0-.3,5q0,22.36,0,44.74c0,2-.33,2.37-2.34,2.37-3.51,0-3.51,0-3.51-3.5q0-22.26,0-44.52a36.4,36.4,0,0,1,23-33.53A35.61,35.61,0,0,1,89.07,68.9c.3.32.62.61.9.88"/><path class="cls-1" d="M177.3,147a2.19,2.19,0,0,1-1.28,2.37,1.94,1.94,0,0,1-2.28-.56q-2.55-2.58-5.05-5.17l-29.35-30.14a2.12,2.12,0,0,1-.2-3.18c.89-.88,2-.82,3.06.24q10.2,10.39,20.37,20.83,6.92,7.09,13.82,14.21a7.14,7.14,0,0,1,.91,1.4"/><path class="cls-1" d="M160.58,164.59a11.31,11.31,0,0,1-1.86-1.28q-8.72-8.87-17.37-17.79L127,130.86c-.81-.83-1.62-1.66-2.42-2.5-1.05-1.09-1.13-2.42-.21-3.29a2.29,2.29,0,0,1,3.21.42l12,12.3,22,22.59c1,1,1.29,2.1.64,2.93a8.84,8.84,0,0,1-1.7,1.28"/><path class="cls-1" d="M155.56,94.79a7.32,7.32,0,0,1,1.35.88q10,10.17,19.9,20.39l6.13,6.26c2.77,2.84,5.55,5.67,8.31,8.52,1.12,1.14,1.14,2.32.12,3.26s-2.13.64-3.21-.49c-3-3.11-6-6.15-9-9.23L154.26,98.87a2.37,2.37,0,0,1-.89-2.52A2,2,0,0,1,155,94.91l.57-.12"/><path class="cls-1" d="M118.18,131.78a7.66,7.66,0,0,1,1.69,1q7.84,8,15.61,16a2.17,2.17,0,0,1,.43,3c-.85,1.14-2.25,1.13-3.4,0q-6.57-6.75-13.15-13.51c-.84-.86-1.7-1.7-2.51-2.59a1.84,1.84,0,0,1-.32-2.33,8.32,8.32,0,0,1,1.65-1.44"/><path class="cls-1" d="M162.46,87.28a7.49,7.49,0,0,1,1.58,1q8,8.07,15.87,16.2a2.12,2.12,0,0,1,0,3,2,2,0,0,1-3-.19q-6.25-6.36-12.48-12.77a40.2,40.2,0,0,1-3.29-3.5,2.75,2.75,0,0,1-.35-2.2c.22-.61,1.06-1,1.67-1.54"/><path class="cls-1" d="M166.13,121a10.45,10.45,0,0,1-1.59,1.74,1.67,1.67,0,0,1-2.18-.41c-2.27-2.27-4.52-4.57-6.76-6.87q-4.51-4.64-9-9.28a2.08,2.08,0,0,1-.14-3.19c.86-.84,2.05-.74,3.08.31q7.71,7.88,15.38,15.77a12.54,12.54,0,0,1,1.23,1.93"/><path class="cls-1" d="M133,116.88a11.37,11.37,0,0,1,1.61,1.08c4,4,7.94,8.05,11.91,12.08l3.82,3.92a2.21,2.21,0,0,1,.16,3.14,2,2,0,0,1-3-.14c-3.9-4-7.77-7.92-11.65-11.89-1.33-1.35-2.68-2.68-4-4.08a2.07,2.07,0,0,1-.61-2.48,8.75,8.75,0,0,1,1.72-1.63"/></svg>