<svg id="Layer_1" data-name="Layer 1" xmlns="http://www.w3.org/2000/svg" viewBox="0 0 200 200"><defs><style>.cls-1{fill:#41a6dd;}</style></defs><path class="cls-1" d="M69.87,58.08H64.64V69.17h5.23Zm58.56.05H123.2v11h5.23ZM117.88,41.36c0-1.22,0-2.19,0-3.15-.15-9.2-8.65-15.68-17.13-13.06-6.09,1.87-9.59,7.1-9.63,14.63-.05,9,0,18.1,0,27.14,0,.73.08,1.46.13,2.2h5.36V66.76c0-9.33,0-18.66,0-28,0-4.8,3.45-8.46,7.83-8.51s7.93,3.65,8,8.55c0,.81,0,1.62,0,2.54ZM75.45,130.58c.36,3.81.71,7.47,1,11.13,1,10.31,1.91,20.64,3,30.94.53,5.23,3.7,8,8.73,8.06,5.4,0,10.79,0,16.19,0,5.92,0,8.84-3,9.39-9.17.81-9.21,1.76-18.41,2.63-27.62.42-4.41.81-8.82,1.23-13.34ZM27.36,74.77c0,6.11-.29,12,.07,17.78a31.59,31.59,0,0,0,9.75,21.33c8.14,7.91,18.12,11,28.93,11.09,20.31.2,40.63.11,60.94,0a43.6,43.6,0,0,0,17.89-3.77c11.41-5.13,18.8-13.81,20.52-26.88.7-5.34.31-10.84.41-16.26,0-1.09,0-2.17,0-3.32ZM70.22,131C64.47,130.24,59,130,53.7,128.7c-11.2-2.65-20.42-8.63-26.48-19.17A41.06,41.06,0,0,1,22,89q-.06-7.51,0-15c0-4.17.56-4.71,4.5-4.72H59.32c0-3.56,0-7,0-10.46,0-.28-.69-.69-1.11-.78-.71-.16-1.62.15-2.15-.22-.79-.54-1.83-1.49-1.83-2.27s.9-1.93,1.61-2.69c.32-.35,1.14-.27,1.73-.27q9.79,0,19.59,0a5.36,5.36,0,0,1,1.38.15,2.46,2.46,0,0,1,2,2.74,2.39,2.39,0,0,1-2.27,2.46c-.92.09-1.84,0-2.91,0V69.16H85.82c0-.55.1-1.08.1-1.61,0-9.19,0-18.38,0-27.57,0-7.5,2.44-13.67,8.62-17.75a17.11,17.11,0,0,1,18.81-.73c6.25,3.49,9.44,9.2,9.72,16.62.07,2,0,3.9,0,5.85s-1,2.85-2.74,2.87c-3.47,0-6.93,0-10.39,0A2.5,2.5,0,0,1,107.32,44c0-1.88.07-3.77-.07-5.64a2.61,2.61,0,0,0-2.77-2.68,2.52,2.52,0,0,0-2.64,2.6c-.07,10.22,0,20.44,0,30.79h16V57.92h-2.43a2.66,2.66,0,0,1-.17-5.32c2.86-.11,5.72-.07,8.59-.08,4,0,8,0,12,0,1.37,0,2.71.22,3.19,1.9a2.53,2.53,0,0,1-2.78,3.43c-2.15-.13-2.56.77-2.45,2.76.15,2.76,0,5.54,0,8.49.74,0,1.31.11,1.89.11h31c4,0,4.44.5,4.44,4.69q0,7.11,0,14.21c0,18.61-9.46,32.64-26.26,39a53.71,53.71,0,0,1-17.21,3.29c-1.46,0-2.92,0-4.66,0-.4,4-.82,7.92-1.19,11.84-1,10.38-1.87,20.78-3,31.15-.82,7.85-6.2,12.68-13.81,12.7q-8.4,0-16.79,0c-7.69,0-13.07-4.93-13.85-12.88C73,160,71.8,146.76,70.54,133.54c-.09-1-.24-1.92-.32-2.53"/></svg>