<svg id="Layer_1" data-name="Layer 1" xmlns="http://www.w3.org/2000/svg" viewBox="0 0 200 200"><defs><style>.cls-1{fill:#41a6dd;}</style></defs><path class="cls-1" d="M171.05,104.81l-3.89-14.34H146.69c.69,4.83,1.37,9.56,2.05,14.34ZM92.84,90.39c-6.73,0-13.22,0-19.72,0-.34,0-.86.58-1,1-.84,2.87-1.61,5.77-2.39,8.66-.42,1.56-.83,3.12-1.27,4.73H90.8c.68-4.8,1.34-9.48,2-14.43m4.29.09c-.65,4.78-1.29,9.52-1.94,14.3h22.36V90.48Zm47.2,14.34c-.6-4.46-1.23-8.71-1.71-13-.13-1.19-.53-1.48-1.66-1.47-5.9,0-11.81,0-17.72,0-.43,0-.85.07-1.29.11v14.31Zm-22.16,3.89V127h25c-.07-.77-.1-1.46-.19-2.14-.66-4.91-1.38-9.81-2-14.72-.13-1.11-.49-1.41-1.56-1.4-4.26.05-8.52,0-12.77,0h-8.53m-32,0c-7.49,0-14.79,0-22.09,0-.34,0-.85.61-1,1-.69,2.3-1.27,4.62-1.9,6.94l-2.72,10.06c.16.1.2.15.24.15,8,0,16,.06,24,0a1.31,1.31,0,0,0,.92-.84c.86-5.72,1.66-11.46,2.5-17.42m59.13.11c.87,6.08,1.73,12.09,2.6,18.13h25a1.93,1.93,0,0,0,0-.49c-1.51-5.65-3-11.3-4.6-16.93a1.63,1.63,0,0,0-1.28-.8c-6.87,0-13.73,0-20.6,0a10.57,10.57,0,0,0-1.08.12m-31.9,0c-.39,0-.73-.09-1.07-.09-6.71,0-13.42.07-20.13,0-1.39,0-1.67.53-1.8,1.69-.31,2.78-.72,5.56-1.08,8.34s-.7,5.42-1,8.21h25.13Zm-.16,22.56H91.68c-1,7.82-2.06,15.56-3.09,23.39h28.68Zm-30.31,0a6,6,0,0,0-.86-.13c-7.91,0-15.82,0-23.72,0-.9,0-1.18.39-1.39,1.18-1.25,4.74-2.56,9.45-3.84,14.18-.72,2.67-1.44,5.35-2.19,8.16H83.6c1.12-7.8,2.24-15.55,3.36-23.36m97.64,23.42c-2.16-8-4.27-15.74-6.35-23.43h-25.7c1.06,7.28,2.16,14.4,3.08,21.54.21,1.63.76,1.95,2.3,1.93,7.87-.09,15.74,0,23.6,0Zm-62.36-23.56v23.44h28.7c-1-7.54-2-14.92-2.94-22.31-.12-.91-.45-1.19-1.32-1.14-1.15.06-2.3,0-3.45,0Zm70.23,28.59h-1.86q-28.19,0-56.38,0c-1.23,0-1.83.24-2.13,1.58-1.32,5.86-2.79,11.68-4.19,17.52-.08.33-.11.68-.18,1.21.66,0,1.23.08,1.8.08h21.65c2.66,0,4.5,1.64,4.52,4s-1.86,4.12-4.56,4.12H88.3A4.11,4.11,0,0,1,83.93,185a4,4,0,0,1,2.59-4.54,7.05,7.05,0,0,1,2.06-.25h23.35c-1.67-6.87-3.29-13.55-4.93-20.33H47c.45-1.68.84-3.19,1.26-4.69Q55,131.3,61.67,107.39c1.82-6.5,3.63-13,5.38-19.53.29-1.09.69-1.51,1.89-1.51q50.82,0,101.64,0c.81,0,1.46-.07,1.77,1.06q9.92,35.7,19.89,71.4c.08.28.13.57.23,1"/><path class="cls-1" d="M91.21,83.44A29.15,29.15,0,1,0,37.1,61.79a28.65,28.65,0,0,0-1.69,12.55A29.1,29.1,0,0,0,47.65,95.65a30,30,0,0,0,11.61,4.91c-.61,2.4-1.19,4.66-1.87,7.32-2.85-1-5.7-1.75-8.35-2.95-22.42-10.23-28.29-40-11.27-57.87C48,36.28,60.75,32.78,75,37.09s22.51,14.23,25.34,28.69a34.1,34.1,0,0,1-1,16.5c-.26.86-.59,1.22-1.53,1.18-2.15-.07-4.31,0-6.61,0"/><path class="cls-1" d="M14.85,75.58c-1.85,0-3.7,0-5.56,0a3.7,3.7,0,1,1-.08-7.4c3.81-.05,7.62-.06,11.42,0a3.74,3.74,0,0,1,4,3.67c0,2.14-1.62,3.69-4,3.74-1.91,0-3.81,0-5.72,0Z"/><path class="cls-1" d="M113.82,75.58c-1.85,0-3.71,0-5.56,0-2.44,0-4.07-1.57-4.06-3.72s1.63-3.66,4.09-3.68c3.71,0,7.41,0,11.12,0,2.42,0,4.07,1.58,4.06,3.72s-1.68,3.65-4.09,3.69c-.95,0-1.9,0-2.85,0h-2.71"/><path class="cls-1" d="M95.75,24.33A9.29,9.29,0,0,1,95.11,26c-1.82,3.22-3.67,6.41-5.54,9.6-1.27,2.19-3.39,2.88-5.28,1.76s-2.35-3.22-1.07-5.46c1.89-3.29,3.77-6.59,5.71-9.85a3.58,3.58,0,0,1,4.26-1.66,3.8,3.8,0,0,1,2.56,3.92"/><path class="cls-1" d="M102.28,53.81a3.77,3.77,0,0,1-3.73-2.67,3.5,3.5,0,0,1,1.48-4c3.56-2.13,7.14-4.22,10.77-6.21a3.56,3.56,0,0,1,4.7,1.39,3.52,3.52,0,0,1-1,4.89c-3.54,2.16-7.15,4.19-10.75,6.24a5.37,5.37,0,0,1-1.42.41"/><path class="cls-1" d="M30.38,94.38a3.48,3.48,0,0,1-1.9,2.47c-3.36,2-6.73,3.92-10.12,5.83a3.66,3.66,0,1,1-3.75-6.29c3.42-2.06,6.87-4.07,10.38-6,2.52-1.37,5.44.47,5.39,4"/><path class="cls-1" d="M30.74,49.9c-.34,2.91-3.11,4.78-5.52,3.51-3.7-1.95-7.32-4.08-10.9-6.26a3.46,3.46,0,0,1-1.07-4.76A3.49,3.49,0,0,1,18,40.89c3.63,2,7.24,4,10.74,6.25.89.56,1.34,1.82,2,2.76"/><path class="cls-1" d="M37.06,123.83c-3.05-.32-5-3.09-3.63-5.56,1.94-3.65,4-7.22,6.19-10.76a3.65,3.65,0,0,1,6.3,3.67c-2,3.58-4,7.14-6.17,10.6-.56.9-1.78,1.38-2.69,2"/><path class="cls-1" d="M46.31,33.84a3.76,3.76,0,0,1-2.49,3.85,3.45,3.45,0,0,1-4.12-1.35c-2.18-3.59-4.29-7.23-6.29-10.92A3.52,3.52,0,0,1,35,20.67a3.57,3.57,0,0,1,4.76,1.23c2.12,3.51,4.15,7.08,6.18,10.65a4.83,4.83,0,0,1,.38,1.29"/><path class="cls-1" d="M60.74,22.37c0-1.91,0-3.81,0-5.71a3.69,3.69,0,0,1,3.74-3.85A3.62,3.62,0,0,1,68,16.65c0,3.86,0,7.71,0,11.57A3.54,3.54,0,0,1,64.48,32a3.6,3.6,0,0,1-3.74-3.81c0-1.95,0-3.91,0-5.86"/></svg>