<svg id="Layer_1" data-name="Layer 1" xmlns="http://www.w3.org/2000/svg" viewBox="0 0 200 200"><defs><style>.cls-1{fill:#41a6dd;}</style></defs><path class="cls-1" d="M45.13,19.84h114c-1.27-1.81-1.94-3.49-3.17-4.29a9.14,9.14,0,0,0-4.78-1.17q-47.36-.11-94.7-.05c-1.93,0-3.86,0-5.79,0-3.21.11-5.14,2-5.56,5.47m121.34,150.8H37c0,4.55-.09,8.94,0,13.32.08,2.93,2,4.63,4.95,4.63H161.58c2.69,0,4.74-1.64,4.84-4.26.18-4.52.05-9.06.05-13.68M37,61.09H166.49V32.74c0-4.68-1.58-6.25-6.25-6.25H43.33c-.55,0-1.09,0-1.63,0A4.68,4.68,0,0,0,37,31.22c-.07,9.87,0,19.74,0,29.87M37,163.64H166.37V68.08H37ZM30.4,107.46q0-38,0-76c0-4.79,2.2-8.17,6.32-10.49a3.25,3.25,0,0,0,1.55-1.87c1.21-7.3,6.07-11.52,13.57-11.53q41.46,0,82.9,0c5.71,0,11.42,0,17.14,0,7,0,12,4.15,13.18,11.11a2.77,2.77,0,0,0,1.69,2.37,11,11,0,0,1,6.36,10.46q0,70.05,0,140.11c0,4.09,0,8.19,0,12.28a11.18,11.18,0,0,1-10.84,11.28c-1,.05-2,0-3,0q-58.35,0-116.7,0c-7.64,0-12.1-4.47-12.11-12,0-2.78,0-5.56,0-8.34V107.46Z"/><path class="cls-1" d="M59.81,94.54a5.69,5.69,0,0,0-.17.8q0,25.82,0,51.63c0,2.22,1.27,2.67,3.15,2.67q38.9,0,77.79,0c2.76,0,3.35-.64,3.35-3.44V94.55H118.6c-6.33,0-12.65.08-19-.13a4.43,4.43,0,0,1-3.16-2.06,3.6,3.6,0,0,1,.64-3.29,4.9,4.9,0,0,1,3.32-1c16-.07,32.1,0,48.15-.06,2.53,0,4-1.11,3.84-2.95-.2-2.21-1.73-2.58-3.64-2.58q-47.11,0-94.22,0c-2.36,0-3.57.94-3.58,2.68S52.39,88,54.72,88H68.14c4.09,0,8.18,0,12.27,0,2.18,0,3.42,1.35,3.31,3.31s-1.41,3-3.29,3.22a19.78,19.78,0,0,1-2.31,0H59.81m-6.8.13c-3.47-.67-6.19-2.25-7.71-5.43-3.13-6.59,1.44-13.45,9.06-13.51,8.26-.07,16.52,0,24.77,0h69.69c5,0,8.77,2.61,9.9,6.75a9.32,9.32,0,0,1-6.61,11.72l-1.69.52v3.18q0,24.44,0,48.86c0,6.06-3.36,9.4-9.44,9.4H62.25c-5.77,0-9.21-3.37-9.22-9.16q0-25.36,0-50.71Z"/><path class="cls-1" d="M151.19,40.65h-7.58V48.3h7.58Zm6.63,3.77c0,1.62,0,3.24,0,4.85a5.59,5.59,0,0,1-5.62,5.8c-3.31.11-6.63.12-9.94,0a5.36,5.36,0,0,1-5.43-5.23,95.79,95.79,0,0,1,0-10.85,5.34,5.34,0,0,1,5.53-5.11c3.23-.08,6.48-.08,9.71,0a5.64,5.64,0,0,1,5.73,5.91c0,1.55,0,3.09,0,4.63"/><path class="cls-1" d="M60,40.69H52.33v7.53H60ZM45.63,44.52c0-1.7-.06-3.39,0-5.09A5.49,5.49,0,0,1,51,33.89c3.38-.11,6.78-.12,10.16,0a5.51,5.51,0,0,1,5.47,5.68c.08,3.24.08,6.47,0,9.71A5.61,5.61,0,0,1,60.8,55.1q-4.74.1-9.47,0a5.56,5.56,0,0,1-5.69-5.72c0-1.62,0-3.23,0-4.85"/><path class="cls-1" d="M124.74,40.63H117.2v7.63h7.54Zm6.73,3.88c0,1.54,0,3.08,0,4.62-.08,3.5-2.22,5.82-5.71,5.95-3.23.12-6.47.1-9.7,0a5.49,5.49,0,0,1-5.58-5.57c-.11-3.38-.11-6.78,0-10.16a5.41,5.41,0,0,1,5.43-5.46c3.31-.11,6.63-.1,9.93,0a5.59,5.59,0,0,1,5.63,5.77c0,1.62,0,3.23,0,4.85"/><path class="cls-1" d="M86.29,40.69H78.7v7.59h7.59ZM93,44.53c0,1.62,0,3.24,0,4.85a5.5,5.5,0,0,1-5.49,5.67c-3.38.14-6.78.14-10.16,0A5.42,5.42,0,0,1,72,49.72q-.2-5.2,0-10.4a5.41,5.41,0,0,1,5.47-5.43c3.3-.11,6.62-.1,9.93,0a5.6,5.6,0,0,1,5.6,5.8c0,1.61,0,3.23,0,4.85Z"/><path class="cls-1" d="M100.43,110a20.54,20.54,0,0,1-1.87,2.76Q88,123.42,77.34,134c-1.82,1.82-3.79,2-5.24.5s-1.22-3.34.5-5.06q10.59-10.64,21.23-21.24c1.14-1.13,2.5-2.12,4.07-1.1a15,15,0,0,1,2.53,2.89"/><path class="cls-1" d="M106.14,133.46c-1-.89-2.3-1.55-2.51-2.47a4.61,4.61,0,0,1,.77-3.67c3.37-3.69,7-7.16,10.53-10.69,3.7-3.7,7.4-7.4,11.15-11.06,1.73-1.68,3.3-1.72,4.83-.29s1.47,3.21-.17,4.87q-10.8,10.92-21.72,21.71a13.88,13.88,0,0,1-2.88,1.6"/></svg>