<svg id="Layer_1" data-name="Layer 1" xmlns="http://www.w3.org/2000/svg" viewBox="0 0 200 200"><defs><style>.cls-1{fill:#41a6dd;stroke:#27aae1;stroke-miterlimit:10;}</style></defs><path class="cls-1" d="M120.44,110.59a5.85,5.85,0,0,0,0-11.7,5.85,5.85,0,0,0,0,11.7M84.61,125c-.16,1.31-.81,2.79-.41,3.9,2.14,6.08,9.12,10.69,15.87,10.78s14.06-4.53,16.29-10.79c.41-1.13-.46-2.72-.74-4.09-1.14.68-2.72,1.09-3.34,2.09-6.67,10.81-17.33,10.84-24,.07-.63-1-2.39-1.32-3.63-2M74.46,104.7a5.53,5.53,0,0,0,5.66,5.88,5.89,5.89,0,0,0,5.9-5.81A6,6,0,0,0,80.2,98.9a5.56,5.56,0,0,0-5.74,5.8m60.68-11.57c.61.72,2.49.39,3.78.54-.18-1.29,0-2.84-.61-3.83-3.37-5.13-7.17-10-10.37-15.22-1.51-2.47-2.7-3.15-5.57-2.34a79,79,0,0,1-44,0c-3.17-.9-4.29,0-5.81,2.61-2.89,4.92-6.44,9.44-9.55,14.24-.8,1.24-1,2.89-1.43,4.35,1.61-.35,3.88-.16,4.72-1.17,3.93-4.71,7.47-9.76,11-14.47,7.46.77,15.18,2.18,22.9,2.18s15.46-1.4,23-2.17c4,5.17,7.87,10.33,12,15.26m20.05,16c-.1,4.72-2.62,8.22-7.26,10.3v-21c5.28,2.66,7.35,6.27,7.26,10.74m-12.08-4c1,11.73-1.79,23.14-9.94,33.05-10.42,12.69-28.76,18.31-44.84,13.6C71.86,147,59.41,132.53,57.77,115.93,56.7,105,56.12,94.09,59.65,83.48c6.49-19.5,26.88-31.87,47-28.7A42.94,42.94,0,0,1,143.1,95.49c.11,3,0,5.91,0,9.7m-90.5,14.23c-4.63-2.07-7.18-5.54-7.16-10.56,0-4.56,2.15-7.94,7.16-10.47Zm98-25.14a6.52,6.52,0,0,1-3.07-4.07,48.08,48.08,0,0,0-47.14-40.58c-23.23-.08-43.12,16.89-47.16,40a7.93,7.93,0,0,1-3.51,4.77c-6.23,3.66-9.38,8.8-8.78,16,.56,6.71,4.23,11.26,10.47,13.43,2.65.93,3.86,2.44,4.87,4.91a48,48,0,0,0,44,29.57c19.16,0,36.76-11.91,44.37-29.84a8.56,8.56,0,0,1,4.15-4.24c6.33-2.58,10.3-6.94,10.95-13.73.7-7.36-2.56-12.7-9.14-16.23"/></svg>