<svg id="Layer_1" data-name="Layer 1" xmlns="http://www.w3.org/2000/svg" viewBox="0 0 200 200"><defs><style>.cls-1{fill:#41a6dd;}</style></defs><path class="cls-1" d="M62.27,115.86c-2.36,0-4.3,0-6.23,0-1.29,0-1.62.52-1.57,1.69.08,1.68,0,3.37,0,5.06q0,30.3,0,60.59v2.28h92.82V116H70c0,1.25,0,2.42,0,3.6a3.84,3.84,0,0,0,3.73,4.11c.81.08,1.63,0,2.45,0,16.87,0,33.74.1,50.61-.06a11.63,11.63,0,1,1-.09,23.24c-17.13-.15-34.25-.06-51.37,0a9.15,9.15,0,0,0-2.77.32A3.44,3.44,0,0,0,70,150.58a3.54,3.54,0,0,0,2.29,3.72,6.86,6.86,0,0,0,2.56.37q25.79,0,51.56,0a14.84,14.84,0,0,1,3,.19,11.63,11.63,0,0,1-2.55,23.05c-9.53,0-19.07,0-28.6,0h-31c-.31,0-.63,0-.94,0-2.48-.19-4.18-1.88-4.09-4a4,4,0,0,1,4.33-3.76c10.35,0,20.7,0,31,0,9.84,0,19.68,0,29.52,0A3.91,3.91,0,0,0,131.2,166a4,4,0,0,0-4.15-3.74c-5.72.07-11.44.15-17.15.14-4.87,0-9.73-.16-14.59-.16-7,0-13.91.13-20.87.15a13.9,13.9,0,0,1-3.53-.38c-5.6-1.46-9.43-7-8.68-12.44a11.57,11.57,0,0,1,11.66-10.34h49.68c1.13,0,2.26,0,3.39,0,2.55-.09,4.13-1.61,4.12-3.91s-1.59-3.78-4.15-3.9c-.5,0-1,0-1.51,0H74.24c-6.31,0-10.93-3.81-11.93-10a36.17,36.17,0,0,1,0-5.54m85.14-54.11v46.44a28.68,28.68,0,0,0,3.17.13c2.86-.17,4.4,1.23,4.43,4.24q.09,6,.08,12,0,31.89,0,63.79c0,3.68-1.31,5-4.94,5H51.55c-3.41,0-4.84-1.41-4.84-4.76V113c0-3.5,1.44-4.85,5-4.71,2.81.11,2.81.11,2.82-2.71v-42c0-.55-.07-1.1-.12-2-3.65,0-7.2,0-10.75,0-2.63,0-3.76-.73-4.42-2.67-.59-1.75-.05-3.13,1.88-4.67L83.28,20.69q7.18-5.75,14.33-11.54c2.56-2.08,4-2.08,6.65,0,2.29,1.86,4.6,3.68,6.9,5.53s2.65,4,1.23,5.87-3.9,1.88-6,.22c-1.77-1.39-3.53-2.81-5.48-4.36L54.32,53.67c0,.13.1.26.16.39,1.17,0,2.34,0,3.51,0,2.9.14,4.16,1.47,4.17,4.41v46.86c0,3.14,0,3,3.22,2.92,6.33-.08,12.66.08,19,.11,1.88,0,3.75-.12,5.63-.12q24,0,48,.12c1.54,0,1.69-.69,1.69-1.94q0-23.62,0-47.24c0-4,1.07-5.07,5.13-5.09h2.53l.12-.45-9.74-7.82c-2.1-1.69-4.22-3.36-6.31-5.06s-2.29-3.86-.86-5.6a4,4,0,0,1,5.71-.41Q148.65,44.68,161,54.61a3.87,3.87,0,0,1,1.5,4.64,3.76,3.76,0,0,1-4,2.52c-3.64-.05-7.27,0-11.15,0"/><path class="cls-1" d="M111,69.78l-10-9.59L90.51,69.56c2.31,1.31,2.65,3,2.62,5-.06,5.33,0,10.65,0,16v2h15.57c0-5.85,0-11.54,0-17.23,0-2.16-.15-4.33,2.34-5.54m5.34,7.42c0,6.42,0,12.5,0,18.58,0,3.29-1.39,4.71-4.64,4.71q-10.72,0-21.45,0c-3.48,0-4.81-1.36-4.81-4.91V77.21c-1.21,0-2.31,0-3.41,0a3.89,3.89,0,0,1-3-6.85Q85.47,64,91.86,57.61c1.77-1.77,3.56-3.52,5.31-5.32,2.76-2.84,4.55-2.93,7.29-.18,3.94,3.94,7.8,8,11.72,11.9,2.24,2.26,4.54,4.46,6.81,6.7a3.44,3.44,0,0,1,.81,4.13,3.61,3.61,0,0,1-3.5,2.36h-3.94"/><path class="cls-1" d="M121.39,31.67a3.79,3.79,0,1,1,0-7.58,3.79,3.79,0,1,1,0,7.58"/></svg>