<svg id="Layer_1" data-name="Layer 1" xmlns="http://www.w3.org/2000/svg" viewBox="0 0 200 200"><defs><style>.cls-1{fill:#41a6dd;}</style></defs><path class="cls-1" d="M123.36,88.08c1.93-1.58,16-15.14,16.24-15.71H123.36ZM125,63.14a54.25,54.25,0,0,0-.14-7,6.05,6.05,0,0,0-7.9-4.93,6.34,6.34,0,0,0-4.12,5.71c-.07,2,0,3.93,0,5.9a1.17,1.17,0,0,0,.09.33Zm4.54,32.56c0,.07.1.15.16.22h16.17v-1c0-3.7,0-7.41,0-11.11,0-.66-.06-1.31.53-1.78-.77-1.29-1.5-2.54-2.36-3.72a15.57,15.57,0,0,0,.06,2.65,1.56,1.56,0,0,1-.57,1.48C139,86.71,134.56,91,130.1,95.25a5.65,5.65,0,0,1-.61.45M92.08,80c-.2,1-.16,15.32,0,15.94,1.23.17,15.59.11,16.23-.08L92.08,80m22.26,8.32v-16H97.69l16.65,16m-63-69.36H39.44v12.2H51.29Zm73.52,162.46V169.22H112.94c-.19.95-.15,11.52,0,12.16Zm29.87,0H177c.18-1.08.13-11.63-.05-12.21-1.72-.17-21.6-.09-22.24.09ZM166.5,160c.19-1.22.13-54.28-.05-54.87-1.66-.16-11.16-.08-11.76.09V160ZM82.94,169.2H18.16v12.13H82.94ZM118.78,20.78l-.39.37q-13,13.35-26,26.69a1.76,1.76,0,0,0-.51,1.36c0,3.94,0,7.87,0,11.81,0,.71,0,1.41,0,2.14h12.21v-.89c0-1.77,0-3.54,0-5.31a14.79,14.79,0,0,1,7-12.65c4.51-3,9.37-3,14.15-.85,5.16,2.37,7.76,6.79,8.36,12.42.23,2.09.1,4.22.14,6.32,0,.31,0,.62,0,.9,1.11.17,11.47.13,12.09,0,0-.16,0-.33,0-.5,0-4,0-8,0-12.06a5.09,5.09,0,0,0-1.54-3.75q-11.74-12-23.48-24c-.63-.65-1.3-1.24-2-1.91M154.7,57.6V95.88H177c.17-.86.15-55,0-55.62H150.67c.15.21.23.35.33.46.79.86,1.55,1.73,2.36,2.56,3.39,3.51,6.81,7,10.2,10.51a5.18,5.18,0,0,1,.91,1.22,4.12,4.12,0,0,1-.2,4.52,4.07,4.07,0,0,1-4.09,2,4.79,4.79,0,0,1-2.68-1.29l-2.8-2.6M82.93,160V105.15c-1.53-.19-53.76-.11-54.34.07V160Zm62.78,21.31V105.15c-1-.17-53.07-.13-53.67,0-.17,1.47-.1,75.51.07,76.11h11.94V165.68c0-.43,0-.86,0-1.28a4.2,4.2,0,0,1,4.05-4.2c.39,0,.78,0,1.18,0h19.09c.5,0,1,0,1.5.08a4,4,0,0,1,3.51,3.07,6.94,6.94,0,0,1,.22,1.69c0,2.45,0,4.91,0,7.36l.06,8.13c0,.27,0,.54.06.82Zm-59.1-141c-1-.18-67.81-.15-68.42,0-.15,1.41-.09,54.89.07,55.49H83c0-.21.05-.38.05-.55Q83,76.4,83,57.48s0,0,0-.06l-.15-.05-2.47,2.36a6.6,6.6,0,0,1-2.46,1.57,4.24,4.24,0,0,1-5.51-4.1,5.3,5.3,0,0,1,1.73-3.77c1.83-1.88,3.69-3.73,5.51-5.62,2.18-2.25,4.33-4.53,6.48-6.81.18-.19.34-.42.53-.66m89,64.6v55.21h1c1.68,0,3.36,0,5,.06,2.55.16,4,1.66,4.17,4.24,0,.48,0,1,0,1.46,0,6.1,0,12.21,0,18.31a16.43,16.43,0,0,1-.25,2.89,3.51,3.51,0,0,1-3.07,3.07,16.78,16.78,0,0,1-2.83.21H45.31l-24.2,0c-2.4,0-4.8,0-7.2-.06a4.89,4.89,0,0,1-4.1-2.28,3,3,0,0,1-.54-1.75q0-11,0-21.92A4,4,0,0,1,11.05,161a4.21,4.21,0,0,1,2.27-.8c1-.07,2-.08,3-.1l3.29-.07V105c-1.15,0-2.26,0-3.37,0a31.46,31.46,0,0,1-3.5-.21,4.24,4.24,0,0,1-3.27-2.65,3.15,3.15,0,0,1-.18-.82,5.14,5.14,0,0,1,0-.68q0-32.4,0-64.8a3.61,3.61,0,0,1,.54-2.27,5.12,5.12,0,0,1,2.23-1.87,7.9,7.9,0,0,1,3-.44c5,0,10,0,15.07.06a2,2,0,0,0,.31-.06c0-.23.06-.48.06-.72q0-7.32,0-14.64a13.38,13.38,0,0,1,.2-2.37,4.82,4.82,0,0,1,2.68-3.42,1.83,1.83,0,0,1,.8-.17H56.48a2.28,2.28,0,0,1,1,.27,5,5,0,0,1,2.67,4.54c0,1.45,0,2.91,0,4.36,0,3.8,0,7.59,0,11.39v.74a6.28,6.28,0,0,0,.68.07l29.14,0c1.32,0,2.63,0,3.94,0a4.39,4.39,0,0,0,3.44-1.45q5.88-6,11.78-11.93c1.61-1.62,3.19-3.29,4.84-4.85,1.11-1,2.33-2,3.51-2.91a1.28,1.28,0,0,1,.7-.21c1.63-.09,1.62-.06,3,.93a37.71,37.71,0,0,1,4.59,4.25c4.7,4.79,9.41,9.59,14.08,14.42a5.54,5.54,0,0,0,4.25,1.81c8.06,0,16.13,0,24.2,0q6.36,0,12.73,0a8,8,0,0,1,1.82.21,4,4,0,0,1,3,3.62c0,.28,0,.57,0,.85l0,59.32c0,1.77,0,3.54,0,5.31a4.18,4.18,0,0,1-3.52,4.25,4.82,4.82,0,0,1-1,.08c-1.59,0-3.19,0-4.77,0Z"/><path class="cls-1" d="M124.79,126.43H112.92v12.18h11.87Zm-20.73,6.07c0-3.48,0-7,0-10.44,0-2.85,1.71-4.6,4.51-4.62q10.26,0,20.51,0c2.8,0,4.46,1.72,4.53,4.6,0,2,0,4,0,6q0,6.76,0,13.52a22.19,22.19,0,0,1-.11,2.31,4,4,0,0,1-3.57,3.71,40.33,40.33,0,0,1-4.26.13c-5.64,0-11.28,0-16.92,0a6.4,6.4,0,0,1-1.57-.17,4.17,4.17,0,0,1-3.15-4.13c0-1.51,0-3,0-4.54V132.5Z"/><path class="cls-1" d="M61.71,126.44H49.85v12.19H61.71ZM41,132.5q0-5,0-10.1a7.86,7.86,0,0,1,.1-1.45,4.13,4.13,0,0,1,4.09-3.49c.33,0,.67,0,1,0H65.49a8.34,8.34,0,0,1,1.66.15,4.08,4.08,0,0,1,3.41,3.89c0,.37,0,.74,0,1.12q0,9.93,0,19.86a8.88,8.88,0,0,1-.16,1.86,3.92,3.92,0,0,1-3.21,3.21,7.33,7.33,0,0,1-1.41.15h-20a8.45,8.45,0,0,1-1.42-.15,4.05,4.05,0,0,1-3.28-3.82,25.88,25.88,0,0,1-.09-2.65c0-2.85,0-5.7,0-8.56h0"/></svg>