<svg id="Layer_1" data-name="Layer 1" xmlns="http://www.w3.org/2000/svg" viewBox="0 0 200 200"><defs><style>.cls-1{fill:#41a6dd;}</style></defs><path class="cls-1" d="M162.13,17.33H34.19V47.46H162.13Zm0,166.77c0-.54.06-1,.06-1.48q0-62.43,0-124.85c0-1.23-.35-1.53-1.55-1.53q-62.53,0-125.06,0c-1.19,0-1.55.29-1.55,1.53q0,62.43,0,124.85c0,.47,0,.94.06,1.48ZM25.35,100.64V14c0-4,1.51-5.45,5.52-5.46H165.58c3.82,0,5.38,1.53,5.38,5.32V187.57c0,3.79-1.56,5.33-5.38,5.33H30.74c-3.83,0-5.39-1.54-5.39-5.33V100.64"/><path class="cls-1" d="M98.16,162.17a42,42,0,1,0-42-41.95,42,42,0,0,0,42,41.95m56.26-41.89a47,47,0,0,1,0,6.17,9.49,9.49,0,0,1-6.47,7.94,2.35,2.35,0,0,0-1.48,1.6c-7,19.37-20.73,31.12-41.1,34.4-25.95,4.18-51.39-13.65-56.78-39.32C42.67,103.13,60,76.3,88,70.55a50.63,50.63,0,0,1,58.37,33.75,2.65,2.65,0,0,0,1.76,1.83,10.11,10.11,0,0,1,6.45,9.4c0,1.59,0,3.17,0,4.75h-.17"/><path class="cls-1" d="M98,36.75c-6.55,0-13.1,0-19.64,0a4.26,4.26,0,0,1-4.2-3A4.11,4.11,0,0,1,75.72,29a5.48,5.48,0,0,1,2.81-.91q19.64-.09,39.28,0a4.39,4.39,0,0,1,4.55,4.44,4.32,4.32,0,0,1-4.57,4.27c-6.59,0-13.18,0-19.77,0"/><path class="cls-1" d="M133.11,37.74a5.35,5.35,0,1,1,0-10.7,5.35,5.35,0,1,1,0,10.7"/><path class="cls-1" d="M149.16,37.74a5.35,5.35,0,1,1,5.42-5.29,5.36,5.36,0,0,1-5.42,5.29"/><path class="cls-1" d="M98.07,146.36A26.14,26.14,0,1,0,72,119.9a26.13,26.13,0,0,0,26.09,26.46m0,8.78a34.9,34.9,0,1,1,35-34.89,35,35,0,0,1-35,34.89"/></svg>